<?xml version="1.0" encoding="UTF-8"?>
<svg viewBox="0 0 720 380" xmlns="http://www.w3.org/2000/svg" font-family="sans-serif">
<defs>
  <filter id="sh3"><feDropShadow dx="1" dy="2" stdDeviation="2" flood-opacity="0.1"/></filter>
  <marker id="ar3" viewBox="0 0 10 10" refX="9" refY="5" markerWidth="7" markerHeight="7" orient="auto"><path d="M0 0L10 5L0 10z" fill="#546e7a"/></marker>
</defs>
<rect x="20" y="20" width="240" height="42" rx="8" fill="#e8f5e9" stroke="#22c55e" stroke-width="2" filter="url(#sh3)"/>
<text x="140" y="46" text-anchor="middle" font-size="13" font-weight="bold" fill="#16a34a">📁 S3 버킷 (원본 데이터)</text>
<line x1="260" y1="41" x2="408" y2="41" stroke="#546e7a" stroke-width="2" marker-end="url(#ar3)"/>
<text x="334" y="33" text-anchor="middle" font-size="11" fill="#546e7a">연결</text>
<rect x="418" y="20" width="220" height="42" rx="8" fill="#e8f5e9" stroke="#22c55e" stroke-width="2" filter="url(#sh3)"/>
<text x="528" y="46" text-anchor="middle" font-size="13" font-weight="bold" fill="#16a34a">⚡ FSx for Lustre</text>
<line x1="528" y1="62" x2="528" y2="90" stroke="#546e7a" stroke-width="1.5"/>
<rect x="398" y="90" width="240" height="34" rx="8" fill="#fff3e0" stroke="#f59e0b" stroke-width="1.5" filter="url(#sh3)"/>
<text x="518" y="112" text-anchor="middle" font-size="12" fill="#b45309">🔥 Scratch (임시/버스트)</text>
<line x1="528" y1="124" x2="528" y2="138" stroke="#546e7a" stroke-width="1.5"/>
<rect x="398" y="138" width="240" height="34" rx="8" fill="#fff3e0" stroke="#f59e0b" stroke-width="1.5" filter="url(#sh3)"/>
<text x="518" y="160" text-anchor="middle" font-size="12" fill="#b45309">💾 Persistent (장기/안정)</text>
<line x1="460" y1="172" x2="380" y2="210" stroke="#546e7a" stroke-width="2" marker-end="url(#ar3)"/>
<rect x="230" y="210" width="280" height="42" rx="8" fill="#fff3e0" stroke="#f59e0b" stroke-width="2" filter="url(#sh3)"/>
<text x="370" y="236" text-anchor="middle" font-size="13" font-weight="bold" fill="#b45309">🖥️ HPC 클러스터 (병렬 처리)</text>
<line x1="370" y1="252" x2="370" y2="290" stroke="#546e7a" stroke-width="2" marker-end="url(#ar3)"/>
<rect x="200" y="290" width="310" height="42" rx="8" fill="#e8f5e9" stroke="#22c55e" stroke-width="2" filter="url(#sh3)"/>
<text x="355" y="310" text-anchor="middle" font-size="12" font-weight="bold" fill="#16a34a">📁 결과 → S3 버킷</text>
<text x="355" y="326" text-anchor="middle" font-size="11" fill="#16a34a">(자동 내보내기)</text>
</svg>