<?xml version="1.0" encoding="UTF-8"?>
<svg viewBox="0 0 720 290" xmlns="http://www.w3.org/2000/svg" font-family="sans-serif">
<defs>
  <filter id="sh2"><feDropShadow dx="1" dy="2" stdDeviation="2" flood-opacity="0.1"/></filter>
  <marker id="ar2" viewBox="0 0 10 10" refX="9" refY="5" markerWidth="7" markerHeight="7" orient="auto"><path d="M0 0L10 5L0 10z" fill="#546e7a"/></marker>
</defs>
<rect x="30" y="25" width="190" height="42" rx="8" fill="#e0f2fe" stroke="#0284c7" stroke-width="2" filter="url(#sh2)"/>
<text x="125" y="51" text-anchor="middle" font-size="13" font-weight="bold" fill="#0284c7">💻 Windows EC2</text>
<line x1="220" y1="46" x2="388" y2="46" stroke="#546e7a" stroke-width="2" marker-end="url(#ar2)"/>
<text x="304" y="38" text-anchor="middle" font-size="11" fill="#546e7a">SMB</text>
<rect x="398" y="25" width="210" height="42" rx="8" fill="#e8f5e9" stroke="#22c55e" stroke-width="2" filter="url(#sh2)"/>
<text x="503" y="51" text-anchor="middle" font-size="13" font-weight="bold" fill="#16a34a">📦 FSx for Windows</text>
<line x1="503" y1="67" x2="503" y2="100" stroke="#546e7a" stroke-width="1.5"/>
<rect x="340" y="100" width="280" height="34" rx="8" fill="#fff3e0" stroke="#f59e0b" stroke-width="1.5" filter="url(#sh2)"/>
<text x="480" y="122" text-anchor="middle" font-size="12" fill="#b45309">🔐 AWS Managed AD 통합</text>
<line x1="503" y1="134" x2="503" y2="148" stroke="#546e7a" stroke-width="1.5"/>
<rect x="340" y="148" width="280" height="34" rx="8" fill="#fff3e0" stroke="#f59e0b" stroke-width="1.5" filter="url(#sh2)"/>
<text x="480" y="170" text-anchor="middle" font-size="12" fill="#b45309">📂 DFS 네임스페이스</text>
<line x1="503" y1="182" x2="503" y2="196" stroke="#546e7a" stroke-width="1.5"/>
<rect x="340" y="196" width="280" height="34" rx="8" fill="#fff3e0" stroke="#f59e0b" stroke-width="1.5" filter="url(#sh2)"/>
<text x="480" y="218" text-anchor="middle" font-size="12" fill="#b45309">📋 Shadow Copy / 중복 제거</text>
<line x1="503" y1="230" x2="503" y2="244" stroke="#546e7a" stroke-width="1.5"/>
<rect x="340" y="244" width="280" height="34" rx="8" fill="#fff3e0" stroke="#f59e0b" stroke-width="1.5" filter="url(#sh2)"/>
<text x="480" y="266" text-anchor="middle" font-size="12" fill="#b45309">🌐 Multi-AZ 고가용성</text>
</svg>