<?xml version="1.0" encoding="UTF-8"?>
<svg viewBox="0 0 720 320" xmlns="http://www.w3.org/2000/svg" font-family="sans-serif">
<defs>
  <filter id="sh5"><feDropShadow dx="1" dy="2" stdDeviation="2" flood-opacity="0.1"/></filter>
  <marker id="ar5" viewBox="0 0 10 10" refX="9" refY="5" markerWidth="7" markerHeight="7" orient="auto"><path d="M0 0L10 5L0 10z" fill="#546e7a"/></marker>
</defs>
<rect x="10" y="30" width="120" height="38" rx="8" fill="#e0f2fe" stroke="#0284c7" stroke-width="1.5" filter="url(#sh5)"/>
<text x="70" y="54" text-anchor="middle" font-size="12" font-weight="bold" fill="#0284c7">📥 데이터 소스</text>
<line x1="130" y1="49" x2="148" y2="49" stroke="#546e7a" stroke-width="2" marker-end="url(#ar5)"/>
<rect x="158" y="30" width="110" height="38" rx="8" fill="#e8f5e9" stroke="#22c55e" stroke-width="1.5" filter="url(#sh5)"/>
<text x="213" y="54" text-anchor="middle" font-size="12" font-weight="bold" fill="#16a34a">📁 S3 버킷</text>
<line x1="268" y1="49" x2="286" y2="49" stroke="#546e7a" stroke-width="2" marker-end="url(#ar5)"/>
<rect x="296" y="20" width="150" height="48" rx="8" fill="#e8f5e9" stroke="#22c55e" stroke-width="1.5" filter="url(#sh5)"/>
<text x="371" y="42" text-anchor="middle" font-size="12" font-weight="bold" fill="#16a34a">⚡ FSx for Lustre</text>
<text x="371" y="58" text-anchor="middle" font-size="9" fill="#16a34a">(Scratch/Persistent)</text>
<line x1="446" y1="49" x2="464" y2="49" stroke="#546e7a" stroke-width="2" marker-end="url(#ar5)"/>
<rect x="474" y="30" width="130" height="38" rx="8" fill="#fff3e0" stroke="#f59e0b" stroke-width="1.5" filter="url(#sh5)"/>
<text x="539" y="54" text-anchor="middle" font-size="12" font-weight="bold" fill="#b45309">🖥️ HPC 클러스터</text>
<line x1="604" y1="49" x2="622" y2="49" stroke="#546e7a" stroke-width="2" marker-end="url(#ar5)"/>
<rect x="612" y="30" width="100" height="38" rx="8" fill="#e8f5e9" stroke="#22c55e" stroke-width="1.5" filter="url(#sh5)"/>
<text x="662" y="54" text-anchor="middle" font-size="12" font-weight="bold" fill="#16a34a">📁 결과 S3</text>
<text x="213" y="96" text-anchor="middle" font-size="10" fill="#546e7a">원본</text>
<polygon points="213,80 208,88 218,88" fill="#546e7a"/>
<line x1="539" y1="68" x2="539" y2="130" stroke="#546e7a" stroke-width="2" marker-end="url(#ar5)"/>
<rect x="454" y="130" width="170" height="38" rx="8" fill="#fff3e0" stroke="#f59e0b" stroke-width="1.5" filter="url(#sh5)"/>
<text x="539" y="154" text-anchor="middle" font-size="12" fill="#b45309">🔄 Step Functions</text>
<line x1="539" y1="168" x2="539" y2="220" stroke="#546e7a" stroke-width="2" marker-end="url(#ar5)"/>
<rect x="454" y="220" width="170" height="38" rx="8" fill="#fff3e0" stroke="#f59e0b" stroke-width="1.5" filter="url(#sh5)"/>
<text x="539" y="244" text-anchor="middle" font-size="12" fill="#b45309">📊 분석 / 시각화</text>
</svg>