<?xml version="1.0" encoding="UTF-8"?>
<svg viewBox="0 0 760 440" xmlns="http://www.w3.org/2000/svg" font-family="'Segoe UI','Noto Sans KR',system-ui,sans-serif">
  <defs>
    <marker id="arrow4" markerWidth="10" markerHeight="7" refX="10" refY="3.5" orient="auto"><polygon points="0 0, 10 3.5, 0 7" fill="#546e7a"/></marker>
    <filter id="shadow4"><feDropShadow dx="1" dy="2" stdDeviation="2" flood-opacity="0.1"/></filter>
  </defs>
  <rect width="760" height="440" fill="#f8fafb" rx="8"/>
  <text x="380" y="30" text-anchor="middle" font-size="14" font-weight="bold" fill="#2c3e50">S3 엔드포인트 접근 경로 비교</text>
  <rect x="40" y="50" width="400" height="160" rx="10" fill="#dbeafe" stroke="#2563eb" stroke-width="1.5" filter="url(#shadow4)"/>
  <text x="240" y="75" text-anchor="middle" font-size="13" font-weight="bold" fill="#1565c0">인터넷</text>
  <rect x="60" y="90" width="130" height="30" rx="5" fill="#ffffff" stroke="#2563eb" stroke-width="1"/>
  <text x="125" y="110" text-anchor="middle" font-size="10" fill="#2c3e50">Client</text>
  <line x1="190" y1="105" x2="310" y2="105" stroke="#546e7a" stroke-width="1.2" marker-end="url(#arrow4)"/>
  <text x="250" y="98" text-anchor="middle" font-size="9" fill="#546e7a">Virtual-hosted</text>
  <rect x="60" y="130" width="130" height="30" rx="5" fill="#ffffff" stroke="#2563eb" stroke-width="1"/>
  <text x="125" y="150" text-anchor="middle" font-size="10" fill="#2c3e50">Client</text>
  <line x1="190" y1="145" x2="310" y2="145" stroke="#546e7a" stroke-width="1.2" marker-end="url(#arrow4)"/>
  <text x="250" y="138" text-anchor="middle" font-size="9" fill="#546e7a">Access Point</text>
  <rect x="310" y="85" width="110" height="90" rx="8" fill="#fef3c7" stroke="#f59e0b" stroke-width="1.5"/>
  <text x="365" y="115" text-anchor="middle" font-size="11" font-weight="bold" fill="#92400e">Amazon S3</text>
  <text x="365" y="135" text-anchor="middle" font-size="10" fill="#666666">Bucket</text>
  <text x="365" y="152" text-anchor="middle" font-size="10" fill="#666666">Object</text>
  <rect x="480" y="85" width="110" height="90" rx="8" fill="#fef3c7" stroke="#f59e0b" stroke-width="1.5"/>
  <text x="535" y="115" text-anchor="middle" font-size="11" font-weight="bold" fill="#92400e">Amazon S3</text>
  <text x="535" y="135" text-anchor="middle" font-size="10" fill="#666666">Bucket</text>
  <text x="535" y="152" text-anchor="middle" font-size="10" fill="#666666">Object</text>
  <rect x="40" y="240" width="400" height="170" rx="10" fill="#f3e5f5" stroke="#7c3aed" stroke-width="1.5" filter="url(#shadow4)"/>
  <text x="240" y="268" text-anchor="middle" font-size="13" font-weight="bold" fill="#7c3aed">VPC</text>
  <rect x="60" y="290" width="120" height="36" rx="6" fill="#ffffff" stroke="#7c3aed" stroke-width="1.2"/>
  <text x="120" y="313" text-anchor="middle" font-size="11" font-weight="bold" fill="#7c3aed">EC2</text>
  <line x1="180" y1="308" x2="330" y2="308" stroke="#546e7a" stroke-width="1.2" marker-end="url(#arrow4)"/>
  <text x="255" y="300" text-anchor="middle" font-size="9" fill="#546e7a">VPC Endpoint (PrivateLink)</text>
  <rect x="330" y="285" width="90" height="50" rx="6" fill="#fef3c7" stroke="#f59e0b" stroke-width="1.2"/>
  <text x="375" y="308" text-anchor="middle" font-size="11" font-weight="bold" fill="#92400e">S3</text>
  <text x="240" y="370" text-anchor="middle" font-size="10" fill="#7c3aed">인터넷 통과 없이 프라이빗 접근</text>
</svg>