<?xml version="1.0" encoding="UTF-8"?>
<svg viewBox="0 0 760 520" xmlns="http://www.w3.org/2000/svg">
  <defs>
    <marker id="arrow3" markerWidth="10" markerHeight="7" refX="10" refY="3.5" orient="auto"><polygon points="0 0, 10 3.5, 0 7" fill="#546e7a"/></marker>
    <marker id="arrow3b" markerWidth="10" markerHeight="7" refX="0" refY="3.5" orient="auto"><polygon points="10 0, 0 3.5, 10 7" fill="#546e7a"/></marker>
    <filter id="shadow3"><feDropShadow dx="1" dy="2" stdDeviation="2" flood-opacity="0.1"/></filter>
  </defs>
  <rect width="760" height="520" fill="#f8fafb" rx="8"/>
  <text x="380" y="30" text-anchor="middle" font-size="14" font-weight="bold" fill="#333">인증 흐름 다이어그램 (SigV4)</text>
  <rect x="60" y="50" width="200" height="40" rx="8" fill="#e8f0fe" stroke="#4285f4" stroke-width="1.5" filter="url(#shadow3)"/>
  <text x="160" y="76" text-anchor="middle" font-size="13" font-weight="bold" fill="#1565c0">Client</text>
  <rect x="500" y="50" width="200" height="40" rx="8" fill="#fff3e0" stroke="#ff9900" stroke-width="1.5" filter="url(#shadow3)"/>
  <text x="600" y="76" text-anchor="middle" font-size="13" font-weight="bold" fill="#e65100">Amazon S3</text>
  <line x1="260" y1="70" x2="500" y2="70" stroke="#546e7a" stroke-width="1.5" marker-end="url(#arrow3)"/>
  <text x="380" y="63" text-anchor="middle" font-size="10" fill="#546e7a">1. GET /bucket/key</text>
  <text x="380" y="86" text-anchor="middle" font-size="9" fill="#888">Authorization: AWS4-HMAC-SHA256 Credential=AKIA.../...</text>
  <rect x="440" y="110" width="280" height="160" rx="8" fill="#ffffff" stroke="#ffb74d" stroke-width="1.2" filter="url(#shadow3)"/>
  <text x="580" y="132" text-anchor="middle" font-size="11" font-weight="bold" fill="#e65100">2. 서명 검증 프로세스</text>
  <text x="460" y="155" font-size="10" fill="#555">① Access Key 확인</text>
  <text x="460" y="175" font-size="10" fill="#555">② 서명 재계산</text>
  <text x="460" y="195" font-size="10" fill="#555">③ 요청 무결성 검증</text>
  <text x="460" y="215" font-size="10" fill="#555">④ IAM 정책 평가</text>
  <text x="460" y="235" font-size="10" fill="#555">⑤ 버킷 정책 평가</text>
  <text x="460" y="255" font-size="10" fill="#555">⑥ 권한 허용/거부</text>
  <line x1="500" y1="300" x2="260" y2="340" stroke="#43a047" stroke-width="1.5" marker-end="url(#arrow3b)"/>
  <rect x="100" y="320" width="280" height="50" rx="6" fill="#e8f5e9" stroke="#43a047" stroke-width="1.5" filter="url(#shadow3)"/>
  <text x="240" y="342" text-anchor="middle" font-size="12" font-weight="bold" fill="#2e7d32">3a. 권한 허용</text>
  <text x="240" y="360" text-anchor="middle" font-size="11" fill="#555">200 OK + Object Data</text>
  <line x1="500" y1="310" x2="260" y2="410" stroke="#e53935" stroke-width="1.5" marker-end="url(#arrow3b)"/>
  <rect x="100" y="390" width="280" height="50" rx="6" fill="#fce4ec" stroke="#e53935" stroke-width="1.5" filter="url(#shadow3)"/>
  <text x="240" y="412" text-anchor="middle" font-size="12" font-weight="bold" fill="#c62828">3b. 권한 거부</text>
  <text x="240" y="430" text-anchor="middle" font-size="11" fill="#555">403 Forbidden — AccessDenied</text>
</svg>