<?xml version="1.0" encoding="UTF-8"?>
<svg viewBox="0 0 760 560" xmlns="http://www.w3.org/2000/svg">
  <defs>
    <marker id="arrow6" markerWidth="10" markerHeight="7" refX="10" refY="3.5" orient="auto"><polygon points="0 0, 10 3.5, 0 7" fill="#546e7a"/></marker>
    <marker id="arrow6b" markerWidth="10" markerHeight="7" refX="0" refY="3.5" orient="auto"><polygon points="10 0, 0 3.5, 10 7" fill="#546e7a"/></marker>
    <filter id="shadow6"><feDropShadow dx="1" dy="2" stdDeviation="2" flood-opacity="0.1"/></filter>
  </defs>
  <rect width="760" height="560" fill="#f8fafb" rx="8"/>
  <text x="380" y="30" text-anchor="middle" font-size="14" font-weight="bold" fill="#333">AWS CLI S3 조작 흐름</text>
  <rect x="50" y="50" width="280" height="130" rx="10" fill="#e8f0fe" stroke="#4285f4" stroke-width="1.5" filter="url(#shadow6)"/>
  <text x="190" y="78" text-anchor="middle" font-size="13" font-weight="bold" fill="#1565c0">로컬 파일시스템</text>
  <rect x="70" y="95" width="240" height="70" rx="6" fill="#ffffff" stroke="#90caf9" stroke-width="1"/>
  <text x="190" y="118" text-anchor="middle" font-size="11" fill="#333">local-data/</text>
  <text x="190" y="138" text-anchor="middle" font-size="10" fill="#555">├── data.csv</text>
  <text x="190" y="154" text-anchor="middle" font-size="10" fill="#555">├── report/ └── images/</text>
  <rect x="430" y="50" width="280" height="130" rx="10" fill="#fff3e0" stroke="#ff9900" stroke-width="1.5" filter="url(#shadow6)"/>
  <text x="570" y="78" text-anchor="middle" font-size="13" font-weight="bold" fill="#e65100">Amazon S3</text>
  <rect x="450" y="95" width="240" height="70" rx="6" fill="#ffffff" stroke="#ffb74d" stroke-width="1"/>
  <text x="570" y="118" text-anchor="middle" font-size="11" fill="#333">my-bucket/</text>
  <text x="570" y="138" text-anchor="middle" font-size="10" fill="#555">├── data.csv</text>
  <text x="570" y="154" text-anchor="middle" font-size="10" fill="#555">├── report/ └── images/</text>
  <line x1="330" y1="110" x2="430" y2="110" stroke="#43a047" stroke-width="1.5" marker-end="url(#arrow6)"/>
  <text x="380" y="105" text-anchor="middle" font-size="10" fill="#43a047">cp (업로드)</text>
  <line x1="330" y1="135" x2="430" y2="135" stroke="#43a047" stroke-width="1.5" marker-end="url(#arrow6)"/>
  <text x="380" y="130" text-anchor="middle" font-size="10" fill="#43a047">sync</text>
  <line x1="430" y1="160" x2="330" y2="160" stroke="#546e7a" stroke-width="1.5" marker-end="url(#arrow6b)"/>
  <text x="380" y="178" text-anchor="middle" font-size="10" fill="#546e7a">cp (다운로드) / sync</text>
  <line x1="330" y1="200" x2="430" y2="200" stroke="#e53935" stroke-width="1.5" marker-end="url(#arrow6)"/>
  <text x="380" y="218" text-anchor="middle" font-size="10" fill="#e53935">rm (삭제) / mv (이동)</text>
  <rect x="180" y="250" width="400" height="50" rx="8" fill="#e8f5e9" stroke="#43a047" stroke-width="1.5" filter="url(#shadow6)"/>
  <text x="380" y="272" text-anchor="middle" font-size="12" font-weight="bold" fill="#2e7d32">aws s3 (고수준 명령어)</text>
  <text x="380" y="290" text-anchor="middle" font-size="10" fill="#555">cp / mv / rm / sync</text>
  <rect x="180" y="310" width="400" height="50" rx="8" fill="#fce4ec" stroke="#e53935" stroke-width="1.5" filter="url(#shadow6)"/>
  <text x="380" y="332" text-anchor="middle" font-size="12" font-weight="bold" fill="#c62828">aws s3api (저수준 API)</text>
  <text x="380" y="350" text-anchor="middle" font-size="10" fill="#555">put-object / get-object / head-object</text>
</svg>