<?xml version="1.0" encoding="UTF-8"?>
<svg viewBox="0 0 740 280" xmlns="http://www.w3.org/2000/svg">
  <defs>
    <filter id="sh"><feDropShadow dx="1" dy="2" stdDeviation="2" flood-opacity="0.1"/></filter>
    <marker id="ar" markerWidth="10" markerHeight="7" refX="10" refY="3.5" orient="auto"><polygon points="0 0, 10 3.5, 0 7" fill="#546e7a"/></marker>
  </defs>
  <rect width="740" height="280" fill="#f8fafc" rx="8"/>
  <text x="370" y="26" text-anchor="middle" font-size="14" font-weight="700" font-family="sans-serif" fill="#37474f">📈 스팟 인스턴스 중단 흐름</text>
  <text x="60" y="55" text-anchor="middle" font-size="11" font-weight="600" font-family="sans-serif" fill="#546e7a">가격 ▲</text>
  <line x1="90" y1="50" x2="90" y2="230" stroke="#e2e8f0" stroke-width="1"/>
  <line x1="90" y1="230" x2="700" y2="230" stroke="#e2e8f0" stroke-width="1"/>
  <text x="700" y="245" text-anchor="middle" font-size="11" font-weight="600" font-family="sans-serif" fill="#546e7a">시간 ►</text>
  <line x1="100" y1="160" x2="700" y2="160" stroke="#22c55e" stroke-width="2" stroke-dasharray="8 4"/>
  <text x="715" y="164" text-anchor="start" font-size="9" font-weight="600" font-family="sans-serif" fill="#22c55e">입찰가</text>
  <polyline points="100,200 150,190 200,170 260,140 310,120 370,130 420,150 500,100 560,80 620,140 680,170" fill="none" stroke="#f59e0b" stroke-width="2.5"/>
  <text x="400" y="195" text-anchor="middle" font-size="10" font-weight="600" font-family="sans-serif" fill="#f59e0b">스팟 가격</text>
  <rect x="440" y="62" width="230" height="45" rx="8" fill="#fce4ec" stroke="#ef4444" stroke-width="1.5" filter="url(#sh)"/>
  <text x="555" y="82" text-anchor="middle" font-size="11" font-weight="700" font-family="sans-serif" fill="#b91c1c">⚠️ 스팟 가격 > 입찰가!</text>
  <text x="555" y="99" text-anchor="middle" font-size="10" font-family="sans-serif" fill="#ef4444">2분 전 경고 → 인스턴스 종료</text>
  <line x1="500" y1="107" x2="500" y2="120" stroke="#ef4444" stroke-width="1" stroke-dasharray="3 2"/>
  <rect x="100" y="255" width="200" height="20" rx="5" fill="#e8f5e9" stroke="#22c55e" stroke-width="1"/>
  <text x="200" y="269" text-anchor="middle" font-size="10" font-family="sans-serif" fill="#15803d">✅ 입찰가 > 스팟가: 정상 실행</text>
  <rect x="320" y="255" width="200" height="20" rx="5" fill="#fce4ec" stroke="#ef4444" stroke-width="1"/>
  <text x="420" y="269" text-anchor="middle" font-size="10" font-family="sans-serif" fill="#b91c1c">❌ 스팟가 > 입찰가: 2분 경고 후 종료</text>
</svg>