<?xml version="1.0" encoding="UTF-8"?>
<svg viewBox="0 0 740 380" xmlns="http://www.w3.org/2000/svg">
  <defs>
    <filter id="sh"><feDropShadow dx="1" dy="2" stdDeviation="2" flood-opacity="0.1"/></filter>
    <marker id="ar" markerWidth="10" markerHeight="7" refX="10" refY="3.5" orient="auto"><polygon points="0 0, 10 3.5, 0 7" fill="#546e7a"/></marker>
  </defs>
  <rect width="740" height="380" fill="#f8fafc" rx="8"/>
  <text x="370" y="26" text-anchor="middle" font-size="14" font-weight="700" font-family="sans-serif" fill="#37474f">🖥️ Amazon EC2 기본 아키텍처</text>
  <rect x="200" y="42" width="340" height="40" rx="8" fill="#e0f2fe" stroke="#0284c7" stroke-width="2" filter="url(#sh)"/>
  <text x="370" y="67" text-anchor="middle" font-size="12" font-weight="700" font-family="sans-serif" fill="#0d47a1">🌍 인터넷</text>
  <line x1="370" y1="82" x2="370" y2="110" stroke="#546e7a" stroke-width="1.5" marker-end="url(#ar)"/>
  <rect x="270" y="115" width="200" height="40" rx="8" fill="#f3e8ff" stroke="#8b5cf6" stroke-width="2" filter="url(#sh)"/>
  <text x="370" y="140" text-anchor="middle" font-size="12" font-weight="700" font-family="sans-serif" fill="#6b21a8">🚪 Internet Gateway</text>
  <line x1="370" y1="155" x2="370" y2="180" stroke="#546e7a" stroke-width="1.5" marker-end="url(#ar)"/>
  <rect x="60" y="185" width="620" height="185" rx="10" fill="#fff3e0" stroke="#f59e0b" stroke-width="2" filter="url(#sh)"/>
  <text x="370" y="208" text-anchor="middle" font-size="13" font-weight="700" font-family="sans-serif" fill="#e65100">☁️ VPC</text>
  <rect x="80" y="218" width="580" height="140" rx="8" fill="#e8f5e9" stroke="#22c55e" stroke-width="1.5" filter="url(#sh)"/>
  <text x="370" y="240" text-anchor="middle" font-size="11" font-weight="600" font-family="sans-serif" fill="#15803d">🌐 퍼블릭 서브넷</text>
  <rect x="100" y="252" width="155" height="55" rx="6" fill="#fff3e0" stroke="#f59e0b" stroke-width="1" filter="url(#sh)"/>
  <text x="177" y="275" text-anchor="middle" font-size="11" font-weight="600" font-family="sans-serif" fill="#e65100">🖥️ EC2-A</text>
  <text x="177" y="293" text-anchor="middle" font-size="9" font-family="sans-serif" fill="#78909c">Web Server</text>
  <rect x="275" y="252" width="155" height="55" rx="6" fill="#fff3e0" stroke="#f59e0b" stroke-width="1" filter="url(#sh)"/>
  <text x="352" y="275" text-anchor="middle" font-size="11" font-weight="600" font-family="sans-serif" fill="#e65100">🖥️ EC2-B</text>
  <text x="352" y="293" text-anchor="middle" font-size="9" font-family="sans-serif" fill="#78909c">Web Server</text>
  <rect x="450" y="252" width="155" height="55" rx="6" fill="#fff3e0" stroke="#f59e0b" stroke-width="1" filter="url(#sh)"/>
  <text x="527" y="275" text-anchor="middle" font-size="11" font-weight="600" font-family="sans-serif" fill="#e65100">🖥️ EC2-C</text>
  <text x="527" y="293" text-anchor="middle" font-size="9" font-family="sans-serif" fill="#78909c">Web Server</text>
  <line x1="177" y1="307" x2="177" y2="330" stroke="#546e7a" stroke-width="1"/>
  <line x1="352" y1="307" x2="352" y2="330" stroke="#546e7a" stroke-width="1"/>
  <line x1="527" y1="307" x2="527" y2="330" stroke="#546e7a" stroke-width="1"/>
  <line x1="177" y1="330" x2="527" y2="330" stroke="#546e7a" stroke-width="1"/>
  <line x1="352" y1="330" x2="352" y2="342" stroke="#546e7a" stroke-width="1.5" marker-end="url(#ar)"/>
  <rect x="302" y="340" width="100" height="28" rx="6" fill="#f3e8ff" stroke="#8b5cf6" stroke-width="1.5" filter="url(#sh)"/>
  <text x="352" y="359" text-anchor="middle" font-size="11" font-weight="700" font-family="sans-serif" fill="#6b21a8">⚖️ ELB</text>
</svg>