<?xml version="1.0" encoding="UTF-8"?>
<svg viewBox="0 0 720 520" xmlns="http://www.w3.org/2000/svg">
  <defs>
    <filter id="sh"><feDropShadow dx="1" dy="2" stdDeviation="2" flood-opacity="0.1"/></filter>
    <marker id="ar" markerWidth="10" markerHeight="7" refX="10" refY="3.5" orient="auto"><polygon points="0 0, 10 3.5, 0 7" fill="#546e7a"/></marker>
  </defs>

  <text x="360" y="22" text-anchor="middle" font-size="14" font-weight="bold" fill="#1e293b">🔄 EC2 인스턴스 수명주기</text>

  <text x="530" y="55" text-anchor="start" font-size="11" fill="#64748b">← 인스턴스 시작</text>

  <rect x="280" y="40" width="160" height="38" rx="8" fill="#e0f2fe" stroke="#0284c7" stroke-width="2" filter="url(#sh)"/>
  <text x="360" y="65" text-anchor="middle" font-size="13" font-weight="bold" fill="#0284c7">⏳ pending</text>

  <line x1="360" y1="78" x2="360" y2="100" stroke="#546e7a" stroke-width="2" marker-end="url(#ar)"/>

  <rect x="280" y="105" width="160" height="38" rx="8" fill="#e8f5e9" stroke="#22c55e" stroke-width="2" filter="url(#sh)"/>
  <text x="360" y="130" text-anchor="middle" font-size="13" font-weight="bold" fill="#22c55e">✅ running</text>

  <line x1="360" y1="143" x2="360" y2="168" stroke="#546e7a" stroke-width="2" marker-end="url(#ar)"/>

  <rect x="280" y="173" width="160" height="38" rx="8" fill="#fff3e0" stroke="#f59e0b" stroke-width="2" filter="url(#sh)"/>
  <text x="360" y="198" text-anchor="middle" font-size="13" font-weight="bold" fill="#f59e0b">⏸️ stopping</text>

  <line x1="360" y1="211" x2="360" y2="236" stroke="#546e7a" stroke-width="2" marker-end="url(#ar)"/>

  <rect x="280" y="241" width="160" height="38" rx="8" fill="#fce4ec" stroke="#ef4444" stroke-width="2" filter="url(#sh)"/>
  <text x="360" y="266" text-anchor="middle" font-size="13" font-weight="bold" fill="#ef4444">🛑 stopped</text>

  <line x1="440" y1="260" x2="530" y2="260" stroke="#546e7a" stroke-width="2"/>
  <line x1="530" y1="260" x2="530" y2="124" stroke="#546e7a" stroke-width="2"/>
  <line x1="530" y1="124" x2="440" y2="124" stroke="#546e7a" stroke-width="2" marker-end="url(#ar)"/>
  <text x="548" y="195" text-anchor="start" font-size="12" font-weight="bold" fill="#22c55e">시작 ▲</text>

  <line x1="360" y1="279" x2="360" y2="305" stroke="#546e7a" stroke-width="2" marker-end="url(#ar)"/>

  <rect x="265" y="310" width="190" height="48" rx="8" fill="#f3e8ff" stroke="#8b5cf6" stroke-width="2" filter="url(#sh)"/>
  <text x="360" y="332" text-anchor="middle" font-size="12" font-weight="bold" fill="#8b5cf6">💤 hibernate (최대절전)</text>
  <text x="360" y="349" text-anchor="middle" font-size="10" fill="#8b5cf6">RAM → EBS 저장</text>

  <text x="480" y="338" text-anchor="start" font-size="11" fill="#64748b">← 최대절전모드</text>

  <line x1="265" y1="328" x2="170" y2="328" stroke="#546e7a" stroke-width="2"/>
  <line x1="170" y1="328" x2="170" y2="124" stroke="#546e7a" stroke-width="2"/>
  <line x1="170" y1="124" x2="280" y2="124" stroke="#546e7a" stroke-width="2" marker-end="url(#ar)"/>
  <text x="148" y="230" text-anchor="end" font-size="12" font-weight="bold" fill="#8b5cf6">▼ 재부팅</text>

  <line x1="360" y1="358" x2="360" y2="385" stroke="#546e7a" stroke-width="2" marker-end="url(#ar)"/>

  <rect x="270" y="390" width="180" height="38" rx="8" fill="#fff3e0" stroke="#f59e0b" stroke-width="2" filter="url(#sh)"/>
  <text x="360" y="415" text-anchor="middle" font-size="12" font-weight="bold" fill="#f59e0b">🔻 shutting-down</text>

  <line x1="360" y1="428" x2="360" y2="455" stroke="#546e7a" stroke-width="2" marker-end="url(#ar)"/>

  <rect x="280" y="460" width="160" height="38" rx="8" fill="#ef4444" stroke="#dc2626" stroke-width="2" filter="url(#sh)"/>
  <text x="360" y="484" text-anchor="middle" font-size="13" font-weight="bold" fill="white">❌ terminated</text>

  <text x="195" y="484" text-anchor="end" font-size="11" fill="#dc2626">영구 삭제 →</text>

</svg>