<svg xmlns="http://www.w3.org/2000/svg" viewBox="0 0 560 400" font-family="'Segoe UI','Noto Sans KR',system-ui,sans-serif">
  <defs>
    <marker id="ah" markerWidth="10" markerHeight="10" refX="8" refY="3" orient="auto" markerUnits="strokeWidth">
      <path d="M0,0 L0,6 L9,3 z" fill="#666"/>
    </marker>
  </defs>  <rect x="60" y="20" width="120" height="45" rx="10" fill="#f0f4f8" stroke="#4183c4" stroke-width="1.5"/>  <text x="120" y="47" font-size="13" fill="#4183c4" font-weight="bold" text-anchor="middle">클라이언트</text>  <line x1="120" y1="65" x2="120" y2="380" stroke="#ddd" stroke-width="1" stroke-dasharray="4,4"/>  <rect x="380" y="20" width="120" height="45" rx="10" fill="#f0f4f8" stroke="#4183c4" stroke-width="1.5"/>  <text x="440" y="47" font-size="13" fill="#4183c4" font-weight="bold" text-anchor="middle">서버</text>  <line x1="440" y1="65" x2="440" y2="380" stroke="#ddd" stroke-width="1" stroke-dasharray="4,4"/>  <line x1="130" y1="100" x2="430" y2="100" stroke="#4183c4" stroke-width="1.5" marker-end="url(#ah)"/>  <text x="280.0" y="92" font-size="9" fill="#4183c4" font-weight="normal" text-anchor="middle">POST /auth/login</text>  <text x="280.0" y="105" font-size="9" fill="#4183c4" font-weight="normal" text-anchor="middle">{username, password}</text>  <line x1="430" y1="160" x2="130" y2="160" stroke="#555" stroke-width="1.5" marker-end="url(#ah)"/>  <text x="280.0" y="152" font-size="9" fill="#555" font-weight="normal" text-anchor="middle">LDAP 인증 →</text>  <text x="280.0" y="165" font-size="9" fill="#555" font-weight="normal" text-anchor="middle">JWT 생성 (서명)</text>  <line x1="430" y1="200" x2="130" y2="200" stroke="#3fb950" stroke-width="1.5" marker-end="url(#ah)"/>  <text x="280.0" y="192" font-size="9" fill="#3fb950" font-weight="normal" text-anchor="middle">JWT 반환</text>  <line x1="130" y1="260" x2="430" y2="260" stroke="#4183c4" stroke-width="1.5" marker-end="url(#ah)"/>  <text x="280.0" y="252" font-size="9" fill="#4183c4" font-weight="normal" text-anchor="middle">API 호출</text>  <text x="280.0" y="265" font-size="9" fill="#4183c4" font-weight="normal" text-anchor="middle">Authorization: Bearer <JWT></text>  <line x1="430" y1="320" x2="130" y2="320" stroke="#3fb950" stroke-width="1.5" marker-end="url(#ah)"/>  <text x="280.0" y="312" font-size="9" fill="#3fb950" font-weight="normal" text-anchor="middle">JWT 검증 (서명, 만료)</text>  <text x="280.0" y="325" font-size="9" fill="#3fb950" font-weight="normal" text-anchor="middle">+ 권한 확인 (PBAC)</text>  <text x="280.0" y="338" font-size="9" fill="#3fb950" font-weight="normal" text-anchor="middle">→ 200 OK</text>
</svg>