<svg xmlns="http://www.w3.org/2000/svg" viewBox="0 0 580 460" font-family="'Segoe UI','Noto Sans KR',system-ui,sans-serif">
  <defs>
    <marker id="ah" markerWidth="10" markerHeight="10" refX="8" refY="3" orient="auto" markerUnits="strokeWidth">
      <path d="M0,0 L0,6 L9,3 z" fill="#666"/>
    </marker>
  </defs>
  <rect x="65" y="15" width="130" height="50" rx="10" fill="#f0f4f8" stroke="#4183c4" stroke-width="1.5"/>
  <text x="130" y="45" font-size="13" fill="#4183c4" font-weight="bold" text-anchor="middle">브라우저</text>
  <line x1="130" y1="65" x2="130" y2="435" stroke="#ddd" stroke-width="1" stroke-dasharray="4,4"/>
  <rect x="385" y="15" width="130" height="50" rx="10" fill="#f0f4f8" stroke="#4183c4" stroke-width="1.5"/>
  <text x="450" y="45" font-size="13" fill="#4183c4" font-weight="bold" text-anchor="middle">웹 서버</text>
  <line x1="450" y1="65" x2="450" y2="435" stroke="#ddd" stroke-width="1" stroke-dasharray="4,4"/>
  <line x1="142" y1="110" x2="438" y2="110" stroke="#555" stroke-width="1.5" marker-end="url(#ah)"/>
  <text x="290.0" y="104" font-size="10" fill="#555" font-weight="normal" text-anchor="middle">GET /dashboard</text>
  <line x1="438" y1="160" x2="142" y2="160" stroke="#f85149" stroke-width="1.5" marker-end="url(#ah)"/>
  <text x="290.0" y="140" font-size="10" fill="#f85149" font-weight="normal" text-anchor="middle">401 Unauthorized</text>
  <text x="290.0" y="154" font-size="10" fill="#f85149" font-weight="normal" text-anchor="middle">WWW-Authenticate: Negotiate</text>
  <text x="130" y="205" font-size="10" fill="#4183c4" font-weight="normal" text-anchor="middle">KDC에 서비스 티켓 요청</text>
  <text x="130" y="220" font-size="10" fill="#4183c4" font-weight="normal" text-anchor="middle">(별도 채널)</text>
  <line x1="142" y1="275" x2="438" y2="275" stroke="#4183c4" stroke-width="1.5" marker-end="url(#ah)"/>
  <text x="290.0" y="255" font-size="10" fill="#4183c4" font-weight="normal" text-anchor="middle">GET /dashboard</text>
  <text x="290.0" y="269" font-size="10" fill="#4183c4" font-weight="normal" text-anchor="middle">Authorization: Negotiate &lt;ticket&gt;</text>
  <line x1="438" y1="340" x2="142" y2="340" stroke="#3fb950" stroke-width="1.5" marker-end="url(#ah)"/>
  <text x="290.0" y="320" font-size="10" fill="#3fb950" font-weight="normal" text-anchor="middle">200 OK + JWT</text>
  <text x="290.0" y="334" font-size="10" fill="#3fb950" font-weight="normal" text-anchor="middle">(티켓 검증 성공, 자동 로그인)</text>
  <line x1="142" y1="400" x2="438" y2="400" stroke="#333" stroke-width="1.5" marker-end="url(#ah)"/>
  <text x="290.0" y="380" font-size="10" fill="#333" font-weight="normal" text-anchor="middle">로그인 완료!</text>
  <text x="290.0" y="394" font-size="10" fill="#333" font-weight="normal" text-anchor="middle">비밀번호 입력 없음</text>

</svg>