<svg xmlns="http://www.w3.org/2000/svg" viewBox="0 0 560 380" font-family="'Segoe UI','Noto Sans KR',system-ui,sans-serif">
  <defs>
    <marker id="ah" markerWidth="10" markerHeight="10" refX="8" refY="3" orient="auto" markerUnits="strokeWidth">
      <path d="M0,0 L0,6 L9,3 z" fill="#666"/>
    </marker>
  </defs>  <rect x="60" y="20" width="120" height="45" rx="10" fill="#f0f4f8" stroke="#4183c4" stroke-width="1.5"/>  <text x="120" y="47" font-size="13" fill="#4183c4" font-weight="bold" text-anchor="middle">브라우저</text>  <line x1="120" y1="65" x2="120" y2="360" stroke="#ddd" stroke-width="1" stroke-dasharray="4,4"/>  <rect x="380" y="20" width="120" height="45" rx="10" fill="#f0f4f8" stroke="#4183c4" stroke-width="1.5"/>  <text x="440" y="47" font-size="13" fill="#4183c4" font-weight="bold" text-anchor="middle">웹 서버</text>  <line x1="440" y1="65" x2="440" y2="360" stroke="#ddd" stroke-width="1" stroke-dasharray="4,4"/>  <line x1="130" y1="100" x2="430" y2="100" stroke="#555" stroke-width="1.5" marker-end="url(#ah)"/>  <text x="280.0" y="92" font-size="9" fill="#555" font-weight="normal" text-anchor="middle">GET /dashboard</text>  <line x1="430" y1="140" x2="130" y2="140" stroke="#f85149" stroke-width="1.5" marker-end="url(#ah)"/>  <text x="280.0" y="132" font-size="9" fill="#f85149" font-weight="normal" text-anchor="middle">401 Unauthorized</text>  <text x="280.0" y="145" font-size="9" fill="#f85149" font-weight="normal" text-anchor="middle">WWW-Authenticate: Negotiate</text>  <line x1="130" y1="200" x2="430" y2="200" stroke="#4183c4" stroke-width="1.5" marker-end="url(#ah)"/>  <text x="280.0" y="192" font-size="9" fill="#4183c4" font-weight="normal" text-anchor="middle">KDC에 서비스 티켓 요청</text>  <line x1="130" y1="250" x2="430" y2="250" stroke="#4183c4" stroke-width="1.5" marker-end="url(#ah)"/>  <text x="280.0" y="242" font-size="9" fill="#4183c4" font-weight="normal" text-anchor="middle">GET /dashboard</text>  <text x="280.0" y="255" font-size="9" fill="#4183c4" font-weight="normal" text-anchor="middle">Authorization: Negotiate <ticket></text>  <line x1="430" y1="310" x2="130" y2="310" stroke="#3fb950" stroke-width="1.5" marker-end="url(#ah)"/>  <text x="280.0" y="302" font-size="9" fill="#3fb950" font-weight="normal" text-anchor="middle">200 OK + JWT</text>  <text x="280.0" y="315" font-size="9" fill="#3fb950" font-weight="normal" text-anchor="middle">(티켓 검증 성공 → 자동 로그인)</text>
</svg>