<?xml version="1.0" encoding="UTF-8"?>
<svg viewBox="0 0 720 470" xmlns="http://www.w3.org/2000/svg" font-family="system-ui,-apple-system,sans-serif">
  <style>text{fill:#1e293b}</style>
  <defs>
    <filter id="sh" x="-4%" y="-4%" width="108%" height="108%">
      <feDropShadow dx="1" dy="2" stdDeviation="2" flood-opacity="0.12"/>
    </filter>
    <marker id="ar" markerWidth="10" markerHeight="7" refX="9" refY="3.5" orient="auto">
      <polygon points="0 0, 10 3.5, 0 7" fill="#546e7a"/>
    </marker>
  </defs>
  <rect x="40" y="10" width="640" height="260" rx="12" fill="#fce4ec" stroke="#ef4444" stroke-width="2" filter="url(#sh)"/>
  <text x="360" y="38" text-anchor="middle" font-size="13" font-weight="700">🔐 서버 측 암호화 (SSE)</text>
  <text x="360" y="56" text-anchor="middle" font-size="10">AWS가 암호화/복호화 수행</text>

  <rect x="70" y="70" width="180" height="185" rx="10" fill="#e8f5e9" stroke="#22c55e" stroke-width="1.5" filter="url(#sh)"/>
  <text x="160" y="98" text-anchor="middle" font-size="12" font-weight="700">🔒 SSE-S3</text>
  <text x="160" y="118" text-anchor="middle" font-size="10">Amazon 관리</text>
  <text x="160" y="134" text-anchor="middle" font-size="10">암호화 키</text>
  <line x1="90" y1="146" x2="230" y2="146" stroke="#94a3b8" stroke-width="0.5"/>
  <text x="160" y="168" text-anchor="middle" font-size="11" font-weight="600">⭐ 기본값</text>
  <text x="160" y="188" text-anchor="middle" font-size="10">(AES-256)</text>
  <text x="160" y="210" text-anchor="middle" font-size="9" fill="#64748b">추가 비용 없음</text>
  <text x="160" y="226" text-anchor="middle" font-size="9" fill="#64748b">키 교체 자동 관리</text>

  <rect x="270" y="70" width="180" height="185" rx="10" fill="#e0f2fe" stroke="#0284c7" stroke-width="1.5" filter="url(#sh)"/>
  <text x="360" y="98" text-anchor="middle" font-size="12" font-weight="700">🔑 SSE-KMS</text>
  <text x="360" y="118" text-anchor="middle" font-size="10">KMS 키</text>
  <text x="360" y="134" text-anchor="middle" font-size="10">사용</text>
  <line x1="290" y1="146" x2="430" y2="146" stroke="#94a3b8" stroke-width="0.5"/>
  <text x="360" y="168" text-anchor="middle" font-size="11" font-weight="600">📋 감사 추적</text>
  <text x="360" y="188" text-anchor="middle" font-size="10">가능</text>
  <text x="360" y="210" text-anchor="middle" font-size="9" fill="#64748b">CloudTrail 로그</text>
  <text x="360" y="226" text-anchor="middle" font-size="9" fill="#64748b">KMS API 요금 발생</text>

  <rect x="470" y="70" width="180" height="185" rx="10" fill="#f3e8ff" stroke="#8b5cf6" stroke-width="1.5" filter="url(#sh)"/>
  <text x="560" y="98" text-anchor="middle" font-size="12" font-weight="700">🗝️ SSE-C</text>
  <text x="560" y="118" text-anchor="middle" font-size="10">고객 제공 키</text>
  <text x="560" y="134" text-anchor="middle" font-size="10">사용</text>
  <line x1="490" y1="146" x2="630" y2="146" stroke="#94a3b8" stroke-width="0.5"/>
  <text x="560" y="168" text-anchor="middle" font-size="11" font-weight="600">👤 키 관리</text>
  <text x="560" y="188" text-anchor="middle" font-size="10">고객 책임</text>
  <text x="560" y="210" text-anchor="middle" font-size="9" fill="#64748b">AWS는 키 미저장</text>
  <text x="560" y="226" text-anchor="middle" font-size="9" fill="#64748b">키 분실 시 복구 불가</text>

  <rect x="40" y="285" width="640" height="175" rx="12" fill="#fff3e0" stroke="#f59e0b" stroke-width="2" filter="url(#sh)"/>
  <text x="360" y="313" text-anchor="middle" font-size="13" font-weight="700">🖥️ 클라이언트 측 암호화</text>
  <text x="360" y="331" text-anchor="middle" font-size="10">클라이언트가 암호화 후 S3에 업로드</text>

  <rect x="80" y="350" width="150" height="40" rx="8" fill="#e0f2fe" stroke="#0284c7" stroke-width="1.5"/>
  <text x="155" y="375" text-anchor="middle" font-size="11" font-weight="600">📱 애플리케이션</text>
  <line x1="230" y1="370" x2="290" y2="370" stroke="#546e7a" stroke-width="1.5" marker-end="url(#ar)"/>
  <text x="260" y="362" font-size="9" fill="#546e7a">암호화</text>
  <rect x="294" y="350" width="130" height="40" rx="8" fill="#fce4ec" stroke="#ef4444" stroke-width="1.5"/>
  <text x="359" y="375" text-anchor="middle" font-size="11" font-weight="600">🔐 암호화</text>
  <line x1="424" y1="370" x2="484" y2="370" stroke="#546e7a" stroke-width="1.5" marker-end="url(#ar)"/>
  <rect x="488" y="350" width="160" height="40" rx="8" fill="#e8f5e9" stroke="#22c55e" stroke-width="1.5"/>
  <text x="568" y="370" text-anchor="middle" font-size="11" font-weight="600">📦 S3</text>
  <text x="568" y="384" text-anchor="middle" font-size="9">(암호화된 데이터만)</text>

  <text x="360" y="420" text-anchor="middle" font-size="10" fill="#64748b">AWS KMS 또는 고객 관리 키 사용 | AWS Encryption SDK / S3 Encryption Client</text>
</svg>