<?xml version="1.0" encoding="UTF-8"?>
<svg viewBox="0 0 740 440" xmlns="http://www.w3.org/2000/svg">
  <defs>
    <filter id="sh" x="-2%" y="-2%" width="104%" height="104%"><feDropShadow dx="1" dy="1" stdDeviation="2" flood-opacity="0.1"/></filter>
    <marker id="ar" markerWidth="10" markerHeight="7" refX="10" refY="3.5" orient="auto"><polygon points="0 0, 10 3.5, 0 7" fill="#546e7a"/></marker>
  </defs>
  <rect width="740" height="440" rx="8" fill="#f8fafb"/>
  <text x="370" y="22" text-anchor="middle" font-size="14" font-weight="bold" font-family="sans-serif" fill="#37474f">S3 Data Platform × OpenSharing: 시나리오별 가치</text>
  <rect x="30" y="36" width="680" height="72" rx="8" fill="#f3e8ff" stroke="#8b5cf6" stroke-width="1.5" filter="url(#sh)"/>
  <text x="50" y="56" font-size="12" font-weight="bold" font-family="sans-serif" fill="#4c1d95">📊 시나리오 1: 데이터 분석가</text>
  <rect x="50" y="66" width="115" height="28" rx="4" fill="#fff3e0" stroke="#f59e0b" stroke-width="1"/>
  <text x="107" y="85" text-anchor="middle" font-size="10" font-family="sans-serif" fill="#92400e">S3 Tables</text>
  <line x1="165" y1="80" x2="190" y2="80" stroke="#546e7a" stroke-width="1.2" marker-end="url(#ar)"/>
  <rect x="200" y="66" width="115" height="28" rx="4" fill="#dbeafe" stroke="#3b82f6" stroke-width="1"/>
  <text x="257" y="85" text-anchor="middle" font-size="10" font-family="sans-serif" fill="#1e40af">Athena SQL</text>
  <line x1="315" y1="80" x2="340" y2="80" stroke="#546e7a" stroke-width="1.2" marker-end="url(#ar)"/>
  <rect x="350" y="66" width="120" height="28" rx="4" fill="#dbeafe" stroke="#3b82f6" stroke-width="1"/>
  <text x="410" y="85" text-anchor="middle" font-size="10" font-family="sans-serif" fill="#1e40af">QuickSight</text>
  <text x="490" y="85" font-size="10" font-family="sans-serif" fill="#6d28d9">→ SQL로 즉시 분석</text>
  <rect x="30" y="116" width="680" height="72" rx="8" fill="#e8f5e9" stroke="#22c55e" stroke-width="1.5" filter="url(#sh)"/>
  <text x="50" y="136" font-size="12" font-weight="bold" font-family="sans-serif" fill="#14532d">🤖 시나리오 2: ML 엔지니어</text>
  <rect x="50" y="146" width="115" height="28" rx="4" fill="#e8f5e9" stroke="#22c55e" stroke-width="1"/>
  <text x="107" y="165" text-anchor="middle" font-size="10" font-family="sans-serif" fill="#166534">S3 Files</text>
  <line x1="165" y1="160" x2="190" y2="160" stroke="#546e7a" stroke-width="1.2" marker-end="url(#ar)"/>
  <rect x="200" y="146" width="115" height="28" rx="4" fill="#f8fafc" stroke="#e2e8f0" stroke-width="1"/>
  <text x="257" y="165" text-anchor="middle" font-size="10" font-family="sans-serif" fill="#475569">마운트</text>
  <line x1="315" y1="160" x2="340" y2="160" stroke="#546e7a" stroke-width="1.2" marker-end="url(#ar)"/>
  <rect x="350" y="146" width="120" height="28" rx="4" fill="#fce4ec" stroke="#ef4444" stroke-width="1"/>
  <text x="410" y="165" text-anchor="middle" font-size="10" font-family="sans-serif" fill="#991b1b">SageMaker 학습</text>
  <text x="490" y="165" font-size="10" font-family="sans-serif" fill="#166534">→ 다운로드 없이 학습</text>
  <rect x="30" y="196" width="680" height="72" rx="8" fill="#fce4ec" stroke="#ef4444" stroke-width="1.5" filter="url(#sh)"/>
  <text x="50" y="216" font-size="12" font-weight="bold" font-family="sans-serif" fill="#991b1b">🧠 시나리오 3: AI 애플리케이션</text>
  <rect x="50" y="226" width="115" height="28" rx="4" fill="#fce4ec" stroke="#ef4444" stroke-width="1"/>
  <text x="107" y="245" text-anchor="middle" font-size="10" font-family="sans-serif" fill="#991b1b">S3 Vectors</text>
  <line x1="165" y1="240" x2="190" y2="240" stroke="#546e7a" stroke-width="1.2" marker-end="url(#ar)"/>
  <rect x="200" y="226" width="115" height="28" rx="4" fill="#dbeafe" stroke="#3b82f6" stroke-width="1"/>
  <text x="257" y="245" text-anchor="middle" font-size="10" font-family="sans-serif" fill="#1e40af">Bedrock KB</text>
  <line x1="315" y1="240" x2="340" y2="240" stroke="#546e7a" stroke-width="1.2" marker-end="url(#ar)"/>
  <rect x="350" y="226" width="120" height="28" rx="4" fill="#f3e8ff" stroke="#8b5cf6" stroke-width="1"/>
  <text x="410" y="245" text-anchor="middle" font-size="10" font-family="sans-serif" fill="#4c1d95">RAG 챗봇</text>
  <text x="490" y="245" font-size="10" font-family="sans-serif" fill="#b91c1c">→ 지능형 검색</text>
  <rect x="30" y="276" width="680" height="72" rx="8" fill="#dbeafe" stroke="#3b82f6" stroke-width="1.5" filter="url(#sh)"/>
  <text x="50" y="296" font-size="12" font-weight="bold" font-family="sans-serif" fill="#1e3a5f">🔧 시나리오 4: 데이터 엔지니어</text>
  <rect x="50" y="306" width="115" height="28" rx="4" fill="#dbeafe" stroke="#3b82f6" stroke-width="1"/>
  <text x="107" y="325" text-anchor="middle" font-size="10" font-family="sans-serif" fill="#1e40af">S3 Metadata</text>
  <line x1="165" y1="320" x2="190" y2="320" stroke="#546e7a" stroke-width="1.2" marker-end="url(#ar)"/>
  <rect x="200" y="306" width="115" height="28" rx="4" fill="#f8fafc" stroke="#e2e8f0" stroke-width="1"/>
  <text x="257" y="325" text-anchor="middle" font-size="10" font-family="sans-serif" fill="#475569">데이터 검색</text>
  <line x1="315" y1="320" x2="340" y2="320" stroke="#546e7a" stroke-width="1.2" marker-end="url(#ar)"/>
  <rect x="350" y="306" width="120" height="28" rx="4" fill="#fff3e0" stroke="#f59e0b" stroke-width="1"/>
  <text x="410" y="325" text-anchor="middle" font-size="10" font-family="sans-serif" fill="#92400e">파이프라인 자동화</text>
  <text x="490" y="325" font-size="10" font-family="sans-serif" fill="#1e40af">→ 데이터 카탈로그 구축</text>
  <rect x="30" y="356" width="680" height="72" rx="8" fill="#fff3e0" stroke="#f59e0b" stroke-width="1.5" filter="url(#sh)"/>
  <text x="50" y="376" font-size="12" font-weight="bold" font-family="sans-serif" fill="#92400e">🌐 시나리오 5: 글로벌 팀</text>
  <rect x="50" y="386" width="140" height="28" rx="4" fill="#e8f5e9" stroke="#22c55e" stroke-width="1"/>
  <text x="120" y="405" text-anchor="middle" font-size="10" font-family="sans-serif" fill="#166534">Multi-Region AP</text>
  <line x1="190" y1="400" x2="215" y2="400" stroke="#546e7a" stroke-width="1.2" marker-end="url(#ar)"/>
  <rect x="225" y="386" width="115" height="28" rx="4" fill="#f3e8ff" stroke="#8b5cf6" stroke-width="1"/>
  <text x="282" y="405" text-anchor="middle" font-size="10" font-family="sans-serif" fill="#4c1d95">S3 Tables</text>
  <line x1="340" y1="400" x2="365" y2="400" stroke="#546e7a" stroke-width="1.2" marker-end="url(#ar)"/>
  <rect x="375" y="386" width="145" height="28" rx="4" fill="#f8fafc" stroke="#e2e8f0" stroke-width="1"/>
  <text x="447" y="405" text-anchor="middle" font-size="10" font-family="sans-serif" fill="#475569">지역별 저지연 분석</text>
  <text x="540" y="405" font-size="10" font-family="sans-serif" fill="#92400e">→ 글로벌 복제 + 로컬 쿼리</text>
</svg>