<svg xmlns="http://www.w3.org/2000/svg" viewBox="0 0 820 345" font-family="'Segoe UI','Noto Sans KR',system-ui,sans-serif">
  <defs>
<marker id="ah-666" markerWidth="10" markerHeight="10" refX="8" refY="3" orient="auto" markerUnits="strokeWidth"><path d="M0,0 L0,6 L9,3 z" fill="#666666"/></marker>
<marker id="ah-2563eb" markerWidth="10" markerHeight="10" refX="8" refY="3" orient="auto" markerUnits="strokeWidth"><path d="M0,0 L0,6 L9,3 z" fill="#2563eb"/></marker>
<marker id="ah-16a34a" markerWidth="10" markerHeight="10" refX="8" refY="3" orient="auto" markerUnits="strokeWidth"><path d="M0,0 L0,6 L9,3 z" fill="#16a34a"/></marker>
  </defs>
<text x="410" y="28" font-size="15" font-weight="700" fill="#2c3e50" text-anchor="middle">Registry of Open Data: 데이터 흐름</text>
<rect x="80" y="50" width="160" height="50" rx="10" fill="#dbeafe" stroke="#2563eb" stroke-width="2"/>
<text x="160" y="75" font-size="11" font-weight="700" fill="#2563eb" text-anchor="middle">NASA Landsat</text>
<rect x="330" y="50" width="160" height="50" rx="10" fill="#dbeafe" stroke="#2563eb" stroke-width="2"/>
<text x="410" y="75" font-size="11" font-weight="700" fill="#2563eb" text-anchor="middle">NOAA Weather</text>
<rect x="580" y="50" width="160" height="50" rx="10" fill="#dbeafe" stroke="#2563eb" stroke-width="2"/>
<text x="660" y="75" font-size="11" font-weight="700" fill="#2563eb" text-anchor="middle">Common Crawl</text>
<line x1="160" y1="100" x2="160" y2="140" stroke="#666666" stroke-width="1.5" marker-end="url(#ah-666)"/>
<line x1="410" y1="100" x2="410" y2="140" stroke="#666666" stroke-width="1.5" marker-end="url(#ah-666)"/>
<line x1="660" y1="100" x2="660" y2="140" stroke="#666666" stroke-width="1.5" marker-end="url(#ah-666)"/>
<rect x="80" y="145" width="660" height="70" rx="10" fill="#dcfce7" stroke="#16a34a" stroke-width="2"/>
<text x="410" y="175" font-size="13" font-weight="700" fill="#16a34a" text-anchor="middle">Amazon S3 (공개 버킷)</text>
<text x="410" y="191" font-size="10" fill="#8b949e" text-anchor="middle">s3://sentinel-s2-l1c/  ·  s3://landsat-pds/  ·  s3://commoncrawl/</text>
<line x1="160" y1="215" x2="160" y2="255" stroke="#666666" stroke-width="1.5" marker-end="url(#ah-666)"/>
<line x1="410" y1="215" x2="410" y2="255" stroke="#666666" stroke-width="1.5" marker-end="url(#ah-666)"/>
<line x1="660" y1="215" x2="660" y2="255" stroke="#666666" stroke-width="1.5" marker-end="url(#ah-666)"/>
<rect x="80" y="260" width="160" height="45" rx="10" fill="#f0f4f8" stroke="#666666666" stroke-width="2"/>
<text x="160" y="282" font-size="11" font-weight="700" fill="#666666666" text-anchor="middle">연구자</text>
<rect x="330" y="260" width="160" height="45" rx="10" fill="#f0f4f8" stroke="#666666666" stroke-width="2"/>
<text x="410" y="282" font-size="11" font-weight="700" fill="#666666666" text-anchor="middle">기업</text>
<rect x="580" y="260" width="160" height="45" rx="10" fill="#f0f4f8" stroke="#666666666" stroke-width="2"/>
<text x="660" y="282" font-size="11" font-weight="700" fill="#666666666" text-anchor="middle">개발자</text>
<text x="410" y="330" font-size="10" fill="#8b949e" text-anchor="middle" font-style="italic">인증 불필요 (--no-sign-request), 400+ 데이터셋, 무료 접근</text>
</svg>