<svg xmlns="http://www.w3.org/2000/svg" viewBox="0 0 820 235" font-family="'Segoe UI','Noto Sans KR',system-ui,sans-serif">
  <defs>
<marker id="ah-16a34a" markerWidth="10" markerHeight="10" refX="8" refY="3" orient="auto" markerUnits="strokeWidth"><path d="M0,0 L0,6 L9,3 z" fill="#16a34a"/></marker>
<marker id="ah-dc2626" markerWidth="10" markerHeight="10" refX="8" refY="3" orient="auto" markerUnits="strokeWidth"><path d="M0,0 L0,6 L9,3 z" fill="#dc2626"/></marker>
  </defs>
<text x="410" y="28" font-size="15" font-weight="700" fill="#2c3e50" text-anchor="middle">VPC 제한 Access Point</text>
<rect x="30" y="55" width="180" height="50" rx="10" fill="#dcfce7" stroke="#16a34a" stroke-width="2"/>
<text x="120" y="75" font-size="12" font-weight="700" fill="#16a34a" text-anchor="middle">사내 VPC</text>
<text x="120" y="91" font-size="9" fill="#8b949e" text-anchor="middle">vpc-0abc...</text>
<line x1="210" y1="80" x2="320" y2="80" stroke="#16a34a" stroke-width="1.5" marker-end="url(#ah-16a34a)"/>
<text x="265" y="73" font-size="10" fill="#16a34a" text-anchor="middle">✅</text>
<rect x="320" y="55" width="180" height="50" rx="10" fill="#dbeafe" stroke="#2563eb" stroke-width="2"/>
<text x="410" y="75" font-size="12" font-weight="700" fill="#2563eb" text-anchor="middle">Access Point</text>
<text x="410" y="91" font-size="9" fill="#8b949e" text-anchor="middle">"internal-ap"</text>
<line x1="500" y1="80" x2="610" y2="80" stroke="#16a34a" stroke-width="1.5" marker-end="url(#ah-16a34a)"/>
<rect x="610" y="55" width="160" height="50" rx="10" fill="#dcfce7" stroke="#16a34a" stroke-width="2"/>
<text x="690" y="80" font-size="12" font-weight="700" fill="#16a34a" text-anchor="middle">S3 버킷</text>
<text x="700" y="125" font-size="11" fill="#16a34a" font-weight="600" text-anchor="middle">접근 허용</text>
<line x1="20" y1="145" x2="800" y2="145" stroke="#eee" stroke-width="2" stroke-dasharray="6,4"/>
<rect x="30" y="165" width="180" height="50" rx="10" fill="#fef2f2" stroke="#dc2626" stroke-width="2"/>
<text x="120" y="185" font-size="12" font-weight="700" fill="#dc2626" text-anchor="middle">외부 인터넷</text>
<text x="120" y="201" font-size="9" fill="#8b949e" text-anchor="middle">(다른 VPC)</text>
<line x1="210" y1="190" x2="320" y2="190" stroke="#dc2626" stroke-width="1.5" marker-end="url(#ah-dc2626)"/>
<text x="265" y="183" font-size="10" fill="#dc2626" text-anchor="middle">❌</text>
<rect x="320" y="165" width="180" height="50" rx="10" fill="#dbeafe" stroke="#2563eb" stroke-width="2"/>
<text x="410" y="185" font-size="12" font-weight="700" fill="#2563eb" text-anchor="middle">Access Point</text>
<text x="410" y="201" font-size="9" fill="#8b949e" text-anchor="middle">"internal-ap"</text>
<text x="600" y="195" font-size="11" fill="#dc2626" font-weight="600">접근 거부!</text>
</svg>