<svg xmlns="http://www.w3.org/2000/svg" viewBox="0 0 820 335" font-family="'Segoe UI','Noto Sans KR',system-ui,sans-serif">
  <defs>
<marker id="ah-666" markerWidth="10" markerHeight="10" refX="8" refY="3" orient="auto" markerUnits="strokeWidth"><path d="M0,0 L0,6 L9,3 z" fill="#666"/></marker>
<marker id="ah-2563eb" markerWidth="10" markerHeight="10" refX="8" refY="3" orient="auto" markerUnits="strokeWidth"><path d="M0,0 L0,6 L9,3 z" fill="#2563eb"/></marker>
<marker id="ah-16a34a" markerWidth="10" markerHeight="10" refX="8" refY="3" orient="auto" markerUnits="strokeWidth"><path d="M0,0 L0,6 L9,3 z" fill="#16a34a"/></marker>
  </defs>
<text x="410" y="28" font-size="15" font-weight="700" fill="#2c3e50" text-anchor="middle">S3 Access Points 아키텍처</text>
<rect x="180" y="50" width="460" height="55" rx="10" fill="#dcfce7" stroke="#16a34a" stroke-width="2"/>
<text x="410" y="72" font-size="13" font-weight="700" fill="#16a34a" text-anchor="middle">S3 버킷: shared-data</text>
<text x="410" y="88" font-size="10" fill="#8b949e" text-anchor="middle">/team-a/  ·  /team-b/  ·  /public/</text>
<line x1="260" y1="105" x2="260" y2="145" stroke="#666" stroke-width="1.5" marker-end="url(#ah-666)"/>
<text x="270" y="128" font-size="9" fill="#8b949e">/team-a/</text>
<line x1="410" y1="105" x2="410" y2="145" stroke="#666" stroke-width="1.5" marker-end="url(#ah-666)"/>
<text x="420" y="128" font-size="9" fill="#8b949e">/team-b/</text>
<line x1="560" y1="105" x2="560" y2="145" stroke="#666" stroke-width="1.5" marker-end="url(#ah-666)"/>
<text x="570" y="128" font-size="9" fill="#8b949e">/public/</text>
<rect x="185" y="150" width="150" height="60" rx="10" fill="#dbeafe" stroke="#2563eb" stroke-width="2"/>
<text x="260" y="175" font-size="11" font-weight="700" fill="#2563eb" text-anchor="middle">team-a-ap</text>
<text x="260" y="191" font-size="9" fill="#8b949e" text-anchor="middle">권한: 읽기/쓰기
VPC: vpc-a</text>
<rect x="335" y="150" width="150" height="60" rx="10" fill="#dbeafe" stroke="#2563eb" stroke-width="2"/>
<text x="410" y="175" font-size="11" font-weight="700" fill="#2563eb" text-anchor="middle">team-b-ap</text>
<text x="410" y="191" font-size="9" fill="#8b949e" text-anchor="middle">권한: 읽기만
VPC: vpc-b</text>
<rect x="485" y="150" width="150" height="60" rx="10" fill="#f0f4f8" stroke="#666666" stroke-width="2"/>
<text x="560" y="175" font-size="11" font-weight="700" fill="#666666" text-anchor="middle">public-ap</text>
<text x="560" y="191" font-size="9" fill="#8b949e" text-anchor="middle">권한: 공개 읽기
VPC: 제한없음</text>
<line x1="260" y1="210" x2="260" y2="245" stroke="#666" stroke-width="1.5" marker-end="url(#ah-666)"/>
<line x1="410" y1="210" x2="410" y2="245" stroke="#666" stroke-width="1.5" marker-end="url(#ah-666)"/>
<line x1="560" y1="210" x2="560" y2="245" stroke="#666" stroke-width="1.5" marker-end="url(#ah-666)"/>
<rect x="185" y="250" width="150" height="50" rx="10" fill="#f0f4f8" stroke="#666666" stroke-width="2"/>
<text x="260" y="275" font-size="10" font-weight="700" fill="#666666" text-anchor="middle">Team A 애플리케이션</text>
<rect x="335" y="250" width="150" height="50" rx="10" fill="#f0f4f8" stroke="#666666" stroke-width="2"/>
<text x="410" y="275" font-size="10" font-weight="700" fill="#666666" text-anchor="middle">Team B 데이터 분석</text>
<rect x="485" y="250" width="150" height="50" rx="10" fill="#f0f4f8" stroke="#666666" stroke-width="2"/>
<text x="560" y="275" font-size="10" font-weight="700" fill="#666666" text-anchor="middle">전 세계 사용자</text>
<text x="410" y="320" font-size="10" fill="#8b949e" text-anchor="middle" font-style="italic">하나의 버킷, 세 개의 접근 지점, 각각 다른 정책</text>
</svg>