<svg xmlns="http://www.w3.org/2000/svg" viewBox="0 0 820 210" font-family="'Segoe UI','Noto Sans KR',system-ui,sans-serif">
  <defs>
<marker id="ah-dc2626" markerWidth="10" markerHeight="10" refX="8" refY="3" orient="auto" markerUnits="strokeWidth"><path d="M0,0 L0,6 L9,3 z" fill="#dc2626"/></marker>
<marker id="ah-16a34a" markerWidth="10" markerHeight="10" refX="8" refY="3" orient="auto" markerUnits="strokeWidth"><path d="M0,0 L0,6 L9,3 z" fill="#16a34a"/></marker>
  </defs>
<text x="410" y="28" font-size="15" font-weight="700" fill="#2c3e50" text-anchor="middle">전통적 복사 vs Data Exchange 직접 접근</text>
<rect x="30" y="55" width="150" height="50" rx="10" fill="#fef2f2" stroke="#dc2626" stroke-width="2"/>
<text x="105" y="80" font-size="12" font-weight="700" fill="#dc2626" text-anchor="middle">제공자 S3</text>
<line x1="180" y1="80" x2="290" y2="80" stroke="#dc2626" stroke-width="1.5" marker-end="url(#ah-dc2626)"/>
<text x="235" y="73" font-size="10" fill="#dc2626" text-anchor="middle">복사</text>
<rect x="290" y="55" width="150" height="50" rx="10" fill="#fef2f2" stroke="#dc2626" stroke-width="2"/>
<text x="365" y="80" font-size="12" font-weight="700" fill="#dc2626" text-anchor="middle">구독자 S3</text>
<line x1="440" y1="80" x2="550" y2="80" stroke="#dc2626" stroke-width="1.5" marker-end="url(#ah-dc2626)"/>
<text x="495" y="73" font-size="10" fill="#dc2626" text-anchor="middle">분석</text>
<rect x="550" y="55" width="180" height="50" rx="10" fill="#fef2f2" stroke="#dc2626" stroke-width="2"/>
<text x="640" y="80" font-size="12" font-weight="700" fill="#dc2626" text-anchor="middle">분석 환경</text>
<text x="745" y="83" font-size="11" fill="#dc2626" font-weight="600">❌ 중복·비용·동기화</text>
<rect x="30" y="140" width="150" height="50" rx="10" fill="#dcfce7" stroke="#16a34a" stroke-width="2"/>
<text x="105" y="165" font-size="12" font-weight="700" fill="#16a34a" text-anchor="middle">제공자 S3</text>
<line x1="180" y1="165" x2="550" y2="165" stroke="#16a34a" stroke-width="1.5" marker-end="url(#ah-16a34a)"/>
<text x="365" y="158" font-size="10" fill="#16a34a" text-anchor="middle">직접 접근 (In-place)</text>
<rect x="550" y="140" width="180" height="50" rx="10" fill="#dcfce7" stroke="#16a34a" stroke-width="2"/>
<text x="640" y="165" font-size="12" font-weight="700" fill="#16a34a" text-anchor="middle">구독자 분석 환경</text>
<text x="745" y="168" font-size="11" fill="#16a34a" font-weight="600">✅ 복사 없음·최신 데이터</text>
</svg>