<?xml version="1.0" encoding="UTF-8"?>
<svg viewBox="0 0 720 320" xmlns="http://www.w3.org/2000/svg" font-family="sans-serif">
<defs>
            <filter id="sh4"><feDropShadow dx="1" dy="2" stdDeviation="2" flood-opacity="0.1"/></filter>
            <marker id="ar4" viewBox="0 0 10 10" refX="9" refY="5" markerWidth="7" markerHeight="7" orient="auto"><path d="M0 0L10 5L0 10z" fill="#546e7a"/></marker>
</defs>
<rect x="30" y="15" width="220" height="50" rx="8" fill="#fff3e0" stroke="#f59e0b" stroke-width="2" filter="url(#sh4)"/>
<text x="140" y="35" text-anchor="middle" font-size="12" font-weight="bold" fill="#b45309">📦 개발 계정 (1111)</text>
<text x="140" y="52" text-anchor="middle" font-size="10" fill="#b45309">DevDeploymentRole</text>
<line x1="140" y1="65" x2="140" y2="100" stroke="#546e7a" stroke-width="2" marker-end="url(#ar4)"/>
<text x="190" y="85" text-anchor="middle" font-size="10" fill="#546e7a">AssumeRole (신뢰 관계)</text>
<rect x="30" y="100" width="220" height="50" rx="8" fill="#fff3e0" stroke="#f59e0b" stroke-width="2" filter="url(#sh4)"/>
<text x="140" y="120" text-anchor="middle" font-size="12" font-weight="bold" fill="#b45309">📦 공유 서비스 계정 (2222)</text>
<text x="140" y="137" text-anchor="middle" font-size="10" fill="#b45309">SharedServicesRole</text>
<line x1="140" y1="150" x2="140" y2="185" stroke="#546e7a" stroke-width="2" marker-end="url(#ar4)"/>
<text x="190" y="170" text-anchor="middle" font-size="10" fill="#546e7a">AssumeRole (신뢰 관계)</text>
<rect x="30" y="185" width="220" height="50" rx="8" fill="#fff3e0" stroke="#f59e0b" stroke-width="2" filter="url(#sh4)"/>
<text x="140" y="205" text-anchor="middle" font-size="12" font-weight="bold" fill="#b45309">📦 프로덕션 계정 (3333)</text>
<text x="140" y="222" text-anchor="middle" font-size="10" fill="#b45309">ProdDeploymentRole (MFA 필수)</text>
<rect x="320" y="40" width="150" height="40" rx="8" fill="#fce4ec" stroke="#ef4444" stroke-width="1.5" filter="url(#sh4)"/>
<text x="395" y="65" text-anchor="middle" font-size="11" fill="#dc2626">🔐 IAM 역할</text>
<line x1="250" y1="40" x2="320" y2="60" stroke="#546e7a" stroke-width="1.5"/>
<line x1="250" y1="125" x2="320" y2="60" stroke="#546e7a" stroke-width="1.5"/>
<line x1="250" y1="210" x2="320" y2="60" stroke="#546e7a" stroke-width="1.5"/>
<rect x="520" y="25" width="180" height="35" rx="8" fill="#e8f5e9" stroke="#22c55e" stroke-width="1.5" filter="url(#sh4)"/>
<text x="610" y="48" text-anchor="middle" font-size="11" fill="#16a34a">S3, DynamoDB…</text>
<line x1="470" y1="60" x2="520" y2="48" stroke="#546e7a" stroke-width="1.5" marker-end="url(#ar4)"/>
<rect x="520" y="80" width="180" height="35" rx="8" fill="#e8f5e9" stroke="#22c55e" stroke-width="1.5" filter="url(#sh4)"/>
<text x="610" y="103" text-anchor="middle" font-size="11" fill="#16a34a">RDS, Lambda…</text>
<line x1="470" y1="60" x2="520" y2="98" stroke="#546e7a" stroke-width="1.5" marker-end="url(#ar4)"/>
<rect x="520" y="135" width="180" height="35" rx="8" fill="#e8f5e9" stroke="#22c55e" stroke-width="1.5" filter="url(#sh4)"/>
<text x="610" y="158" text-anchor="middle" font-size="11" fill="#16a34a">EC2, ECS…</text>
<line x1="470" y1="60" x2="520" y2="152" stroke="#546e7a" stroke-width="1.5" marker-end="url(#ar4)"/>
</svg>