<?xml version="1.0" encoding="UTF-8"?>
<svg viewBox="0 0 720 310" xmlns="http://www.w3.org/2000/svg" font-family="sans-serif">
<defs>
  <filter id="sh3"><feDropShadow dx="1" dy="2" stdDeviation="2" flood-opacity="0.1"/></filter>
  <marker id="ar3" viewBox="0 0 10 10" refX="9" refY="5" markerWidth="7" markerHeight="7" orient="auto"><path d="M0 0L10 5L0 10z" fill="#546e7a"/></marker>
</defs>
<rect x="30" y="20" width="190" height="44" rx="8" fill="#fce4ec" stroke="#ef4444" stroke-width="2" filter="url(#sh3)"/>
<text x="125" y="40" text-anchor="middle" font-size="12" font-weight="bold" fill="#dc2626">🛡️ 조직 SCP</text>
<text x="125" y="56" text-anchor="middle" font-size="10" fill="#dc2626">(최대 권한 경계)</text>
<rect x="265" y="20" width="190" height="44" rx="8" fill="#fce4ec" stroke="#ef4444" stroke-width="2" filter="url(#sh3)"/>
<text x="360" y="40" text-anchor="middle" font-size="12" font-weight="bold" fill="#dc2626">🛡️ Permission Boundary</text>
<text x="360" y="56" text-anchor="middle" font-size="10" fill="#dc2626">(사용자/역할 경계)</text>
<rect x="500" y="20" width="190" height="44" rx="8" fill="#fce4ec" stroke="#ef4444" stroke-width="2" filter="url(#sh3)"/>
<text x="595" y="40" text-anchor="middle" font-size="12" font-weight="bold" fill="#dc2626">🔐 IAM 정책</text>
<text x="595" y="56" text-anchor="middle" font-size="10" fill="#dc2626">(권한 부여)</text>
<text x="360" y="95" text-anchor="middle" font-size="14" fill="#546e7a">∩</text>
<text x="360" y="112" text-anchor="middle" font-size="14" fill="#546e7a">∩</text>
<line x1="125" y1="64" x2="125" y2="90" stroke="#546e7a" stroke-width="2" stroke-dasharray="4,3"/>
<line x1="360" y1="64" x2="360" y2="90" stroke="#546e7a" stroke-width="2" stroke-dasharray="4,3"/>
<line x1="595" y1="64" x2="595" y2="90" stroke="#546e7a" stroke-width="2" stroke-dasharray="4,3"/>
<rect x="200" y="120" width="320" height="50" rx="10" fill="#e8f5e9" stroke="#22c55e" stroke-width="2.5" filter="url(#sh3)"/>
<text x="360" y="142" text-anchor="middle" font-size="14" font-weight="bold" fill="#16a34a">✅ 최종 유효 권한</text>
<text x="360" y="160" text-anchor="middle" font-size="11" fill="#16a34a">= SCP ∩ Boundary ∩ IAM 정책</text>
<line x1="240" y1="195" x2="240" y2="170" stroke="#ef4444" stroke-width="2" marker-end="url(#ar3)"/>
<rect x="140" y="195" width="200" height="38" rx="8" fill="#fce4ec" stroke="#ef4444" stroke-width="1.5" filter="url(#sh3)"/>
<text x="240" y="210" text-anchor="middle" font-size="11" font-weight="bold" fill="#dc2626">🚫 명시적 Deny</text>
<text x="240" y="226" text-anchor="middle" font-size="10" fill="#dc2626">→ 항상 거부 (최우선)</text>
<line x1="480" y1="195" x2="480" y2="170" stroke="#22c55e" stroke-width="2" marker-end="url(#ar3)"/>
<rect x="380" y="195" width="200" height="38" rx="8" fill="#e8f5e9" stroke="#22c55e" stroke-width="1.5" filter="url(#sh3)"/>
<text x="480" y="210" text-anchor="middle" font-size="11" font-weight="bold" fill="#16a34a">✅ 모든 정책 Allow</text>
<text x="480" y="226" text-anchor="middle" font-size="10" fill="#16a34a">→ 허용</text>
<text x="360" y="270" text-anchor="middle" font-size="11" fill="#546e7a">기본적으로 모든 요청은 거부됩니다</text>
</svg>