<?xml version="1.0" encoding="UTF-8"?>
<svg viewBox="0 0 720 280" xmlns="http://www.w3.org/2000/svg" font-family="sans-serif">
<defs>
  <filter id="sh1"><feDropShadow dx="1" dy="2" stdDeviation="2" flood-opacity="0.1"/></filter>
  <marker id="ar1" viewBox="0 0 10 10" refX="9" refY="5" markerWidth="7" markerHeight="7" orient="auto"><path d="M0 0L10 5L0 10z" fill="#546e7a"/></marker>
</defs>
<rect x="20" y="20" width="150" height="38" rx="8" fill="#e0f2fe" stroke="#0284c7" stroke-width="1.5" filter="url(#sh1)"/>
<text x="95" y="44" text-anchor="middle" font-size="12" font-weight="bold" fill="#0284c7">👤 IAM 사용자</text>
<rect x="20" y="72" width="150" height="38" rx="8" fill="#fff3e0" stroke="#f59e0b" stroke-width="1.5" filter="url(#sh1)"/>
<text x="95" y="96" text-anchor="middle" font-size="12" font-weight="bold" fill="#b45309">🖥️ EC2 인스턴스</text>
<rect x="20" y="124" width="150" height="38" rx="8" fill="#fff3e0" stroke="#f59e0b" stroke-width="1.5" filter="url(#sh1)"/>
<text x="95" y="148" text-anchor="middle" font-size="12" font-weight="bold" fill="#b45309">⚡ Lambda 함수</text>
<rect x="20" y="176" width="150" height="38" rx="8" fill="#e0f2fe" stroke="#0284c7" stroke-width="1.5" filter="url(#sh1)"/>
<text x="95" y="200" text-anchor="middle" font-size="12" font-weight="bold" fill="#0284c7">🌐 외부 IdP</text>
<text x="95" y="215" text-anchor="middle" font-size="10" fill="#0284c7">(SAML/OIDC)</text>
<line x1="170" y1="39" x2="298" y2="110" stroke="#546e7a" stroke-width="2" marker-end="url(#ar1)"/>
<text x="220" y="68" text-anchor="middle" font-size="10" fill="#546e7a">AssumeRole</text>
<line x1="170" y1="91" x2="298" y2="125" stroke="#546e7a" stroke-width="2" marker-end="url(#ar1)"/>
<line x1="170" y1="143" x2="298" y2="140" stroke="#546e7a" stroke-width="2" marker-end="url(#ar1)"/>
<line x1="170" y1="195" x2="298" y2="155" stroke="#546e7a" stroke-width="2" marker-end="url(#ar1)"/>
<rect x="308" y="95" width="150" height="55" rx="8" fill="#fce4ec" stroke="#ef4444" stroke-width="2" filter="url(#sh1)"/>
<text x="383" y="118" text-anchor="middle" font-size="13" font-weight="bold" fill="#dc2626">🔐 IAM 역할</text>
<text x="383" y="138" text-anchor="middle" font-size="10" fill="#dc2626">(Trust Policy)</text>
<line x1="458" y1="122" x2="548" y2="122" stroke="#546e7a" stroke-width="2" marker-end="url(#ar1)"/>
<text x="498" y="114" text-anchor="middle" font-size="10" fill="#546e7a">임시 자격 증명</text>
<rect x="558" y="100" width="140" height="44" rx="8" fill="#fff3e0" stroke="#f59e0b" stroke-width="2" filter="url(#sh1)"/>
<text x="628" y="120" text-anchor="middle" font-size="12" font-weight="bold" fill="#b45309">☁️ AWS 리소스</text>
<text x="628" y="136" text-anchor="middle" font-size="10" fill="#b45309">S3, DynamoDB…</text>
</svg>