<?xml version="1.0" encoding="UTF-8"?>
<svg viewBox="0 0 720 480" xmlns="http://www.w3.org/2000/svg" font-family="sans-serif">
<defs>
  <filter id="sh5"><feDropShadow dx="1" dy="2" stdDeviation="2" flood-opacity="0.1"/></filter>
  <marker id="ar5" viewBox="0 0 10 10" refX="9" refY="5" markerWidth="7" markerHeight="7" orient="auto"><path d="M0 0L10 5L0 10z" fill="#546e7a"/></marker>
</defs>
<rect x="250" y="10" width="200" height="38" rx="8" fill="#e0f2fe" stroke="#0284c7" stroke-width="2" filter="url(#sh5)"/>
<text x="350" y="34" text-anchor="middle" font-size="13" font-weight="bold" fill="#0284c7">👤 클라이언트</text>
<line x1="350" y1="48" x2="350" y2="75" stroke="#546e7a" stroke-width="2" marker-end="url(#ar5)"/>
<text x="420" y="65" text-anchor="middle" font-size="10" fill="#546e7a">🔒 TLS 1.3 (전송 중 암호화)</text>
<rect x="225" y="75" width="250" height="42" rx="8" fill="#f3e8ff" stroke="#8b5cf6" stroke-width="2" filter="url(#sh5)"/>
<text x="350" y="101" text-anchor="middle" font-size="13" font-weight="bold" fill="#7c3aed">🌐 ALB / API Gateway</text>
<line x1="350" y1="117" x2="350" y2="145" stroke="#546e7a" stroke-width="2" marker-end="url(#ar5)"/>
<text x="420" y="135" text-anchor="middle" font-size="10" fill="#546e7a">🔒 TLS (전송 중 암호화)</text>
<rect x="225" y="145" width="250" height="42" rx="8" fill="#fff3e0" stroke="#f59e0b" stroke-width="2" filter="url(#sh5)"/>
<text x="350" y="165" text-anchor="middle" font-size="12" font-weight="bold" fill="#b45309">⚡ Lambda / ECS</text>
<text x="350" y="181" text-anchor="middle" font-size="10" fill="#b45309">(KMS 데이터 키 · 봉투 암호화)</text>
<line x1="260" y1="187" x2="130" y2="225" stroke="#546e7a" stroke-width="2" marker-end="url(#ar5)"/>
<text x="175" y="200" text-anchor="middle" font-size="9" fill="#546e7a">SSE-KMS</text>
<line x1="440" y1="187" x2="560" y2="225" stroke="#546e7a" stroke-width="2" marker-end="url(#ar5)"/>
<text x="520" y="200" text-anchor="middle" font-size="9" fill="#546e7a">SSE-KMS + 버전관리</text>
<rect x="20" y="225" width="220" height="42" rx="8" fill="#e8f5e9" stroke="#22c55e" stroke-width="1.5" filter="url(#sh5)"/>
<text x="130" y="245" text-anchor="middle" font-size="12" font-weight="bold" fill="#16a34a">🗄️ DynamoDB</text>
<text x="130" y="261" text-anchor="middle" font-size="10" fill="#16a34a">저장 중 암호화 (SSE-KMS)</text>
<rect x="480" y="225" width="220" height="42" rx="8" fill="#e8f5e9" stroke="#22c55e" stroke-width="1.5" filter="url(#sh5)"/>
<text x="590" y="245" text-anchor="middle" font-size="12" font-weight="bold" fill="#16a34a">📁 S3</text>
<text x="590" y="261" text-anchor="middle" font-size="10" fill="#16a34a">저장 중 암호화 + 버전 관리</text>
<line x1="350" y1="267" x2="350" y2="310" stroke="#546e7a" stroke-width="2" marker-end="url(#ar5)"/>
<rect x="200" y="310" width="300" height="48" rx="8" fill="#fce4ec" stroke="#ef4444" stroke-width="2" filter="url(#sh5)"/>
<text x="350" y="332" text-anchor="middle" font-size="13" font-weight="bold" fill="#dc2626">🔑 CloudHSM</text>
<text x="350" y="350" text-anchor="middle" font-size="10" fill="#dc2626">Nitro Enclaves (사용 중 암호화)</text>
<text x="130" y="300" text-anchor="middle" font-size="9" fill="#546e7a">🔒 저장 중</text>
<text x="590" y="300" text-anchor="middle" font-size="9" fill="#546e7a">🔒 저장 중</text>
</svg>