<?xml version="1.0" encoding="UTF-8"?>
<svg viewBox="0 0 720 320" xmlns="http://www.w3.org/2000/svg" font-family="sans-serif">
<defs>
  <filter id="sh4"><feDropShadow dx="1" dy="2" stdDeviation="2" flood-opacity="0.1"/></filter>
  <marker id="ar4" viewBox="0 0 10 10" refX="9" refY="5" markerWidth="7" markerHeight="7" orient="auto"><path d="M0 0L10 5L0 10z" fill="#546e7a"/></marker>
</defs>
<rect x="250" y="10" width="200" height="40" rx="8" fill="#e0f2fe" stroke="#0284c7" stroke-width="2" filter="url(#sh4)"/>
<text x="350" y="35" text-anchor="middle" font-size="13" font-weight="bold" fill="#0284c7">💻 애플리케이션</text>
<line x1="200" y1="50" x2="200" y2="80" stroke="#546e7a" stroke-width="2" marker-end="url(#ar4)"/>
<line x1="350" y1="50" x2="350" y2="80" stroke="#546e7a" stroke-width="2" marker-end="url(#ar4)"/>
<line x1="500" y1="50" x2="500" y2="80" stroke="#546e7a" stroke-width="2" marker-end="url(#ar4)"/>
<rect x="100" y="80" width="200" height="38" rx="8" fill="#e8f5e9" stroke="#22c55e" stroke-width="1.5" filter="url(#sh4)"/>
<text x="200" y="104" text-anchor="middle" font-size="12" fill="#16a34a">📦 SSE-S3</text>
<text x="200" y="96" text-anchor="middle" font-size="9" fill="#16a34a">S3 관리형 키 (기본, 자동)</text>
<rect x="250" y="130" width="200" height="38" rx="8" fill="#fce4ec" stroke="#ef4444" stroke-width="1.5" filter="url(#sh4)"/>
<text x="350" y="154" text-anchor="middle" font-size="12" fill="#dc2626">🔑 SSE-KMS</text>
<text x="350" y="146" text-anchor="middle" font-size="9" fill="#dc2626">KMS 키 (고객 관리형 권장)</text>
<rect x="400" y="80" width="200" height="38" rx="8" fill="#fff3e0" stroke="#f59e0b" stroke-width="1.5" filter="url(#sh4)"/>
<text x="500" y="104" text-anchor="middle" font-size="12" fill="#b45309">🔑 SSE-C</text>
<text x="500" y="96" text-anchor="middle" font-size="9" fill="#b45309">고객 제공 키</text>
<line x1="200" y1="118" x2="300" y2="220" stroke="#546e7a" stroke-width="1.5"/>
<line x1="350" y1="168" x2="350" y2="220" stroke="#546e7a" stroke-width="1.5"/>
<line x1="500" y1="118" x2="400" y2="220" stroke="#546e7a" stroke-width="1.5"/>
<rect x="150" y="220" width="420" height="48" rx="10" fill="#e8f5e9" stroke="#22c55e" stroke-width="2.5" filter="url(#sh4)"/>
<text x="360" y="242" text-anchor="middle" font-size="14" font-weight="bold" fill="#16a34a">🔒 암호화된 스토리지</text>
<text x="360" y="260" text-anchor="middle" font-size="11" fill="#16a34a">S3 · EBS · RDS · DynamoDB · Lambda · Secrets Manager</text>
</svg>