<?xml version="1.0" encoding="UTF-8"?>
<svg viewBox="0 0 720 280" xmlns="http://www.w3.org/2000/svg" font-family="sans-serif">
<defs>
  <filter id="sh3"><feDropShadow dx="1" dy="2" stdDeviation="2" flood-opacity="0.1"/></filter>
  <marker id="ar3" viewBox="0 0 10 10" refX="9" refY="5" markerWidth="7" markerHeight="7" orient="auto"><path d="M0 0L10 5L0 10z" fill="#546e7a"/></marker>
</defs>
<rect x="30" y="20" width="250" height="48" rx="8" fill="#fce4ec" stroke="#ef4444" stroke-width="2" filter="url(#sh3)"/>
<text x="155" y="40" text-anchor="middle" font-size="13" font-weight="bold" fill="#dc2626">🇰🇷 서울 리전</text>
<text x="155" y="58" text-anchor="middle" font-size="11" fill="#dc2626">KMS 주요 키 (Primary)</text>
<rect x="440" y="20" width="250" height="48" rx="8" fill="#fce4ec" stroke="#ef4444" stroke-width="2" filter="url(#sh3)"/>
<text x="565" y="40" text-anchor="middle" font-size="13" font-weight="bold" fill="#dc2626">🇯🇵 도쿄 리전</text>
<text x="565" y="58" text-anchor="middle" font-size="11" fill="#dc2626">KMS 복제 키 (Replica)</text>
<line x1="280" y1="44" x2="440" y2="44" stroke="#546e7a" stroke-width="2" marker-end="url(#ar3)"/>
<text x="360" y="36" text-anchor="middle" font-size="10" fill="#546e7a">복제</text>
<rect x="30" y="95" width="170" height="38" rx="8" fill="#e8f5e9" stroke="#22c55e" stroke-width="1.5" filter="url(#sh3)"/>
<text x="115" y="119" text-anchor="middle" font-size="12" fill="#16a34a">📁 S3 암호화</text>
<line x1="155" y1="68" x2="115" y2="95" stroke="#546e7a" stroke-width="1.5"/>
<rect x="520" y="95" width="170" height="38" rx="8" fill="#e8f5e9" stroke="#22c55e" stroke-width="1.5" filter="url(#sh3)"/>
<text x="605" y="119" text-anchor="middle" font-size="12" fill="#16a34a">📁 S3 복제본</text>
<line x1="565" y1="68" x2="605" y2="95" stroke="#546e7a" stroke-width="1.5"/>
<line x1="200" y1="114" x2="520" y2="114" stroke="#546e7a" stroke-width="1" stroke-dasharray="5,3" marker-end="url(#ar3)"/>
<text x="360" y="108" text-anchor="middle" font-size="10" fill="#546e7a">S3 Cross-Region 복제</text>
<rect x="200" y="160" width="160" height="40" rx="8" fill="#fff3e0" stroke="#f59e0b" stroke-width="1.5" filter="url(#sh3)"/>
<text x="280" y="178" text-anchor="middle" font-size="11" font-weight="bold" fill="#b45309">⚠️ 재해 발생</text>
<text x="280" y="194" text-anchor="middle" font-size="9" fill="#b45309">서울 리전 장애</text>
<line x1="360" y1="180" x2="440" y2="200" stroke="#ef4444" stroke-width="2" marker-end="url(#ar3)"/>
<text x="400" y="192" text-anchor="middle" font-size="10" font-weight="bold" fill="#ef4444">장애 조치</text>
<rect x="350" y="200" width="280" height="40" rx="8" fill="#e8f5e9" stroke="#22c55e" stroke-width="2" filter="url(#sh3)"/>
<text x="490" y="218" text-anchor="middle" font-size="11" font-weight="bold" fill="#16a34a">✅ 복제본으로 복호화 가능</text>
<text x="490" y="234" text-anchor="middle" font-size="10" fill="#16a34a">동일 키 자료로 복호화</text>
</svg>