<?xml version="1.0" encoding="UTF-8"?>
<svg viewBox="0 0 800 580" xmlns="http://www.w3.org/2000/svg">
            <defs><marker id="arr7" markerWidth="10" markerHeight="7" refX="10" refY="3.5" orient="auto"><polygon points="0 0, 10 3.5, 0 7" fill="#546e7a"/></marker><filter id="sh7" x="-2%" y="-2%" width="104%" height="104%"><feDropShadow dx="1" dy="1" stdDeviation="2" flood-opacity="0.1"/></filter></defs>
            <rect width="800" height="580" fill="#f8fafb" rx="8"/>
            
<text x="400" y="22" text-anchor="middle" font-size="14" font-weight="bold" font-family="sans-serif" fill="#37474f">권한 관리 방식 선택 가이드</text>

<!-- Decision tree -->
<rect x="20" y="36" width="760" height="400" rx="8" fill="none" stroke="#90a4ae" stroke-width="1" filter="url(#sh7)"/>
<text x="400" y="60" text-anchor="middle" font-size="12" font-weight="bold" font-family="sans-serif" fill="#37474f">대상이 누구인가?</text>

<!-- Three branches -->
<line x1="250" y1="70" x2="150" y2="100" stroke="#546e7a" stroke-width="1.5" marker-end="url(#arr7)"/>
<line x1="400" y1="70" x2="400" y2="100" stroke="#546e7a" stroke-width="1.5" marker-end="url(#arr7)"/>
<line x1="550" y1="70" x2="650" y2="100" stroke="#546e7a" stroke-width="1.5" marker-end="url(#arr7)"/>

<rect x="60" y="102" width="180" height="40" rx="6" fill="#e8f0fe" stroke="#4285f4" stroke-width="1.5" filter="url(#sh7)"/>
<text x="150" y="126" text-anchor="middle" font-size="10" font-weight="normal" font-family="sans-serif" fill="#333">조직 내부 (AD/SSO)</text>
<rect x="310" y="102" width="180" height="40" rx="6" fill="#fff3e0" stroke="#ff9900" stroke-width="1.5" filter="url(#sh7)"/>
<text x="400" y="114" text-anchor="middle" font-size="9" font-weight="normal" font-family="sans-serif" fill="#333">특정 AWS 계정</text>
<text x="400" y="130" text-anchor="middle" font-size="9" font-weight="normal" font-family="sans-serif" fill="#333">(파트너/고객)</text>
<rect x="560" y="102" width="180" height="40" rx="6" fill="#e8f0fe" stroke="#4285f4" stroke-width="1.5" filter="url(#sh7)"/>
<text x="650" y="126" text-anchor="middle" font-size="10" font-weight="normal" font-family="sans-serif" fill="#333">전 세계 (공개)</text>

<!-- Left branch: 조직 내부 -->
<line x1="150" y1="142" x2="150" y2="165" stroke="#546e7a" stroke-width="1.5" marker-end="url(#arr7)"/>
<text x="100" y="178" text-anchor="middle" font-size="11" font-weight="bold" font-family="sans-serif" fill="#37474f">사용자 수?</text>

<line x1="100" y1="190" x2="70" y2="215" stroke="#546e7a" stroke-width="1.5" marker-end="url(#arr7)"/>
<line x1="200" y1="190" x2="230" y2="215" stroke="#546e7a" stroke-width="1.5" marker-end="url(#arr7)"/>

<rect x="20" y="218" width="100" height="35" rx="6" fill="#e8f5e9" stroke="#43a047" stroke-width="1.5" filter="url(#sh7)"/>
<text x="70" y="239" text-anchor="middle" font-size="9" font-weight="normal" font-family="sans-serif" fill="#333">적음 (&lt;50)</text>
<rect x="170" y="218" width="100" height="35" rx="6" fill="#fce4ec" stroke="#e53935" stroke-width="1.5" filter="url(#sh7)"/>
<text x="220" y="239" text-anchor="middle" font-size="9" font-weight="normal" font-family="sans-serif" fill="#333">많음 (&gt;50)</text>

<line x1="70" y1="253" x2="70" y2="278" stroke="#546e7a" stroke-width="1.5" marker-end="url(#arr7)"/>
<line x1="220" y1="253" x2="220" y2="278" stroke="#546e7a" stroke-width="1.5" marker-end="url(#arr7)"/>

<rect x="20" y="281" width="110" height="35" rx="6" fill="#fff3e0" stroke="#ff9900" stroke-width="1.5" filter="url(#sh7)"/>
<text x="75" y="302" text-anchor="middle" font-size="10" font-weight="normal" font-family="sans-serif" fill="#333">IAM 정책</text>
<rect x="165" y="281" width="120" height="35" rx="6" fill="#e8f5e9" stroke="#43a047" stroke-width="1.5" filter="url(#sh7)"/>
<text x="225" y="290" text-anchor="middle" font-size="10" font-weight="normal" font-family="sans-serif" fill="#333">Access Grants</text>
<text x="225" y="306" text-anchor="middle" font-size="10" font-weight="normal" font-family="sans-serif" fill="#333">★추천</text>

<!-- Middle branch: 특정 계정 -->
<line x1="400" y1="142" x2="400" y2="190" stroke="#546e7a" stroke-width="1.5" marker-end="url(#arr7)"/>
<text x="400" y="200" text-anchor="middle" font-size="11" font-weight="bold" font-family="sans-serif" fill="#37474f">공유 범위가?</text>

<line x1="350" y1="210" x2="330" y2="235" stroke="#546e7a" stroke-width="1.5" marker-end="url(#arr7)"/>
<line x1="450" y1="210" x2="470" y2="235" stroke="#546e7a" stroke-width="1.5" marker-end="url(#arr7)"/>

<rect x="280" y="238" width="110" height="35" rx="6" fill="#fff3e0" stroke="#ff9900" stroke-width="1.5" filter="url(#sh7)"/>
<text x="335" y="259" text-anchor="middle" font-size="9" font-weight="normal" font-family="sans-serif" fill="#333">전체 버킷</text>
<rect x="420" y="238" width="110" height="35" rx="6" fill="#f3e5f5" stroke="#9c27b0" stroke-width="1.5" filter="url(#sh7)"/>
<text x="475" y="259" text-anchor="middle" font-size="9" font-weight="normal" font-family="sans-serif" fill="#333">특정 경로</text>

<line x1="335" y1="273" x2="335" y2="298" stroke="#546e7a" stroke-width="1.5" marker-end="url(#arr7)"/>
<line x1="475" y1="273" x2="475" y2="298" stroke="#546e7a" stroke-width="1.5" marker-end="url(#arr7)"/>

<rect x="270" y="301" width="130" height="35" rx="6" fill="#fff3e0" stroke="#ff9900" stroke-width="1.5" filter="url(#sh7)"/>
<text x="335" y="322" text-anchor="middle" font-size="10" font-weight="normal" font-family="sans-serif" fill="#333">버킷 정책</text>
<rect x="420" y="301" width="130" height="35" rx="6" fill="#f3e5f5" stroke="#9c27b0" stroke-width="1.5" filter="url(#sh7)"/>
<text x="485" y="310" text-anchor="middle" font-size="9" font-weight="normal" font-family="sans-serif" fill="#333">Access Points</text>
<text x="485" y="326" text-anchor="middle" font-size="9" font-weight="normal" font-family="sans-serif" fill="#333">+ 버킷 정책</text>

<!-- Right branch: 공개 -->
<line x1="650" y1="142" x2="650" y2="175" stroke="#546e7a" stroke-width="1.5" marker-end="url(#arr7)"/>
<rect x="560" y="178" width="180" height="40" rx="6" fill="#fff3e0" stroke="#ff9900" stroke-width="1.5" filter="url(#sh7)"/>
<text x="650" y="202" text-anchor="middle" font-size="10" font-weight="normal" font-family="sans-serif" fill="#333">버킷 정책 (Public Read)</text>

<!-- Summary table -->
<rect x="30" y="450" width="740" height="115" rx="6" fill="white" stroke="#bdbdbd" stroke-width="1"/>
<text x="50" y="470" text-anchor="start" font-size="10" font-weight="bold" font-family="sans-serif" fill="#37474f">상황</text>
<text x="250" y="470" text-anchor="start" font-size="10" font-weight="bold" font-family="sans-serif" fill="#37474f">권장 방식</text>
<line x1="30" y1="478" x2="770" y2="478" stroke="#bdbdbd" stroke-width="0.5"/>

<text x="50" y="494" text-anchor="start" font-size="10" font-weight="normal" font-family="sans-serif" fill="#333">사내 50명 이상</text>     <text x="250" y="494" text-anchor="start" font-size="10" font-weight="normal" font-family="sans-serif" fill="#333">S3 Access Grants + IAM Identity Center</text>
<text x="50" y="510" text-anchor="start" font-size="10" font-weight="normal" font-family="sans-serif" fill="#333">사내 50명 이하</text>     <text x="250" y="510" text-anchor="start" font-size="10" font-weight="normal" font-family="sans-serif" fill="#333">IAM 정책 (간단)</text>
<text x="50" y="526" text-anchor="start" font-size="10" font-weight="normal" font-family="sans-serif" fill="#333">특정 파트너</text>        <text x="250" y="526" text-anchor="start" font-size="10" font-weight="normal" font-family="sans-serif" fill="#333">S3 Access Points + 버킷 정책</text>
<text x="50" y="542" text-anchor="start" font-size="10" font-weight="normal" font-family="sans-serif" fill="#333">공개 데이터</text>        <text x="250" y="542" text-anchor="start" font-size="10" font-weight="normal" font-family="sans-serif" fill="#333">버킷 정책 (Public Read)</text>
<text x="50" y="558" text-anchor="start" font-size="10" font-weight="normal" font-family="sans-serif" fill="#333">임시 공유</text>          <text x="250" y="558" text-anchor="start" font-size="10" font-weight="normal" font-family="sans-serif" fill="#333">Pre-signed URL</text>

            </svg>