<?xml version="1.0" encoding="UTF-8"?>
<svg viewBox="0 0 750 440" xmlns="http://www.w3.org/2000/svg" font-family="system-ui,sans-serif">
<defs>
<filter id="sh"><feDropShadow dx="1" dy="1" stdDeviation="2" flood-opacity=".12"/></filter>
<marker id="ar" viewBox="0 0 10 10" refX="9" refY="5" markerWidth="6" markerHeight="6" orient="auto-start-reverse"><path d="M0 0L10 5L0 10z" fill="#546e7a"/></marker>
</defs>
<text x="375" y="22" text-anchor="middle" font-size="13" font-weight="bold" fill="#334155">VersityGW 클러스터 아키텍처</text>

<rect x="240" y="42" width="270" height="60" rx="10" fill="#f0f4f8" stroke="#e2e8f0" stroke-width="1.5" filter="url(#sh)"/>
<text x="375" y="66" text-anchor="middle" font-size="12" font-weight="bold" fill="#495057">Load Balancer</text>
<text x="375" y="84" text-anchor="middle" font-size="10" fill="#495057">HAProxy / Nginx</text>

<line x1="290" y1="102" x2="135" y2="155" stroke="#546e7a" stroke-width="1.5" marker-end="url(#ar)"/>
<line x1="375" y1="102" x2="375" y2="155" stroke="#546e7a" stroke-width="1.5" marker-end="url(#ar)"/>
<line x1="460" y1="102" x2="615" y2="155" stroke="#546e7a" stroke-width="1.5" marker-end="url(#ar)"/>

<rect x="40" y="160" width="195" height="75" rx="8" fill="#fef3c7" stroke="#fbbf24" stroke-width="1.5" filter="url(#sh)"/>
<text x="137" y="185" text-anchor="middle" font-size="11" font-weight="bold" fill="#92400e">VersityGW</text>
<text x="137" y="203" text-anchor="middle" font-size="10" fill="#b45309">Instance 1</text>
<text x="137" y="220" text-anchor="middle" font-size="10" fill="#b45309">:10000</text>

<rect x="278" y="160" width="195" height="75" rx="8" fill="#fef3c7" stroke="#fbbf24" stroke-width="1.5" filter="url(#sh)"/>
<text x="375" y="185" text-anchor="middle" font-size="11" font-weight="bold" fill="#92400e">VersityGW</text>
<text x="375" y="203" text-anchor="middle" font-size="10" fill="#b45309">Instance 2</text>
<text x="375" y="220" text-anchor="middle" font-size="10" fill="#b45309">:10000</text>

<rect x="515" y="160" width="195" height="75" rx="8" fill="#fef3c7" stroke="#fbbf24" stroke-width="1.5" filter="url(#sh)"/>
<text x="612" y="185" text-anchor="middle" font-size="11" font-weight="bold" fill="#92400e">VersityGW</text>
<text x="612" y="203" text-anchor="middle" font-size="10" fill="#b45309">Instance 3</text>
<text x="612" y="220" text-anchor="middle" font-size="10" fill="#b45309">:10000</text>

<line x1="137" y1="235" x2="310" y2="310" stroke="#546e7a" stroke-width="1.5" marker-end="url(#ar)"/>
<line x1="375" y1="235" x2="375" y2="310" stroke="#546e7a" stroke-width="1.5" marker-end="url(#ar)"/>
<line x1="612" y1="235" x2="440" y2="310" stroke="#546e7a" stroke-width="1.5" marker-end="url(#ar)"/>

<text x="375" y="280" text-anchor="middle" font-size="10" font-weight="bold" fill="#37474f">POSIX I/O</text>

<rect x="210" y="315" width="330" height="105" rx="10" fill="#ecfdf5" stroke="#059669" stroke-width="1.5" filter="url(#sh)"/>
<text x="375" y="340" text-anchor="middle" font-size="12" font-weight="bold" fill="#064e3b">공유 파일시스템</text>
<text x="375" y="358" text-anchor="middle" font-size="10" fill="#065f46">NFS, GPFS, Lustre, CephFS</text>
<text x="375" y="378" text-anchor="middle" font-size="11" fill="#065f46">/s3-data/</text>
<text x="375" y="398" text-anchor="middle" font-size="10" fill="#065f46">├── bucket-a/   └── bucket-b/</text>
</svg>