<?xml version="1.0" encoding="UTF-8"?>
<svg viewBox="0 0 740 460" xmlns="http://www.w3.org/2000/svg">
<defs><filter id="sh" x="-2%" y="-2%" width="104%" height="108%"><feDropShadow dx="1" dy="2" stdDeviation="2" flood-opacity="0.12"/></filter><marker id="ar" markerWidth="10" markerHeight="7" refX="10" refY="3.5" orient="auto"><polygon points="0 0,10 3.5,0 7" fill="#546e7a"/></marker></defs>
<rect x="0" y="0" width="740" height="460" rx="12" fill="#fafbfc" stroke="#e2e8f0"/>
<text x="370" y="28" text-anchor="middle" font-size="14" font-weight="bold" fill="#1e293b">🔑 최소 권한 원칙: 공유 시나리오별 권한 매트릭스</text>
<rect x="20" y="42" width="200" height="30" rx="6" fill="#f59e0b"/>
<text x="120" y="62" text-anchor="middle" font-size="12" font-weight="bold" fill="#fff">공유 시나리오</text>
<rect x="224" y="42" width="496" height="30" rx="6" fill="#3b82f6"/>
<text x="472" y="62" text-anchor="middle" font-size="12" font-weight="bold" fill="#fff">필요한 최소 권한</text>
<rect x="20" y="78" width="700" height="68" rx="6" fill="#fff3e0" stroke="#f59e0b" stroke-width="1" filter="url(#sh)"/>
<text x="120" y="98" text-anchor="middle" font-size="11" font-weight="bold" fill="#92400e">📖 읽기 전용 공유</text>
<text x="240" y="98" font-size="10" fill="#475569" font-family="monospace">s3:GetObject</text>
<text x="240" y="114" font-size="10" fill="#475569" font-family="monospace">s3:ListBucket (특정 Prefix만)</text>
<text x="240" y="130" font-size="10" fill="#64748b">대상: 지정된 Prefix</text>
<rect x="20" y="152" width="700" height="68" rx="6" fill="#fce4ec" stroke="#ef4444" stroke-width="1" filter="url(#sh)"/>
<text x="120" y="172" text-anchor="middle" font-size="11" font-weight="bold" fill="#991b1b">🔗 특정 파일 공유</text>
<text x="120" y="188" text-anchor="middle" font-size="9" fill="#991b1b">(Pre-signed)</text>
<text x="240" y="172" font-size="10" fill="#475569" font-family="monospace">s3:GetObject</text>
<text x="240" y="188" font-size="10" fill="#475569">대상: 지정된 Key만</text>
<text x="240" y="204" font-size="10" fill="#64748b">조건: 시간 제한 ⏰</text>
<rect x="20" y="226" width="700" height="68" rx="6" fill="#dbeafe" stroke="#3b82f6" stroke-width="1" filter="url(#sh)"/>
<text x="120" y="246" text-anchor="middle" font-size="11" font-weight="bold" fill="#1e40af">📊 분석용 공유</text>
<text x="120" y="262" text-anchor="middle" font-size="9" fill="#1e40af">(Access Point)</text>
<text x="240" y="246" font-size="10" fill="#475569" font-family="monospace">s3:GetObject | s3:ListBucket | s3:GetObjectAcl</text>
<text x="240" y="262" font-size="10" fill="#64748b">대상: Access Point를 통해서만</text>
<rect x="20" y="300" width="700" height="68" rx="6" fill="#e8f5e9" stroke="#22c55e" stroke-width="1" filter="url(#sh)"/>
<text x="120" y="320" text-anchor="middle" font-size="11" font-weight="bold" fill="#166534">✏️ 쓰기 포함 공유</text>
<text x="120" y="336" text-anchor="middle" font-size="9" fill="#166534">(양방향)</text>
<text x="240" y="320" font-size="10" fill="#475569" font-family="monospace">s3:GetObject | s3:PutObject | s3:DeleteObject (선택)</text>
<text x="240" y="336" font-size="10" fill="#64748b">대상: 지정된 Prefix만</text>
<rect x="20" y="374" width="700" height="68" rx="6" fill="#f3e8ff" stroke="#8b5cf6" stroke-width="1" filter="url(#sh)"/>
<text x="120" y="394" text-anchor="middle" font-size="11" font-weight="bold" fill="#5b21b6">📦 구독 데이터</text>
<text x="120" y="410" text-anchor="middle" font-size="9" fill="#5b21b6">(Data Exchange)</text>
<text x="240" y="394" font-size="10" fill="#475569" font-family="monospace">s3:GetObject | athena:StartQueryExecution</text>
<text x="240" y="410" font-size="10" fill="#475569" font-family="monospace">glue:GetTable / GetDatabase</text>
<text x="240" y="426" font-size="10" fill="#64748b">대상: 구독한 데이터셋만</text>
</svg>