<?xml version="1.0" encoding="UTF-8"?>
<svg viewBox="0 0 720 380" xmlns="http://www.w3.org/2000/svg">
<defs><filter id="sh" x="-2%" y="-2%" width="104%" height="108%"><feDropShadow dx="1" dy="2" stdDeviation="2" flood-opacity="0.12"/></filter><marker id="ar" markerWidth="10" markerHeight="7" refX="10" refY="3.5" orient="auto"><polygon points="0 0,10 3.5,0 7" fill="#546e7a"/></marker></defs>
<rect x="0" y="0" width="720" height="380" rx="12" fill="#fafbfc" stroke="#e2e8f0"/>
<text x="360" y="28" text-anchor="middle" font-size="15" font-weight="bold" fill="#1e293b">🛡️ 버킷 정책 패턴 분류</text>
<rect x="20" y="44" width="680" height="324" rx="10" fill="#f8fafc" stroke="#e2e8f0" stroke-width="1.5" filter="url(#sh)"/>
<text x="360" y="68" text-anchor="middle" font-size="12" font-weight="bold" fill="#64748b">Bucket Policy Patterns</text>
<rect x="40" y="82" width="205" height="120" rx="8" fill="#dbeafe" stroke="#3b82f6" stroke-width="1.5" filter="url(#sh)"/>
<text x="142" y="104" text-anchor="middle" font-size="11" font-weight="bold" fill="#1e40af">📋 패턴 1: 계정 기반</text>
<line x1="60" y1="112" x2="225" y2="112" stroke="#93c5fd"/>
<text x="142" y="132" text-anchor="middle" font-size="10" fill="#475569">특정 AWS 계정에만</text>
<text x="142" y="148" text-anchor="middle" font-size="10" fill="#475569">읽기 권한 허용</text>
<text x="142" y="170" text-anchor="middle" font-size="11" fill="#3b82f6">🔑 aws:PrincipalAccount</text>
<rect x="258" y="82" width="205" height="120" rx="8" fill="#f3e8ff" stroke="#8b5cf6" stroke-width="1.5" filter="url(#sh)"/>
<text x="360" y="104" text-anchor="middle" font-size="11" font-weight="bold" fill="#5b21b6">🌐 패턴 2: VPC 기반</text>
<line x1="278" y1="112" x2="443" y2="112" stroke="#c4b5fd"/>
<text x="360" y="132" text-anchor="middle" font-size="10" fill="#475569">특정 VPC에서만</text>
<text x="360" y="148" text-anchor="middle" font-size="10" fill="#475569">접근 허용</text>
<text x="360" y="170" text-anchor="middle" font-size="11" fill="#8b5cf6">🔗 aws:SourceVpce</text>
<rect x="476" y="82" width="205" height="120" rx="8" fill="#fce4ec" stroke="#ef4444" stroke-width="1.5" filter="url(#sh)"/>
<text x="578" y="104" text-anchor="middle" font-size="11" font-weight="bold" fill="#991b1b">📍 패턴 3: IP 기반</text>
<line x1="496" y1="112" x2="661" y2="112" stroke="#fca5a5"/>
<text x="578" y="132" text-anchor="middle" font-size="10" fill="#475569">특정 IP 범위에서만</text>
<text x="578" y="148" text-anchor="middle" font-size="10" fill="#475569">접근 허용</text>
<text x="578" y="170" text-anchor="middle" font-size="11" fill="#ef4444">🖥️ aws:SourceIp</text>
<rect x="40" y="218" width="205" height="120" rx="8" fill="#fff3e0" stroke="#f59e0b" stroke-width="1.5" filter="url(#sh)"/>
<text x="142" y="240" text-anchor="middle" font-size="11" font-weight="bold" fill="#92400e">⏰ 패턴 4: 시간 기반</text>
<line x1="60" y1="248" x2="225" y2="248" stroke="#fcd34d"/>
<text x="142" y="268" text-anchor="middle" font-size="10" fill="#475569">업무 시간에만</text>
<text x="142" y="284" text-anchor="middle" font-size="10" fill="#475569">접근 허용</text>
<text x="142" y="306" text-anchor="middle" font-size="11" fill="#f59e0b">📅 aws:CurrentTime</text>
<rect x="258" y="218" width="205" height="120" rx="8" fill="#e8f5e9" stroke="#22c55e" stroke-width="1.5" filter="url(#sh)"/>
<text x="360" y="240" text-anchor="middle" font-size="11" font-weight="bold" fill="#166534">🏷️ 패턴 5: 태그 기반</text>
<line x1="278" y1="248" x2="443" y2="248" stroke="#86efac"/>
<text x="360" y="268" text-anchor="middle" font-size="10" fill="#475569">환경 태그로</text>
<text x="360" y="284" text-anchor="middle" font-size="10" fill="#475569">접근 제어</text>
<text x="360" y="306" text-anchor="middle" font-size="11" fill="#22c55e">🏷️ aws:ResourceTag</text>
<rect x="476" y="218" width="205" height="120" rx="8" fill="#fce4ec" stroke="#ef4444" stroke-width="1.5" filter="url(#sh)"/>
<text x="578" y="240" text-anchor="middle" font-size="11" font-weight="bold" fill="#991b1b">🔀 패턴 6: 조건 조합</text>
<line x1="496" y1="248" x2="661" y2="248" stroke="#fca5a5"/>
<text x="578" y="268" text-anchor="middle" font-size="10" fill="#475569">다중 조건</text>
<text x="578" y="284" text-anchor="middle" font-size="10" fill="#475569">AND / OR 조합</text>
<text x="578" y="306" text-anchor="middle" font-size="11" fill="#ef4444">⚡ Compound Conditions</text>
</svg>