<?xml version="1.0" encoding="UTF-8"?>
<svg viewBox="0 0 720 440" xmlns="http://www.w3.org/2000/svg" font-family="'Segoe UI','Noto Sans KR',system-ui,sans-serif">
<defs><filter id="sh_이터공유하기" x="-2%" y="-2%" width="104%" height="108%"><feDropShadow dx="1" dy="2" stdDeviation="2" flood-opacity="0.12"/></filter><marker id="ar_이터공유하기" markerWidth="10" markerHeight="7" refX="10" refY="3.5" orient="auto"><polygon points="0 0,10 3.5,0 7" fill="#546e7a"/></marker></defs>
<rect x="0" y="0" width="720" height="440" rx="12" fill="#fafbfc" stroke="#e2e8f0"/>
<text x="360" y="28" text-anchor="middle" font-size="14" font-weight="bold" fill="#2c3e50">🔑 SSE-KMS 공유 흐름</text>
<rect x="30" y="44" width="190" height="80" rx="8" fill="#fef3c7" stroke="#fbbf24" stroke-width="1.5" filter="url(#sh_이터공유하기)"/>
<text x="125" y="68" text-anchor="middle" font-size="11" font-weight="bold" fill="#92400e">📂 데이터 제공자</text>
<text x="125" y="86" text-anchor="middle" font-size="10" fill="#495057">S3 버킷 (SSE-KMS)</text>
<text x="125" y="102" text-anchor="middle" font-size="10" fill="#495057">Provider Account</text>
<rect x="265" y="44" width="190" height="80" rx="8" fill="#dbeafe" stroke="#2563eb" stroke-width="1.5" filter="url(#sh_이터공유하기)"/>
<text x="360" y="68" text-anchor="middle" font-size="11" font-weight="bold" fill="#1e40af">🔑 AWS KMS</text>
<text x="360" y="86" text-anchor="middle" font-size="10" fill="#495057">CMK 키 관리</text>
<text x="360" y="102" text-anchor="middle" font-size="10" fill="#495057">Key Management</text>
<rect x="500" y="44" width="190" height="80" rx="8" fill="#dcfce7" stroke="#16a34a" stroke-width="1.5" filter="url(#sh_이터공유하기)"/>
<text x="595" y="68" text-anchor="middle" font-size="11" font-weight="bold" fill="#166534">📄 데이터 소비자</text>
<text x="595" y="86" text-anchor="middle" font-size="10" fill="#495057">IAM 역할</text>
<text x="595" y="102" text-anchor="middle" font-size="10" fill="#495057">Consumer Account</text>
<rect x="50" y="150" width="620" height="44" rx="6" fill="#fef2f2" stroke="#dc2626" stroke-width="1" filter="url(#sh_이터공유하기)"/>
<text x="360" y="168" text-anchor="middle" font-size="11" font-weight="bold" fill="#991b1b">1️⃣ 제공자 → KMS: 키 정책에 소비자 계정 추가</text>
<line x1="125" y1="124" x2="125" y2="150" stroke="#546e7a" stroke-width="1.2" stroke-dasharray="4,2"/>
<line x1="360" y1="124" x2="360" y2="150" stroke="#546e7a" stroke-width="1.2" stroke-dasharray="4,2"/>
<rect x="50" y="206" width="620" height="44" rx="6" fill="#dbeafe" stroke="#2563eb" stroke-width="1" filter="url(#sh_이터공유하기)"/>
<text x="360" y="224" text-anchor="middle" font-size="11" font-weight="bold" fill="#1e40af">2️⃣ 소비자 IAM에 kms:Decrypt 권한 추가</text>
<line x1="360" y1="194" x2="360" y2="206" stroke="#546e7a" stroke-width="1.2" stroke-dasharray="4,2"/>
<line x1="595" y1="124" x2="595" y2="206" stroke="#546e7a" stroke-width="1.2" stroke-dasharray="4,2"/>
<rect x="50" y="262" width="620" height="44" rx="6" fill="#dcfce7" stroke="#16a34a" stroke-width="1" filter="url(#sh_이터공유하기)"/>
<text x="360" y="280" text-anchor="middle" font-size="11" font-weight="bold" fill="#166534">3️⃣ 소비자 → S3: GetObject 요청</text>
<line x1="360" y1="250" x2="360" y2="262" stroke="#546e7a" stroke-width="1.2" stroke-dasharray="4,2"/>
<rect x="50" y="318" width="620" height="44" rx="6" fill="#ede9fe" stroke="#7c3aed" stroke-width="1" filter="url(#sh_이터공유하기)"/>
<text x="360" y="336" text-anchor="middle" font-size="11" font-weight="bold" fill="#5b21b6">4️⃣ S3 → KMS: 데이터 키 복호화</text>
<line x1="360" y1="306" x2="360" y2="318" stroke="#546e7a" stroke-width="1.2" stroke-dasharray="4,2"/>
<rect x="50" y="374" width="620" height="44" rx="6" fill="#fef3c7" stroke="#fbbf24" stroke-width="1" filter="url(#sh_이터공유하기)"/>
<text x="360" y="392" text-anchor="middle" font-size="11" font-weight="bold" fill="#92400e">5️⃣ S3 → 소비자: 복호화된 데이터 반환 ✅</text>
<line x1="360" y1="362" x2="360" y2="374" stroke="#546e7a" stroke-width="1.2" stroke-dasharray="4,2"/>
</svg>