<?xml version="1.0" encoding="UTF-8"?>
<svg viewBox="0 0 720 530" xmlns="http://www.w3.org/2000/svg" font-family="'Segoe UI','Noto Sans KR',system-ui,sans-serif">
<defs><filter id="sh_보안모델개요" x="-2%" y="-2%" width="104%" height="108%"><feDropShadow dx="1" dy="2" stdDeviation="2" flood-opacity="0.12"/></filter><marker id="ar_보안모델개요" markerWidth="10" markerHeight="7" refX="10" refY="3.5" orient="auto"><polygon points="0 0,10 3.5,0 7" fill="#546e7a"/></marker></defs>
<rect x="0" y="0" width="720" height="530" rx="12" fill="#fafbfc" stroke="#e2e8f0"/>
<text x="360" y="28" text-anchor="middle" font-size="15" font-weight="bold" fill="#2c3e50">🛡️ S3 보안 레이어 모델 (Defense in Depth)</text>
<rect x="30" y="42" width="660" height="60" rx="8" fill="#dbeafe" stroke="#2563eb" stroke-width="1.5" filter="url(#sh_보안모델개요)"/>
<text x="50" y="64" font-size="12" font-weight="bold" fill="#1e40af">Layer 7: 🔍 모니터링 &amp; 감사</text>
<text x="50" y="82" font-size="11" fill="#495057">CloudTrail | S3 Access Log | Macie | Config Rules</text>
<rect x="30" y="110" width="660" height="60" rx="8" fill="#dbeafe" stroke="#2563eb" stroke-width="1.5" filter="url(#sh_보안모델개요)"/>
<text x="50" y="132" font-size="12" font-weight="bold" fill="#1e40af">Layer 6: 🔐 데이터 보호</text>
<text x="50" y="150" font-size="11" fill="#495057">암호화 (SSE-S3 / SSE-KMS / CSE) | 버전관리 | WORM</text>
<rect x="30" y="178" width="660" height="60" rx="8" fill="#fef2f2" stroke="#dc2626" stroke-width="1.5" filter="url(#sh_보안모델개요)"/>
<text x="50" y="200" font-size="12" font-weight="bold" fill="#991b1b">Layer 5: 🛡️ 공유 메캐니즘 보안</text>
<text x="50" y="218" font-size="11" fill="#495057">Pre-signed URL 만료 | Access Point 정책 | Grants</text>
<rect x="30" y="246" width="660" height="60" rx="8" fill="#fef2f2" stroke="#dc2626" stroke-width="1.5" filter="url(#sh_보안모델개요)"/>
<text x="50" y="268" font-size="12" font-weight="bold" fill="#991b1b">Layer 4: 🔑 버킷 정책 &amp; ACL</text>
<text x="50" y="286" font-size="11" fill="#495057">Bucket Policy | IAM 정책 | S3 Access Control</text>
<rect x="30" y="314" width="660" height="60" rx="8" fill="#ede9fe" stroke="#7c3aed" stroke-width="1.5" filter="url(#sh_보안모델개요)"/>
<text x="50" y="336" font-size="12" font-weight="bold" fill="#5b21b6">Layer 3: 🌐 네트워크 보안</text>
<text x="50" y="354" font-size="11" fill="#495057">VPC Endpoint | 전송 중 암호화 (TLS) | IP 제한</text>
<rect x="30" y="382" width="660" height="60" rx="8" fill="#fef2f2" stroke="#dc2626" stroke-width="1.5" filter="url(#sh_보안모델개요)"/>
<text x="50" y="404" font-size="12" font-weight="bold" fill="#991b1b">Layer 2: 🚫 Block Public Access</text>
<text x="50" y="422" font-size="11" fill="#495057">계정 수준 공개 접근 차단 | 버킷 수준 설정</text>
<rect x="30" y="450" width="660" height="60" rx="8" fill="#fef2f2" stroke="#dc2626" stroke-width="2" filter="url(#sh_보안모델개요)"/>
<text x="50" y="472" font-size="12" font-weight="bold" fill="#991b1b">Layer 1: 🔑 IAM 기반 인증 (기반)</text>
<text x="50" y="490" font-size="11" fill="#495057">사용자/역할/정책 | MFA | STS 임시 자격 증명</text>
<text x="360" y="524" text-anchor="middle" font-size="10" fill="#8b949e">▲ 외부 접근 → 내부 (Layer 1이 기반 계층)</text>
</svg>