<?xml version="1.0" encoding="UTF-8"?>
<svg viewBox="0 0 720 340" xmlns="http://www.w3.org/2000/svg">
<defs><filter id="sh" x="-2%" y="-2%" width="104%" height="108%"><feDropShadow dx="1" dy="2" stdDeviation="2" flood-opacity="0.12"/></filter><marker id="ar" markerWidth="10" markerHeight="7" refX="10" refY="3.5" orient="auto"><polygon points="0 0,10 3.5,0 7" fill="#546e7a"/></marker></defs>
<rect x="0" y="0" width="720" height="340" rx="12" fill="#fafbfc" stroke="#e2e8f0"/>
<text x="360" y="28" text-anchor="middle" font-size="14" font-weight="bold" fill="#1e293b">🌐 VPC 엔드포인트 기반 접근 제어 구조</text>
<rect x="20" y="42" width="470" height="250" rx="10" fill="#f3e8ff" stroke="#8b5cf6" stroke-width="2" filter="url(#sh)"/>
<text x="255" y="64" text-anchor="middle" font-size="12" font-weight="bold" fill="#5b21b6">☁️ VPC: vpc-xxx</text>
<rect x="40" y="78" width="140" height="50" rx="8" fill="#e8f5e9" stroke="#22c55e" stroke-width="1.5" filter="url(#sh)"/>
<text x="110" y="100" text-anchor="middle" font-size="11" font-weight="bold" fill="#166534">🖥️ EC2 인스턴스</text>
<text x="110" y="118" text-anchor="middle" font-size="10" fill="#22c55e">✅ 허용됨</text>
<rect x="220" y="78" width="180" height="50" rx="8" fill="#dbeafe" stroke="#3b82f6" stroke-width="1.5" filter="url(#sh)"/>
<text x="310" y="100" text-anchor="middle" font-size="11" font-weight="bold" fill="#1e40af">🔗 VPC Endpoint</text>
<text x="310" y="118" text-anchor="middle" font-size="9" fill="#475569">vpce-1a2b3c4d (Gateway)</text>
<line x1="180" y1="103" x2="218" y2="103" stroke="#546e7a" stroke-width="1.5" marker-end="url(#ar)"/>
<rect x="540" y="72" width="150" height="58" rx="8" fill="#fff3e0" stroke="#f59e0b" stroke-width="1.5" filter="url(#sh)"/>
<text x="615" y="96" text-anchor="middle" font-size="11" font-weight="bold" fill="#92400e">🪣 S3 Bucket</text>
<text x="615" y="114" text-anchor="middle" font-size="10" fill="#22c55e">✅ 정책 통과</text>
<line x1="400" y1="103" x2="538" y2="103" stroke="#546e7a" stroke-width="1.5" marker-end="url(#ar)"/>
<rect x="40" y="170" width="140" height="50" rx="8" fill="#fce4ec" stroke="#ef4444" stroke-width="1.5" filter="url(#sh)"/>
<text x="110" y="192" text-anchor="middle" font-size="11" font-weight="bold" fill="#991b1b">👤 외부 사용자</text>
<text x="110" y="210" text-anchor="middle" font-size="10" fill="#ef4444">❌ 차단됨</text>
<rect x="220" y="170" width="180" height="50" rx="8" fill="#f8fafc" stroke="#e2e8f0" stroke-width="1.5" filter="url(#sh)"/>
<text x="310" y="192" text-anchor="middle" font-size="11" font-weight="bold" fill="#64748b">🌍 인터넷 게이트웨이</text>
<text x="310" y="210" text-anchor="middle" font-size="9" fill="#ef4444">버킷 정책으로 차단</text>
<line x1="180" y1="195" x2="218" y2="195" stroke="#546e7a" stroke-width="1.5" marker-end="url(#ar)"/>
<rect x="540" y="170" width="150" height="58" rx="8" fill="#fce4ec" stroke="#ef4444" stroke-width="2" filter="url(#sh)"/>
<text x="615" y="194" text-anchor="middle" font-size="11" font-weight="bold" fill="#991b1b">🪣 S3 Bucket</text>
<text x="615" y="212" text-anchor="middle" font-size="10" fill="#ef4444">🚫 거부</text>
<line x1="400" y1="195" x2="538" y2="195" stroke="#ef4444" stroke-width="1.5" stroke-dasharray="6,3" marker-end="url(#ar)"/>
<text x="470" y="188" font-size="16" fill="#ef4444">✕</text>
<rect x="20" y="304" width="680" height="26" rx="6" fill="#fce4ec" stroke="#ef4444" stroke-width="1" opacity="0.8"/>
<text x="360" y="322" text-anchor="middle" font-size="11" font-weight="bold" fill="#991b1b">🛡️ 버킷 정책: StringNotEquals aws:SourceVpce → Deny | VPC 외부 요청은 모두 차단</text>
</svg>