<svg xmlns="http://www.w3.org/2000/svg" viewBox="0 0 700 280" font-family="'Segoe UI','Noto Sans KR',system-ui,sans-serif">
  <defs>
    <marker id="ah" markerWidth="10" markerHeight="10" refX="8" refY="3" orient="auto" markerUnits="strokeWidth">
      <path d="M0,0 L0,6 L9,3 z" fill="#666"/>
    </marker>
  </defs>  <rect x="30" y="90" width="110" height="70" rx="10" fill="#f0f4f8" stroke="#4183c4" stroke-width="1.5"/>  <text x="85" y="120" font-size="13" fill="#4183c4" font-weight="bold" text-anchor="middle">사용자</text>  <text x="85" y="140" font-size="11" fill="#555" font-weight="normal" text-anchor="middle">+ 그룹</text>  <rect x="200" y="50" width="180" height="150" rx="10" fill="#fffdf0" stroke="#d29922" stroke-width="1.5"/>  <text x="290" y="75" font-size="13" fill="#d29922" font-weight="bold" text-anchor="middle">정책 문서 (JSON)</text>  <text x="290" y="100" font-size="10" fill="#555" font-weight="normal" text-anchor="middle">Effect: Allow</text>  <text x="290" y="116" font-size="10" fill="#555" font-weight="normal" text-anchor="middle">Action: users:*</text>  <text x="290" y="132" font-size="10" fill="#555" font-weight="normal" text-anchor="middle">Resource: ou=Sales</text>  <text x="290" y="148" font-size="10" fill="#555" font-weight="normal" text-anchor="middle">Condition: IP, 시간</text>  <text x="290" y="172" font-size="10" fill="#f85149" font-weight="normal" text-anchor="middle">— Deny: users:Delete</text>  <text x="290" y="188" font-size="10" fill="#f85149" font-weight="normal" text-anchor="middle">  cn=Admin</text>  <rect x="440" y="90" width="110" height="70" rx="10" fill="#f8f0ff" stroke="#bc8cff" stroke-width="1.5"/>  <text x="495" y="115" font-size="13" fill="#bc8cff" font-weight="bold" text-anchor="middle">정책 평가</text>  <text x="495" y="135" font-size="11" fill="#555" font-weight="normal" text-anchor="middle">엔진</text>  <rect x="600" y="90" width="80" height="70" rx="10" fill="#f0fff4" stroke="#3fb950" stroke-width="1.5"/>  <text x="640" y="125" font-size="14" fill="#3fb950" font-weight="bold" text-anchor="middle">Allow</text>  <text x="640" y="145" font-size="11" fill="#f85149" font-weight="normal" text-anchor="middle">또는 Deny</text>  <line x1="144" y1="125" x2="196" y2="125" stroke="#666" stroke-width="1.8" marker-end="url(#ah)"/>  <line x1="384" y1="125" x2="436" y2="125" stroke="#666" stroke-width="1.8" marker-end="url(#ah)"/>  <line x1="554" y1="125" x2="596" y2="125" stroke="#666" stroke-width="1.8" marker-end="url(#ah)"/>
</svg>