<svg xmlns="http://www.w3.org/2000/svg" viewBox="0 0 720 300" font-family="'Segoe UI','Noto Sans KR',system-ui,sans-serif">
  <defs>
    <marker id="ah" markerWidth="10" markerHeight="10" refX="8" refY="3" orient="auto" markerUnits="strokeWidth">
      <path d="M0,0 L0,6 L9,3 z" fill="#666"/>
    </marker>
  </defs>
  <rect x="20" y="80" width="120" height="80" rx="10" fill="#f0f4f8" stroke="#4183c4" stroke-width="1.5"/>
  <text x="80" y="110" font-size="13" fill="#4183c4" font-weight="bold" text-anchor="middle">사용자</text>
  <text x="80" y="132" font-size="11" fill="#555" font-weight="normal" text-anchor="middle">+ 그룹</text>
  <rect x="180" y="55" width="190" height="170" rx="10" fill="#fffdf0" stroke="#d29922" stroke-width="1.5"/>
  <text x="275.0" y="80" font-size="13" fill="#d29922" font-weight="bold" text-anchor="middle">정책 문서 (JSON)</text>
  <text x="275.0" y="110" font-size="11" fill="#555" font-weight="normal" text-anchor="middle">Effect: Allow</text>
  <text x="275.0" y="130" font-size="11" fill="#555" font-weight="normal" text-anchor="middle">Action: users:*</text>
  <text x="275.0" y="150" font-size="11" fill="#555" font-weight="normal" text-anchor="middle">Resource: ou=Sales</text>
  <text x="275.0" y="170" font-size="11" fill="#555" font-weight="normal" text-anchor="middle">Condition: IP, 시간</text>
  <text x="275.0" y="200" font-size="11" fill="#f85149" font-weight="normal" text-anchor="middle">Deny: users:Delete</text>
  <text x="275.0" y="215" font-size="11" fill="#f85149" font-weight="normal" text-anchor="middle">cn=Admin</text>
  <rect x="430" y="80" width="120" height="80" rx="10" fill="#f8f0ff" stroke="#bc8cff" stroke-width="1.5"/>
  <text x="490" y="110" font-size="13" fill="#bc8cff" font-weight="bold" text-anchor="middle">정책 평가</text>
  <text x="490" y="132" font-size="11" fill="#555" font-weight="normal" text-anchor="middle">엔진</text>
  <rect x="600" y="80" width="90" height="80" rx="10" fill="#f0fff4" stroke="#3fb950" stroke-width="1.5"/>
  <text x="645" y="115" font-size="14" fill="#3fb950" font-weight="bold" text-anchor="middle">Allow</text>
  <text x="645" y="138" font-size="10" fill="#8b949e" font-weight="normal" text-anchor="middle">또는</text>
  <text x="645" y="155" font-size="14" fill="#f85149" font-weight="bold" text-anchor="middle">Deny</text>
  <line x1="144" y1="120" x2="176" y2="120" stroke="#666" stroke-width="1.8" marker-end="url(#ah)"/>
  <line x1="374" y1="120" x2="426" y2="120" stroke="#666" stroke-width="1.8" marker-end="url(#ah)"/>
  <line x1="554" y1="120" x2="596" y2="120" stroke="#666" stroke-width="1.8" marker-end="url(#ah)"/>

</svg>