<?xml version="1.0" encoding="UTF-8"?>
<svg viewBox="0 0 740 500" xmlns="http://www.w3.org/2000/svg">
  <defs>
    <filter id="sh"><feDropShadow dx="1" dy="2" stdDeviation="2" flood-opacity="0.1"/></filter>
    <marker id="ar" markerWidth="10" markerHeight="7" refX="10" refY="3.5" orient="auto"><polygon points="0 0, 10 3.5, 0 7" fill="#546e7a"/></marker>
  </defs>
  <rect width="740" height="500" fill="#f8fafc" rx="8"/>
  <text x="370" y="26" text-anchor="middle" font-size="14" font-weight="700" font-family="sans-serif" fill="#37474f">📦 AWS 서비스 분류 체계</text>
  <rect x="30" y="38" width="680" height="35" rx="6" fill="#37474f"/>
  <text x="130" y="60" text-anchor="middle" font-size="11" font-weight="700" fill="#fff" font-family="sans-serif">카테고리</text>
  <text x="460" y="60" text-anchor="middle" font-size="11" font-weight="700" fill="#fff" font-family="sans-serif">주요 서비스</text>
  <rect x="30" y="77" width="195" height="33" rx="0" fill="#fff3e0" stroke="#f59e0b" stroke-width="1"/>
  <text x="127" y="98" text-anchor="middle" font-size="11" font-weight="600" font-family="sans-serif" fill="#e65100">💻 컴퓨팅</text>
  <rect x="230" y="77" width="480" height="33" rx="0" fill="#fff3e0" stroke="#f59e0b" stroke-opacity="0.3"/>
  <text x="470" y="98" text-anchor="middle" font-size="10" font-family="sans-serif" fill="#546e7a">EC2, Lambda, ECS, EKS, Fargate, Batch</text>
  <rect x="30" y="113" width="195" height="33" rx="0" fill="#e8f5e9" stroke="#22c55e" stroke-width="1"/>
  <text x="127" y="134" text-anchor="middle" font-size="11" font-weight="600" font-family="sans-serif" fill="#15803d">💾 스토리지</text>
  <rect x="230" y="113" width="480" height="33" rx="0" fill="#e8f5e9" stroke="#22c55e" stroke-opacity="0.3"/>
  <text x="470" y="134" text-anchor="middle" font-size="10" font-family="sans-serif" fill="#546e7a">S3, EBS, EFS, FSx, Glacier</text>
  <rect x="30" y="149" width="195" height="33" rx="0" fill="#f3e8ff" stroke="#8b5cf6" stroke-width="1"/>
  <text x="127" y="170" text-anchor="middle" font-size="11" font-weight="600" font-family="sans-serif" fill="#6b21a8">🌐 네트워킹</text>
  <rect x="230" y="149" width="480" height="33" rx="0" fill="#f3e8ff" stroke="#8b5cf6" stroke-opacity="0.3"/>
  <text x="470" y="170" text-anchor="middle" font-size="10" font-family="sans-serif" fill="#546e7a">VPC, Route 53, CloudFront, ELB, Transit GW</text>
  <rect x="30" y="185" width="195" height="33" rx="0" fill="#e0f2fe" stroke="#0284c7" stroke-width="1"/>
  <text x="127" y="206" text-anchor="middle" font-size="11" font-weight="600" font-family="sans-serif" fill="#0d47a1">🗄️ 데이터베이스</text>
  <rect x="230" y="185" width="480" height="33" rx="0" fill="#e0f2fe" stroke="#0284c7" stroke-opacity="0.3"/>
  <text x="470" y="206" text-anchor="middle" font-size="10" font-family="sans-serif" fill="#546e7a">RDS, DynamoDB, Aurora, ElastiCache, Redshift</text>
  <rect x="30" y="221" width="195" height="33" rx="0" fill="#fce4ec" stroke="#ef4444" stroke-width="1"/>
  <text x="127" y="242" text-anchor="middle" font-size="11" font-weight="600" font-family="sans-serif" fill="#b91c1c">🔒 보안</text>
  <rect x="230" y="221" width="480" height="33" rx="0" fill="#fce4ec" stroke="#ef4444" stroke-opacity="0.3"/>
  <text x="470" y="242" text-anchor="middle" font-size="10" font-family="sans-serif" fill="#546e7a">IAM, KMS, WAF, Shield, GuardDuty, Secrets Mgr</text>
  <rect x="30" y="257" width="195" height="33" rx="0" fill="#fff3e0" stroke="#f59e0b" stroke-width="1"/>
  <text x="127" y="278" text-anchor="middle" font-size="11" font-weight="600" font-family="sans-serif" fill="#e65100">📊 분석</text>
  <rect x="230" y="257" width="480" height="33" rx="0" fill="#fff3e0" stroke="#f59e0b" stroke-opacity="0.3"/>
  <text x="470" y="278" text-anchor="middle" font-size="10" font-family="sans-serif" fill="#546e7a">Athena, Glue, EMR, Kinesis, QuickSight</text>
  <rect x="30" y="293" width="195" height="33" rx="0" fill="#e0f2fe" stroke="#0284c7" stroke-width="1"/>
  <text x="127" y="314" text-anchor="middle" font-size="11" font-weight="600" font-family="sans-serif" fill="#0d47a1">🤖 AI/ML</text>
  <rect x="230" y="293" width="480" height="33" rx="0" fill="#e0f2fe" stroke="#0284c7" stroke-opacity="0.3"/>
  <text x="470" y="314" text-anchor="middle" font-size="10" font-family="sans-serif" fill="#546e7a">SageMaker, Bedrock, Rekognition, Comprehend</text>
  <rect x="30" y="329" width="195" height="33" rx="0" fill="#e8f5e9" stroke="#22c55e" stroke-width="1"/>
  <text x="127" y="350" text-anchor="middle" font-size="11" font-weight="600" font-family="sans-serif" fill="#15803d">⚡ 서버리스</text>
  <rect x="230" y="329" width="480" height="33" rx="0" fill="#e8f5e9" stroke="#22c55e" stroke-opacity="0.3"/>
  <text x="470" y="350" text-anchor="middle" font-size="10" font-family="sans-serif" fill="#546e7a">Lambda, API Gateway, DynamoDB, Step Functions</text>
  <rect x="30" y="365" width="195" height="33" rx="0" fill="#f3e8ff" stroke="#8b5cf6" stroke-width="1"/>
  <text x="127" y="386" text-anchor="middle" font-size="11" font-weight="600" font-family="sans-serif" fill="#6b21a8">📋 관리/거버넌스</text>
  <rect x="230" y="365" width="480" height="33" rx="0" fill="#f3e8ff" stroke="#8b5cf6" stroke-opacity="0.3"/>
  <text x="470" y="386" text-anchor="middle" font-size="10" font-family="sans-serif" fill="#546e7a">CloudFormation, Systems Manager, Config</text>
  <rect x="30" y="401" width="195" height="33" rx="0" fill="#fff3e0" stroke="#f59e0b" stroke-width="1"/>
  <text x="127" y="422" text-anchor="middle" font-size="11" font-weight="600" font-family="sans-serif" fill="#e65100">🛠️ 개발자 도구</text>
  <rect x="230" y="401" width="480" height="33" rx="0" fill="#fff3e0" stroke="#f59e0b" stroke-opacity="0.3"/>
  <text x="470" y="422" text-anchor="middle" font-size="10" font-family="sans-serif" fill="#546e7a">CodeCommit, CodeBuild, CodePipeline, CDK</text>
  <rect x="30" y="437" width="195" height="33" rx="0" fill="#fce4ec" stroke="#ef4444" stroke-width="1"/>
  <text x="127" y="458" text-anchor="middle" font-size="11" font-weight="600" font-family="sans-serif" fill="#b91c1c">📨 메시징</text>
  <rect x="230" y="437" width="480" height="33" rx="0" fill="#fce4ec" stroke="#ef4444" stroke-opacity="0.3"/>
  <text x="470" y="458" text-anchor="middle" font-size="10" font-family="sans-serif" fill="#546e7a">SQS, SNS, EventBridge, SES</text>
  <rect x="30" y="473" width="195" height="22" rx="0" fill="#e0f2fe" stroke="#0284c7" stroke-width="1"/>
  <text x="127" y="489" text-anchor="middle" font-size="11" font-weight="600" font-family="sans-serif" fill="#0d47a1">🔄 마이그레이션</text>
  <rect x="230" y="473" width="480" height="22" rx="0" fill="#e0f2fe" stroke="#0284c7" stroke-opacity="0.3"/>
  <text x="470" y="489" text-anchor="middle" font-size="10" font-family="sans-serif" fill="#546e7a">DMS, Migration Hub, Transfer Family</text>
</svg>