<?xml version="1.0" encoding="UTF-8"?>
<svg viewBox="0 0 750 440" xmlns="http://www.w3.org/2000/svg" font-family="'Segoe UI','Noto Sans KR',system-ui,sans-serif">
<defs>
<filter id="sh" x="-4%" y="-4%" width="108%" height="108%"><feDropShadow dx="1" dy="2" stdDeviation="3" flood-opacity="0.1"/></filter>
<marker id="ar" viewBox="0 0 10 10" refX="9" refY="5" markerWidth="6" markerHeight="6" orient="auto-start-reverse"><path d="M 0 0 L 10 5 L 0 10 z" fill="#546e7a"/></marker>
</defs>
<style>text{font-family:'Segoe UI',system-ui,sans-serif}</style>
<text x="375" y="18" text-anchor="middle" font-size="14" font-weight="bold" fill="#2c3e50">🌐 패턴 5: 글로벌 데이터 복제 공유</text>
<rect x="15" y="30" width="720" height="400" rx="12" fill="#f0f4f8" stroke="#e2e8f0" stroke-width="1.5" filter="url(#sh)"/>
<text x="375" y="50" text-anchor="middle" font-size="12" font-weight="bold" fill="#334155">🌍 글로벌 S3 데이터 공유</text>
<rect x="50" y="64" width="260" height="90" rx="10" fill="#dbeafe" stroke="#2563eb" stroke-width="1.5" filter="url(#sh)"/>
<text x="180" y="84" text-anchor="middle" font-size="12" font-weight="bold" fill="#1e40af">🇰🇷 서울 리전</text>
<text x="180" y="100" text-anchor="middle" font-size="10" fill="#2563eb">ap-northeast-2</text>
<rect x="80" y="108" width="200" height="34" rx="6" fill="#eff6ff" stroke="#93c5fd" stroke-width="1"/>
<text x="180" y="124" text-anchor="middle" font-size="11" font-weight="bold" fill="#2563eb">S3 /global-data/ (원본)</text>
<text x="180" y="138" text-anchor="middle" font-size="9" fill="#60a5fa">Primary Bucket</text>
<rect x="440" y="64" width="260" height="90" rx="10" fill="#dbeafe" stroke="#2563eb" stroke-width="1.5" filter="url(#sh)"/>
<text x="570" y="84" text-anchor="middle" font-size="12" font-weight="bold" fill="#1e40af">🇯🇵 도쿄 리전</text>
<text x="570" y="100" text-anchor="middle" font-size="10" fill="#2563eb">ap-northeast-1</text>
<rect x="470" y="108" width="200" height="34" rx="6" fill="#eff6ff" stroke="#93c5fd" stroke-width="1"/>
<text x="570" y="124" text-anchor="middle" font-size="11" font-weight="bold" fill="#2563eb">S3 /global-data/ (복제본)</text>
<text x="570" y="138" text-anchor="middle" font-size="9" fill="#60a5fa">Auto Synced Replica</text>
<line x1="310" y1="109" x2="440" y2="109" stroke="#546e7a" stroke-width="2" marker-end="url(#ar)" stroke-dasharray="8,4"/>
<rect x="335" y="94" width="80" height="18" rx="9" fill="#fef3c7" stroke="#fbbf24" stroke-width="1"/>
<text x="375" y="107" text-anchor="middle" font-size="9" font-weight="bold" fill="#92400e">CRR 복제</text>
<line x1="180" y1="154" x2="180" y2="182" stroke="#546e7a" stroke-width="1.5"/>
<line x1="570" y1="154" x2="570" y2="182" stroke="#546e7a" stroke-width="1.5"/>
<line x1="180" y1="182" x2="570" y2="182" stroke="#546e7a" stroke-width="1.5"/>
<line x1="375" y1="182" x2="375" y2="198" stroke="#546e7a" stroke-width="1.5" marker-end="url(#ar)"/>
<rect x="200" y="200" width="350" height="80" rx="10" fill="#ede9fe" stroke="#7c3aed" stroke-width="2" filter="url(#sh)"/>
<text x="375" y="222" text-anchor="middle" font-size="13" font-weight="bold" fill="#7c3aed">🔗 Multi-Region Access Point</text>
<text x="375" y="240" text-anchor="middle" font-size="10" fill="#7c3aed">글로벌 엔드포인트 — 자동 라우팅</text>
<text x="375" y="256" text-anchor="middle" font-size="10" fill="#7c3aed">→ 가장 가까운 리전 선택</text>
<text x="375" y="270" text-anchor="middle" font-size="10" fill="#7c3aed">→ 지연 시간 최소화 + 자동 장애 조치</text>
<line x1="250" y1="280" x2="130" y2="318" stroke="#546e7a" stroke-width="1.5" marker-end="url(#ar)"/>
<line x1="375" y1="280" x2="375" y2="318" stroke="#546e7a" stroke-width="1.5" marker-end="url(#ar)"/>
<line x1="500" y1="280" x2="610" y2="318" stroke="#546e7a" stroke-width="1.5" marker-end="url(#ar)"/>
<rect x="40" y="322" width="190" height="80" rx="10" fill="#dcfce7" stroke="#16a34a" stroke-width="1.5" filter="url(#sh)"/>
<text x="135" y="346" text-anchor="middle" font-size="12" font-weight="bold" fill="#166534">👤 소비자 (한국)</text>
<text x="135" y="364" text-anchor="middle" font-size="10" fill="#15803d">→ 서울 리전 라우팅</text>
<text x="135" y="380" text-anchor="middle" font-size="10" fill="#16a34a">저지연 접근 ⚡</text>
<rect x="280" y="322" width="190" height="80" rx="10" fill="#dcfce7" stroke="#16a34a" stroke-width="1.5" filter="url(#sh)"/>
<text x="375" y="346" text-anchor="middle" font-size="12" font-weight="bold" fill="#166534">👤 소비자 (일본)</text>
<text x="375" y="364" text-anchor="middle" font-size="10" fill="#15803d">→ 도쿄 리전 라우팅</text>
<text x="375" y="380" text-anchor="middle" font-size="10" fill="#16a34a">저지연 접근 ⚡</text>
<rect x="520" y="322" width="190" height="80" rx="10" fill="#dcfce7" stroke="#16a34a" stroke-width="1.5" filter="url(#sh)"/>
<text x="615" y="346" text-anchor="middle" font-size="12" font-weight="bold" fill="#166534">👤 소비자 (미국)</text>
<text x="615" y="364" text-anchor="middle" font-size="10" fill="#15803d">→ 버지니아 리전</text>
<text x="615" y="380" text-anchor="middle" font-size="10" fill="#16a34a">저지연 접근 ⚡</text>
</svg>