<?xml version="1.0" encoding="UTF-8"?>
<svg viewBox="0 0 750 440" xmlns="http://www.w3.org/2000/svg" font-family="'Segoe UI','Noto Sans KR',system-ui,sans-serif">
<defs>
<filter id="sh" x="-4%" y="-4%" width="108%" height="108%"><feDropShadow dx="1" dy="2" stdDeviation="3" flood-opacity="0.1"/></filter>
<marker id="ar" viewBox="0 0 10 10" refX="9" refY="5" markerWidth="6" markerHeight="6" orient="auto-start-reverse"><path d="M 0 0 L 10 5 L 0 10 z" fill="#546e7a"/></marker>
</defs>
<style>text{font-family:'Segoe UI',system-ui,sans-serif}</style>
<text x="375" y="18" text-anchor="middle" font-size="14" font-weight="bold" fill="#2c3e50">🏗️ 패턴 2: 멀티 계정 데이터 허브</text>
<rect x="15" y="28" width="720" height="400" rx="12" fill="#f0f4f8" stroke="#e2e8f0" stroke-width="1.5" filter="url(#sh)"/>
<text x="375" y="48" text-anchor="middle" font-size="11" font-weight="bold" fill="#495057">☁️ AWS Organization</text>
<rect x="35" y="58" width="680" height="190" rx="10" fill="#dbeafe" stroke="#2563eb" stroke-width="1.5" filter="url(#sh)"/>
<text x="375" y="78" text-anchor="middle" font-size="12" font-weight="bold" fill="#1e40af">🏛️ 중앙 데이터 계정 (Hub)</text>
<rect x="55" y="90" width="190" height="54" rx="8" fill="#eff6ff" stroke="#93c5fd" stroke-width="1"/>
<text x="150" y="110" text-anchor="middle" font-size="11" font-weight="bold" fill="#2563eb">S3: raw-data</text>
<text x="150" y="128" text-anchor="middle" font-size="9" fill="#2563eb">(Landing Zone)</text>
<rect x="270" y="90" width="190" height="54" rx="8" fill="#eff6ff" stroke="#93c5fd" stroke-width="1"/>
<text x="365" y="110" text-anchor="middle" font-size="11" font-weight="bold" fill="#2563eb">S3: analytics</text>
<text x="365" y="128" text-anchor="middle" font-size="9" fill="#2563eb">(Curated)</text>
<rect x="485" y="90" width="190" height="54" rx="8" fill="#eff6ff" stroke="#93c5fd" stroke-width="1"/>
<text x="580" y="110" text-anchor="middle" font-size="11" font-weight="bold" fill="#2563eb">Glue Catalog</text>
<text x="580" y="128" text-anchor="middle" font-size="9" fill="#2563eb">(Metadata)</text>
<line x1="150" y1="144" x2="150" y2="160" stroke="#546e7a" stroke-width="1"/>
<line x1="365" y1="144" x2="365" y2="160" stroke="#546e7a" stroke-width="1"/>
<line x1="580" y1="144" x2="580" y2="160" stroke="#546e7a" stroke-width="1"/>
<line x1="150" y1="160" x2="580" y2="160" stroke="#546e7a" stroke-width="1"/>
<line x1="365" y1="160" x2="365" y2="172" stroke="#546e7a" stroke-width="1" marker-end="url(#ar)"/>
<rect x="55" y="174" width="640" height="60" rx="8" fill="#ede9fe" stroke="#7c3aed" stroke-width="1.5" filter="url(#sh)"/>
<text x="375" y="194" text-anchor="middle" font-size="11" font-weight="bold" fill="#7c3aed">🔗 S3 Access Points</text>
<text x="175" y="214" text-anchor="middle" font-size="9" fill="#7c3aed">AP: marketing-read → /marketing/*</text>
<text x="375" y="214" text-anchor="middle" font-size="9" fill="#7c3aed">AP: engineering-read → /engineering/*</text>
<text x="575" y="214" text-anchor="middle" font-size="9" fill="#7c3aed">AP: finance-read → /finance/*</text>
<text x="375" y="228" text-anchor="middle" font-size="9" fill="#7c3aed">AP: ml-team-rw → /ml-datasets/*</text>
<line x1="115" y1="234" x2="115" y2="268" stroke="#546e7a" stroke-width="1.5" marker-end="url(#ar)"/>
<line x1="310" y1="234" x2="310" y2="268" stroke="#546e7a" stroke-width="1.5" marker-end="url(#ar)"/>
<line x1="490" y1="234" x2="490" y2="268" stroke="#546e7a" stroke-width="1.5" marker-end="url(#ar)"/>
<line x1="660" y1="234" x2="660" y2="268" stroke="#546e7a" stroke-width="1.5" marker-end="url(#ar)"/>
<rect x="35" y="272" width="155" height="100" rx="10" fill="#dcfce7" stroke="#16a34a" stroke-width="1.5" filter="url(#sh)"/>
<text x="112" y="296" text-anchor="middle" font-size="11" font-weight="bold" fill="#166534">📢 마케팅 팀</text>
<text x="112" y="314" text-anchor="middle" font-size="9" fill="#15803d">계정 (Spoke)</text>
<text x="112" y="332" text-anchor="middle" font-size="9" fill="#16a34a">marketing-read</text>
<text x="112" y="348" text-anchor="middle" font-size="9" fill="#16a34a">AP만 접근</text>
<rect x="220" y="272" width="155" height="100" rx="10" fill="#dcfce7" stroke="#16a34a" stroke-width="1.5" filter="url(#sh)"/>
<text x="297" y="296" text-anchor="middle" font-size="11" font-weight="bold" fill="#166534">⚙️ 엔지니어링 팀</text>
<text x="297" y="314" text-anchor="middle" font-size="9" fill="#15803d">계정 (Spoke)</text>
<text x="297" y="332" text-anchor="middle" font-size="9" fill="#16a34a">engineering-read</text>
<text x="297" y="348" text-anchor="middle" font-size="9" fill="#16a34a">AP만 접근</text>
<rect x="405" y="272" width="155" height="100" rx="10" fill="#dcfce7" stroke="#16a34a" stroke-width="1.5" filter="url(#sh)"/>
<text x="482" y="296" text-anchor="middle" font-size="11" font-weight="bold" fill="#166534">💰 재무 팀</text>
<text x="482" y="314" text-anchor="middle" font-size="9" fill="#15803d">계정 (Spoke)</text>
<text x="482" y="332" text-anchor="middle" font-size="9" fill="#16a34a">finance-read</text>
<text x="482" y="348" text-anchor="middle" font-size="9" fill="#16a34a">AP만 접근</text>
<rect x="590" y="272" width="155" height="100" rx="10" fill="#dcfce7" stroke="#16a34a" stroke-width="1.5" filter="url(#sh)"/>
<text x="667" y="296" text-anchor="middle" font-size="11" font-weight="bold" fill="#166534">🤖 ML 팀</text>
<text x="667" y="314" text-anchor="middle" font-size="9" fill="#15803d">계정 (Spoke)</text>
<text x="667" y="332" text-anchor="middle" font-size="9" fill="#16a34a">ml-team-rw</text>
<text x="667" y="348" text-anchor="middle" font-size="9" fill="#16a34a">AP 접근 (R/W)</text>
<text x="375" y="400" text-anchor="middle" font-size="10" fill="#495057">Hub-and-Spoke: 중앙 집중 관리 + 팀별 최소 권한 접근</text>
</svg>