<?xml version="1.0" encoding="UTF-8"?>
<svg viewBox="0 0 750 440" xmlns="http://www.w3.org/2000/svg" font-family="'Segoe UI','Noto Sans KR',system-ui,sans-serif">
<defs>
<filter id="sh" x="-4%" y="-4%" width="108%" height="108%"><feDropShadow dx="1" dy="2" stdDeviation="3" flood-opacity="0.1"/></filter>
<marker id="ar" viewBox="0 0 10 10" refX="9" refY="5" markerWidth="6" markerHeight="6" orient="auto-start-reverse"><path d="M 0 0 L 10 5 L 0 10 z" fill="#546e7a"/></marker>
</defs>
<style>text{font-family:'Segoe UI',system-ui,sans-serif}</style>
<text x="375" y="18" text-anchor="middle" font-size="14" font-weight="bold" fill="#2c3e50">⚡ 패턴 6: 이벤트 기반 데이터 공유</text>
<rect x="20" y="34" width="160" height="80" rx="10" fill="#fef3c7" stroke="#fbbf24" stroke-width="1.5" filter="url(#sh)"/>
<text x="100" y="58" text-anchor="middle" font-size="12" font-weight="bold" fill="#92400e">📤 데이터 제공자</text>
<text x="100" y="76" text-anchor="middle" font-size="10" fill="#b45309">• 데이터 업로드</text>
<text x="100" y="90" text-anchor="middle" font-size="10" fill="#b45309">• 수정 / 삭제</text>
<line x1="180" y1="74" x2="230" y2="74" stroke="#546e7a" stroke-width="1.5" marker-end="url(#ar)"/>
<rect x="232" y="34" width="160" height="80" rx="10" fill="#dbeafe" stroke="#2563eb" stroke-width="1.5" filter="url(#sh)"/>
<text x="312" y="58" text-anchor="middle" font-size="12" font-weight="bold" fill="#1e40af">🪣 S3 버킷</text>
<text x="312" y="76" text-anchor="middle" font-size="10" fill="#2563eb">• PutObject</text>
<text x="312" y="90" text-anchor="middle" font-size="10" fill="#2563eb">• DeleteObject</text>
<text x="312" y="104" text-anchor="middle" font-size="10" fill="#2563eb">• CopyObject</text>
<line x1="392" y1="74" x2="442" y2="74" stroke="#546e7a" stroke-width="1.5" marker-end="url(#ar)"/>
<rect x="444" y="30" width="290" height="100" rx="10" fill="#dbeafe" stroke="#2563eb" stroke-width="1.5" filter="url(#sh)"/>
<text x="589" y="50" text-anchor="middle" font-size="12" font-weight="bold" fill="#1e40af">🌉 Amazon EventBridge</text>
<text x="589" y="65" text-anchor="middle" font-size="10" fill="#2563eb">이벤트 라우팅</text>
<rect x="458" y="72" width="82" height="22" rx="6" fill="#fff" stroke="#93c5fd" stroke-width="1"/>
<text x="499" y="87" text-anchor="middle" font-size="9" fill="#2563eb">Rule 1: 신규→λ</text>
<rect x="548" y="72" width="82" height="22" rx="6" fill="#fff" stroke="#93c5fd" stroke-width="1"/>
<text x="589" y="87" text-anchor="middle" font-size="9" fill="#2563eb">Rule 2: 수정→SF</text>
<rect x="638" y="72" width="82" height="22" rx="6" fill="#fff" stroke="#93c5fd" stroke-width="1"/>
<text x="679" y="87" text-anchor="middle" font-size="9" fill="#2563eb">Rule 3: 삭제→SNS</text>
<rect x="458" y="100" width="262" height="20" rx="4" fill="#eff6ff" stroke="#bfdbfe" stroke-width="0.5"/>
<text x="589" y="114" text-anchor="middle" font-size="9" fill="#2563eb">구독(Subscribe) → 라이선스 → 자산 배포</text>
<line x1="499" y1="130" x2="130" y2="200" stroke="#546e7a" stroke-width="1.5" marker-end="url(#ar)"/>
<line x1="589" y1="130" x2="375" y2="200" stroke="#546e7a" stroke-width="1.5" marker-end="url(#ar)"/>
<line x1="679" y1="130" x2="610" y2="200" stroke="#546e7a" stroke-width="1.5" marker-end="url(#ar)"/>
<rect x="30" y="204" width="200" height="100" rx="10" fill="#dbeafe" stroke="#2563eb" stroke-width="1.5" filter="url(#sh)"/>
<text x="130" y="226" text-anchor="middle" font-size="12" font-weight="bold" fill="#1e40af">⚡ Lambda 함수</text>
<text x="130" y="248" text-anchor="middle" font-size="10" fill="#2563eb">• 데이터 검증</text>
<text x="130" y="264" text-anchor="middle" font-size="10" fill="#2563eb">• 메타데이터 갱신</text>
<text x="130" y="280" text-anchor="middle" font-size="10" fill="#2563eb">• 소비자 알림 발송</text>
<rect x="260" y="204" width="210" height="100" rx="10" fill="#dbeafe" stroke="#2563eb" stroke-width="1.5" filter="url(#sh)"/>
<text x="365" y="226" text-anchor="middle" font-size="12" font-weight="bold" fill="#1e40af">🔄 Step Functions</text>
<text x="365" y="248" text-anchor="middle" font-size="10" fill="#2563eb">• ETL 파이프라인 실행</text>
<text x="365" y="264" text-anchor="middle" font-size="10" fill="#2563eb">• 품질 검사</text>
<text x="365" y="280" text-anchor="middle" font-size="10" fill="#2563eb">• 데이터 분배 실행</text>
<rect x="500" y="204" width="200" height="100" rx="10" fill="#dcfce7" stroke="#16a34a" stroke-width="1.5" filter="url(#sh)"/>
<text x="600" y="226" text-anchor="middle" font-size="12" font-weight="bold" fill="#166534">📧 SNS → 알림</text>
<text x="600" y="248" text-anchor="middle" font-size="10" fill="#15803d">• 이메일 / Slack 알림</text>
<text x="600" y="264" text-anchor="middle" font-size="10" fill="#15803d">• 삭제 알림</text>
<text x="600" y="280" text-anchor="middle" font-size="10" fill="#15803d">• 감사 로그</text>
<rect x="30" y="330" width="690" height="90" rx="10" fill="#f0f4f8" stroke="#e2e8f0" stroke-width="1" filter="url(#sh)"/>
<text x="375" y="352" text-anchor="middle" font-size="12" font-weight="bold" fill="#334155">🔗 이벤트 흐름 요약</text>
<rect x="50" y="362" width="140" height="30" rx="8" fill="#fef3c7" stroke="#fbbf24" stroke-width="1"/>
<text x="120" y="382" text-anchor="middle" font-size="10" fill="#92400e">업로드</text>
<line x1="190" y1="377" x2="220" y2="377" stroke="#546e7a" stroke-width="1.5" marker-end="url(#ar)"/>
<rect x="222" y="362" width="130" height="30" rx="8" fill="#dbeafe" stroke="#2563eb" stroke-width="1"/>
<text x="287" y="382" text-anchor="middle" font-size="10" fill="#1e40af">S3 이벤트</text>
<line x1="352" y1="377" x2="382" y2="377" stroke="#546e7a" stroke-width="1.5" marker-end="url(#ar)"/>
<rect x="384" y="362" width="140" height="30" rx="8" fill="#ede9fe" stroke="#7c3aed" stroke-width="1"/>
<text x="454" y="382" text-anchor="middle" font-size="10" fill="#7c3aed">EventBridge</text>
<line x1="524" y1="377" x2="554" y2="377" stroke="#546e7a" stroke-width="1.5" marker-end="url(#ar)"/>
<rect x="556" y="362" width="140" height="30" rx="8" fill="#dcfce7" stroke="#16a34a" stroke-width="1"/>
<text x="626" y="382" text-anchor="middle" font-size="10" fill="#166534">자동 처리</text>
<text x="375" y="412" text-anchor="middle" font-size="9" fill="#8b949e">EventBridge($1/백만 이벤트) + Lambda 실행 + SNS 알림</text>
</svg>