<?xml version="1.0" encoding="UTF-8"?>
<svg viewBox="0 0 750 430" xmlns="http://www.w3.org/2000/svg">
<defs>
<filter id="sh" x="-4%" y="-4%" width="108%" height="108%"><feDropShadow dx="1" dy="2" stdDeviation="3" flood-opacity="0.1"/></filter>
<marker id="ar" viewBox="0 0 10 10" refX="9" refY="5" markerWidth="6" markerHeight="6" orient="auto-start-reverse"><path d="M 0 0 L 10 5 L 0 10 z" fill="#546e7a"/></marker>
</defs>
<style>text{font-family:'Segoe UI',system-ui,sans-serif}</style>
<text x="375" y="18" text-anchor="middle" font-size="14" font-weight="bold" fill="#1e293b">🛒 패턴 4: 데이터 마켓플레이스</text>
<rect x="20" y="32" width="150" height="100" rx="10" fill="#fff3e0" stroke="#f59e0b" stroke-width="1.5" filter="url(#sh)"/>
<text x="95" y="56" text-anchor="middle" font-size="12" font-weight="bold" fill="#92400e">📤 데이터 제공자</text>
<text x="95" y="76" text-anchor="middle" font-size="10" fill="#b45309">(Provider)</text>
<text x="95" y="94" text-anchor="middle" font-size="9" fill="#d97706">• 날씨 회사</text>
<text x="95" y="108" text-anchor="middle" font-size="9" fill="#d97706">• 금융/마케팅 회사</text>
<rect x="580" y="32" width="150" height="100" rx="10" fill="#e8f5e9" stroke="#22c55e" stroke-width="1.5" filter="url(#sh)"/>
<text x="655" y="56" text-anchor="middle" font-size="12" font-weight="bold" fill="#166534">📥 데이터 소비자</text>
<text x="655" y="76" text-anchor="middle" font-size="10" fill="#15803d">(Subscriber)</text>
<text x="655" y="94" text-anchor="middle" font-size="9" fill="#22c55e">• 보험사</text>
<text x="655" y="108" text-anchor="middle" font-size="9" fill="#22c55e">• 트레이딩 / ML</text>
<line x1="170" y1="82" x2="220" y2="82" stroke="#546e7a" stroke-width="1.5" marker-end="url(#ar)"/>
<text x="195" y="76" text-anchor="middle" font-size="8" fill="#546e7a">1. 등록</text>
<line x1="530" y1="82" x2="580" y2="82" stroke="#546e7a" stroke-width="1.5" marker-end="url(#ar)"/>
<text x="555" y="76" text-anchor="middle" font-size="8" fill="#546e7a">4. 배포</text>
<rect x="222" y="34" width="306" height="260" rx="12" fill="#dbeafe" stroke="#3b82f6" stroke-width="1.5" filter="url(#sh)"/>
<text x="375" y="56" text-anchor="middle" font-size="13" font-weight="bold" fill="#1e40af">🏪 AWS Data Exchange</text>
<rect x="242" y="68" width="266" height="110" rx="8" fill="#eff6ff" stroke="#93c5fd" stroke-width="1"/>
<text x="375" y="86" text-anchor="middle" font-size="11" font-weight="bold" fill="#1d4ed8">📋 카탈로그</text>
<rect x="252" y="94" width="120" height="36" rx="6" fill="#fff" stroke="#fbbf24" stroke-width="1"/>
<text x="312" y="108" text-anchor="middle" font-size="9" fill="#92400e">📊 날씨 데이터 Pro</text>
<text x="312" y="122" text-anchor="middle" font-size="9" fill="#d97706">$0.10/GB/월</text>
<rect x="382" y="94" width="120" height="36" rx="6" fill="#fff" stroke="#fbbf24" stroke-width="1"/>
<text x="442" y="108" text-anchor="middle" font-size="9" fill="#92400e">💰 금융 실시간</text>
<text x="442" y="122" text-anchor="middle" font-size="9" fill="#d97706">$500/월</text>
<rect x="252" y="136" width="120" height="36" rx="6" fill="#fff" stroke="#fbbf24" stroke-width="1"/>
<text x="312" y="150" text-anchor="middle" font-size="9" fill="#92400e">📈 마케팅 인사이트</text>
<text x="312" y="164" text-anchor="middle" font-size="9" fill="#d97706">$200/월</text>
<rect x="382" y="136" width="120" height="36" rx="6" fill="#fff" stroke="#fbbf24" stroke-width="1"/>
<text x="442" y="150" text-anchor="middle" font-size="9" fill="#92400e">🏥 의료 연구</text>
<text x="442" y="164" text-anchor="middle" font-size="9" fill="#22c55e">무료 (공개)</text>
<line x1="375" y1="180" x2="375" y2="196" stroke="#546e7a" stroke-width="1"/>
<rect x="252" y="198" width="120" height="42" rx="8" fill="#dbeafe" stroke="#3b82f6" stroke-width="1"/>
<text x="312" y="216" text-anchor="middle" font-size="10" font-weight="bold" fill="#1e40af">3. 구독</text>
<text x="312" y="232" text-anchor="middle" font-size="8" fill="#3b82f6">라이선스 / 결제</text>
<line x1="372" y1="219" x2="382" y2="219" stroke="#546e7a" stroke-width="1.5" marker-end="url(#ar)"/>
<rect x="382" y="198" width="120" height="42" rx="8" fill="#dbeafe" stroke="#3b82f6" stroke-width="1"/>
<text x="442" y="216" text-anchor="middle" font-size="10" font-weight="bold" fill="#1e40af">4. 자산 배포</text>
<text x="442" y="232" text-anchor="middle" font-size="8" fill="#3b82f6">S3 직접 / API</text>
<rect x="242" y="250" width="266" height="30" rx="6" fill="#eff6ff" stroke="#93c5fd" stroke-width="0.5"/>
<text x="375" y="270" text-anchor="middle" font-size="9" fill="#3b82f6">리비전 자동 업데이트 → 소비자 S3에 복사 → Glue Catalog 등록</text>
<rect x="20" y="310" width="710" height="100" rx="10" fill="#f8fafc" stroke="#e2e8f0" stroke-width="1" filter="url(#sh)"/>
<text x="375" y="332" text-anchor="middle" font-size="12" font-weight="bold" fill="#334155">🔗 제공자 → Data Exchange → 소비자 흐름</text>
<rect x="40" y="344" width="150" height="30" rx="8" fill="#fff3e0" stroke="#f59e0b" stroke-width="1"/>
<text x="115" y="364" text-anchor="middle" font-size="10" fill="#92400e">① 데이터셋 등록</text>
<line x1="190" y1="359" x2="230" y2="359" stroke="#546e7a" stroke-width="1.5" marker-end="url(#ar)"/>
<rect x="232" y="344" width="160" height="30" rx="8" fill="#dbeafe" stroke="#3b82f6" stroke-width="1"/>
<text x="312" y="364" text-anchor="middle" font-size="10" fill="#1e40af">② 카탈로그 탐색/비교</text>
<line x1="392" y1="359" x2="420" y2="359" stroke="#546e7a" stroke-width="1.5" marker-end="url(#ar)"/>
<rect x="422" y="344" width="140" height="30" rx="8" fill="#fce4ec" stroke="#ef4444" stroke-width="1"/>
<text x="492" y="364" text-anchor="middle" font-size="10" fill="#b91c1c">③ 구독 / 결제</text>
<line x1="562" y1="359" x2="590" y2="359" stroke="#546e7a" stroke-width="1.5" marker-end="url(#ar)"/>
<rect x="592" y="344" width="120" height="30" rx="8" fill="#e8f5e9" stroke="#22c55e" stroke-width="1"/>
<text x="652" y="364" text-anchor="middle" font-size="10" fill="#166534">④ 자산 배포</text>
<text x="375" y="400" text-anchor="middle" font-size="9" fill="#94a3b8">데이터 가격(제공자) + Data Exchange 수수료 + S3 스토리지/전송비</text>
</svg>