<?xml version="1.0" encoding="UTF-8"?>
<svg viewBox="0 0 750 420" xmlns="http://www.w3.org/2000/svg">
<defs>
<filter id="sh" x="-4%" y="-4%" width="108%" height="108%"><feDropShadow dx="1" dy="2" stdDeviation="3" flood-opacity="0.1"/></filter>
<marker id="ar" viewBox="0 0 10 10" refX="9" refY="5" markerWidth="6" markerHeight="6" orient="auto-start-reverse"><path d="M 0 0 L 10 5 L 0 10 z" fill="#546e7a"/></marker>
</defs>
<style>text{font-family:'Segoe UI',system-ui,sans-serif}</style>
<text x="375" y="22" text-anchor="middle" font-size="14" font-weight="bold" fill="#1e293b">🏗️ S3 OpenSharing 아키텍처 패턴 개관</text>
<rect x="15" y="32" width="720" height="380" rx="12" fill="#f8fafc" stroke="#e2e8f0" stroke-width="1.5" filter="url(#sh)"/>
<text x="375" y="56" text-anchor="middle" font-size="13" font-weight="bold" fill="#334155">S3 OpenSharing Pattern Catalog</text>
<rect x="35" y="70" width="210" height="130" rx="10" fill="#fff3e0" stroke="#f59e0b" stroke-width="1.5" filter="url(#sh)"/>
<text x="140" y="94" text-anchor="middle" font-size="13" font-weight="bold" fill="#92400e">🗄️ 패턴 1</text>
<text x="140" y="114" text-anchor="middle" font-size="11" font-weight="bold" fill="#b45309">데이터 레이크 공유</text>
<line x1="65" y1="124" x2="215" y2="124" stroke="#f59e0b" stroke-width="0.5"/>
<text x="140" y="144" text-anchor="middle" font-size="10" fill="#d97706">단일 소스</text>
<text x="140" y="160" text-anchor="middle" font-size="10" fill="#d97706">→ 다중 소비자</text>
<rect x="270" y="70" width="210" height="130" rx="10" fill="#dbeafe" stroke="#3b82f6" stroke-width="1.5" filter="url(#sh)"/>
<text x="375" y="94" text-anchor="middle" font-size="13" font-weight="bold" fill="#1e40af">🏗️ 패턴 2</text>
<text x="375" y="114" text-anchor="middle" font-size="11" font-weight="bold" fill="#2563eb">멀티 계정 데이터 허브</text>
<line x1="300" y1="124" x2="450" y2="124" stroke="#3b82f6" stroke-width="0.5"/>
<text x="375" y="144" text-anchor="middle" font-size="10" fill="#3b82f6">중앙 집중</text>
<text x="375" y="160" text-anchor="middle" font-size="10" fill="#3b82f6">→ 다중 팀</text>
<rect x="505" y="70" width="210" height="130" rx="10" fill="#fce4ec" stroke="#ef4444" stroke-width="1.5" filter="url(#sh)"/>
<text x="610" y="94" text-anchor="middle" font-size="13" font-weight="bold" fill="#b91c1c">🔗 패턴 3</text>
<text x="610" y="114" text-anchor="middle" font-size="11" font-weight="bold" fill="#dc2626">연합 데이터 분석</text>
<line x1="535" y1="124" x2="685" y2="124" stroke="#ef4444" stroke-width="0.5"/>
<text x="610" y="144" text-anchor="middle" font-size="10" fill="#dc2626">분산 데이터</text>
<text x="610" y="160" text-anchor="middle" font-size="10" fill="#dc2626">→ 공유 분석</text>
<rect x="35" y="218" width="210" height="130" rx="10" fill="#e8f5e9" stroke="#22c55e" stroke-width="1.5" filter="url(#sh)"/>
<text x="140" y="242" text-anchor="middle" font-size="13" font-weight="bold" fill="#166534">🛒 패턴 4</text>
<text x="140" y="262" text-anchor="middle" font-size="11" font-weight="bold" fill="#15803d">데이터 마켓플레이스</text>
<line x1="65" y1="272" x2="215" y2="272" stroke="#22c55e" stroke-width="0.5"/>
<text x="140" y="292" text-anchor="middle" font-size="10" fill="#22c55e">상업적 유통</text>
<text x="140" y="308" text-anchor="middle" font-size="10" fill="#22c55e">(유료/무료)</text>
<rect x="270" y="218" width="210" height="130" rx="10" fill="#f3e8ff" stroke="#8b5cf6" stroke-width="1.5" filter="url(#sh)"/>
<text x="375" y="242" text-anchor="middle" font-size="13" font-weight="bold" fill="#6d28d9">🌐 패턴 5</text>
<text x="375" y="262" text-anchor="middle" font-size="11" font-weight="bold" fill="#7c3aed">글로벌 데이터 복제 공유</text>
<line x1="300" y1="272" x2="450" y2="272" stroke="#8b5cf6" stroke-width="0.5"/>
<text x="375" y="292" text-anchor="middle" font-size="10" fill="#8b5cf6">지역 간</text>
<text x="375" y="308" text-anchor="middle" font-size="10" fill="#8b5cf6">데이터 동기화</text>
<rect x="505" y="218" width="210" height="130" rx="10" fill="#fef3c7" stroke="#f59e0b" stroke-width="1.5" filter="url(#sh)"/>
<text x="610" y="242" text-anchor="middle" font-size="13" font-weight="bold" fill="#92400e">⚡ 패턴 6</text>
<text x="610" y="262" text-anchor="middle" font-size="11" font-weight="bold" fill="#b45309">이벤트 기반 공유</text>
<line x1="535" y1="272" x2="685" y2="272" stroke="#f59e0b" stroke-width="0.5"/>
<text x="610" y="292" text-anchor="middle" font-size="10" fill="#d97706">변경 알림</text>
<text x="610" y="308" text-anchor="middle" font-size="10" fill="#d97706">자동 처리</text>
<text x="375" y="375" text-anchor="middle" font-size="10" fill="#64748b">6가지 아키텍처 패턴으로 다양한 데이터 공유 시나리오 대응</text>
<text x="375" y="395" text-anchor="middle" font-size="9" fill="#94a3b8">단순 공유 → 허브앤스포크 → 연합 → 상업 → 글로벌 → 이벤트기반</text>
</svg>