<?xml version="1.0" encoding="UTF-8"?>
<svg viewBox="0 0 750 310" xmlns="http://www.w3.org/2000/svg">
<defs>
<filter id="sh" x="-4%" y="-4%" width="108%" height="108%"><feDropShadow dx="1" dy="2" stdDeviation="3" flood-opacity="0.1"/></filter>
<marker id="ar" viewBox="0 0 10 10" refX="9" refY="5" markerWidth="6" markerHeight="6" orient="auto-start-reverse"><path d="M 0 0 L 10 5 L 0 10 z" fill="#546e7a"/></marker>
</defs>
<style>text{font-family:'Segoe UI',system-ui,sans-serif}</style>
<text x="375" y="18" text-anchor="middle" font-size="14" font-weight="bold" fill="#1e293b">📊 아키텍처 패턴 비교 매트릭스</text>
<rect x="10" y="28" width="730" height="32" rx="6" fill="#1e293b"/>
<text x="70" y="49" text-anchor="middle" font-size="11" font-weight="bold" fill="#fff">기준</text>
<text x="180" y="49" text-anchor="middle" font-size="11" font-weight="bold" fill="#fff">패턴 1</text>
<text x="280" y="49" text-anchor="middle" font-size="11" font-weight="bold" fill="#fff">패턴 2</text>
<text x="380" y="49" text-anchor="middle" font-size="11" font-weight="bold" fill="#fff">패턴 3</text>
<text x="480" y="49" text-anchor="middle" font-size="11" font-weight="bold" fill="#fff">패턴 4</text>
<text x="580" y="49" text-anchor="middle" font-size="11" font-weight="bold" fill="#fff">패턴 5</text>
<text x="680" y="49" text-anchor="middle" font-size="11" font-weight="bold" fill="#fff">패턴 6</text>
<text x="180" y="38" text-anchor="middle" font-size="8" fill="#94a3b8">데이터레이크</text>
<text x="280" y="38" text-anchor="middle" font-size="8" fill="#94a3b8">멀티계정</text>
<text x="380" y="38" text-anchor="middle" font-size="8" fill="#94a3b8">연합분석</text>
<text x="480" y="38" text-anchor="middle" font-size="8" fill="#94a3b8">마켓플레이스</text>
<text x="580" y="38" text-anchor="middle" font-size="8" fill="#94a3b8">글로벌복제</text>
<text x="680" y="38" text-anchor="middle" font-size="8" fill="#94a3b8">이벤트기반</text>
<rect x="10" y="62" width="730" height="30" rx="0" fill="#f8fafc" stroke="#e2e8f0" stroke-width="0.5"/>
<text x="70" y="82" text-anchor="middle" font-size="11" font-weight="bold" fill="#334155">🔧 복잡도</text>
<rect x="140" y="67" width="80" height="20" rx="10" fill="#dcfce7" stroke="#86efac" stroke-width="0.5"/><text x="180" y="81" text-anchor="middle" font-size="10" fill="#166534">낮음</text>
<rect x="240" y="67" width="80" height="20" rx="10" fill="#fef9c3" stroke="#fde047" stroke-width="0.5"/><text x="280" y="81" text-anchor="middle" font-size="10" fill="#854d0e">중간</text>
<rect x="340" y="67" width="80" height="20" rx="10" fill="#fee2e2" stroke="#fca5a5" stroke-width="0.5"/><text x="380" y="81" text-anchor="middle" font-size="10" fill="#991b1b">높음</text>
<rect x="440" y="67" width="80" height="20" rx="10" fill="#fef9c3" stroke="#fde047" stroke-width="0.5"/><text x="480" y="81" text-anchor="middle" font-size="10" fill="#854d0e">중간</text>
<rect x="540" y="67" width="80" height="20" rx="10" fill="#fee2e2" stroke="#fca5a5" stroke-width="0.5"/><text x="580" y="81" text-anchor="middle" font-size="10" fill="#991b1b">높음</text>
<rect x="640" y="67" width="80" height="20" rx="10" fill="#fef9c3" stroke="#fde047" stroke-width="0.5"/><text x="680" y="81" text-anchor="middle" font-size="10" fill="#854d0e">중간</text>
<rect x="10" y="94" width="730" height="30" rx="0" fill="#fff" stroke="#e2e8f0" stroke-width="0.5"/>
<text x="70" y="114" text-anchor="middle" font-size="11" font-weight="bold" fill="#334155">📍 데이터 위치</text>
<text x="180" y="114" text-anchor="middle" font-size="10" fill="#475569">중앙 집중</text>
<text x="280" y="114" text-anchor="middle" font-size="10" fill="#475569">중앙 집중</text>
<text x="380" y="114" text-anchor="middle" font-size="10" fill="#475569">분산 유지</text>
<text x="480" y="114" text-anchor="middle" font-size="10" fill="#475569">제공자 소유</text>
<text x="580" y="114" text-anchor="middle" font-size="10" fill="#475569">복제본 분산</text>
<text x="680" y="114" text-anchor="middle" font-size="10" fill="#475569">중앙 집중</text>
<rect x="10" y="126" width="730" height="30" rx="0" fill="#f8fafc" stroke="#e2e8f0" stroke-width="0.5"/>
<text x="70" y="146" text-anchor="middle" font-size="11" font-weight="bold" fill="#334155">🔒 보안</text>
<rect x="140" y="131" width="80" height="20" rx="10" fill="#fef9c3" stroke="#fde047" stroke-width="0.5"/><text x="180" y="145" text-anchor="middle" font-size="10" fill="#854d0e">중간</text>
<rect x="240" y="131" width="80" height="20" rx="10" fill="#dcfce7" stroke="#86efac" stroke-width="0.5"/><text x="280" y="145" text-anchor="middle" font-size="10" fill="#166534">높음</text>
<rect x="340" y="131" width="80" height="20" rx="10" fill="#dcfce7" stroke="#86efac" stroke-width="0.5"/><text x="380" y="145" text-anchor="middle" font-size="10" fill="#166534">매우높음</text>
<rect x="440" y="131" width="80" height="20" rx="10" fill="#dcfce7" stroke="#86efac" stroke-width="0.5"/><text x="480" y="145" text-anchor="middle" font-size="10" fill="#166534">높음</text>
<rect x="540" y="131" width="80" height="20" rx="10" fill="#dcfce7" stroke="#86efac" stroke-width="0.5"/><text x="580" y="145" text-anchor="middle" font-size="10" fill="#166534">높음</text>
<rect x="640" y="131" width="80" height="20" rx="10" fill="#fef9c3" stroke="#fde047" stroke-width="0.5"/><text x="680" y="145" text-anchor="middle" font-size="10" fill="#854d0e">중간</text>
<rect x="10" y="158" width="730" height="30" rx="0" fill="#fff" stroke="#e2e8f0" stroke-width="0.5"/>
<text x="70" y="178" text-anchor="middle" font-size="11" font-weight="bold" fill="#334155">💰 비용</text>
<rect x="140" y="163" width="80" height="20" rx="10" fill="#dcfce7" stroke="#86efac" stroke-width="0.5"/><text x="180" y="177" text-anchor="middle" font-size="10" fill="#166534">낮음</text>
<rect x="240" y="163" width="80" height="20" rx="10" fill="#fef9c3" stroke="#fde047" stroke-width="0.5"/><text x="280" y="177" text-anchor="middle" font-size="10" fill="#854d0e">중간</text>
<rect x="340" y="163" width="80" height="20" rx="10" fill="#fef9c3" stroke="#fde047" stroke-width="0.5"/><text x="380" y="177" text-anchor="middle" font-size="10" fill="#854d0e">중간</text>
<rect x="440" y="163" width="80" height="20" rx="10" fill="#fee2e2" stroke="#fca5a5" stroke-width="0.5"/><text x="480" y="177" text-anchor="middle" font-size="10" fill="#991b1b">높음</text>
<rect x="540" y="163" width="80" height="20" rx="10" fill="#fee2e2" stroke="#fca5a5" stroke-width="0.5"/><text x="580" y="177" text-anchor="middle" font-size="10" fill="#991b1b">매우높음</text>
<rect x="640" y="163" width="80" height="20" rx="10" fill="#dcfce7" stroke="#86efac" stroke-width="0.5"/><text x="680" y="177" text-anchor="middle" font-size="10" fill="#166534">낮음</text>
<rect x="10" y="190" width="730" height="30" rx="0" fill="#f8fafc" stroke="#e2e8f0" stroke-width="0.5"/>
<text x="70" y="210" text-anchor="middle" font-size="11" font-weight="bold" fill="#334155">⚡ 지연</text>
<rect x="140" y="195" width="80" height="20" rx="10" fill="#fef9c3" stroke="#fde047" stroke-width="0.5"/><text x="180" y="209" text-anchor="middle" font-size="10" fill="#854d0e">중간</text>
<rect x="240" y="195" width="80" height="20" rx="10" fill="#dcfce7" stroke="#86efac" stroke-width="0.5"/><text x="280" y="209" text-anchor="middle" font-size="10" fill="#166534">낮음</text>
<rect x="340" y="195" width="80" height="20" rx="10" fill="#fee2e2" stroke="#fca5a5" stroke-width="0.5"/><text x="380" y="209" text-anchor="middle" font-size="10" fill="#991b1b">높음</text>
<rect x="440" y="195" width="80" height="20" rx="10" fill="#dcfce7" stroke="#86efac" stroke-width="0.5"/><text x="480" y="209" text-anchor="middle" font-size="10" fill="#166534">낮음</text>
<rect x="540" y="195" width="80" height="20" rx="10" fill="#dcfce7" stroke="#86efac" stroke-width="0.5"/><text x="580" y="209" text-anchor="middle" font-size="10" fill="#166534">매우낮음</text>
<rect x="640" y="195" width="80" height="20" rx="10" fill="#dcfce7" stroke="#86efac" stroke-width="0.5"/><text x="680" y="209" text-anchor="middle" font-size="10" fill="#166534">낮음</text>
<rect x="10" y="222" width="730" height="30" rx="0" fill="#fff" stroke="#e2e8f0" stroke-width="0.5"/>
<text x="70" y="242" text-anchor="middle" font-size="11" font-weight="bold" fill="#334155">📈 확장성</text>
<rect x="140" y="227" width="80" height="20" rx="10" fill="#dcfce7" stroke="#86efac" stroke-width="0.5"/><text x="180" y="241" text-anchor="middle" font-size="10" fill="#166534">높음</text>
<rect x="240" y="227" width="80" height="20" rx="10" fill="#dcfce7" stroke="#86efac" stroke-width="0.5"/><text x="280" y="241" text-anchor="middle" font-size="10" fill="#166534">매우높음</text>
<rect x="340" y="227" width="80" height="20" rx="10" fill="#dcfce7" stroke="#86efac" stroke-width="0.5"/><text x="380" y="241" text-anchor="middle" font-size="10" fill="#166534">높음</text>
<rect x="440" y="227" width="80" height="20" rx="10" fill="#dcfce7" stroke="#86efac" stroke-width="0.5"/><text x="480" y="241" text-anchor="middle" font-size="10" fill="#166534">높음</text>
<rect x="540" y="227" width="80" height="20" rx="10" fill="#dcfce7" stroke="#86efac" stroke-width="0.5"/><text x="580" y="241" text-anchor="middle" font-size="10" fill="#166534">매우높음</text>
<rect x="640" y="227" width="80" height="20" rx="10" fill="#dcfce7" stroke="#86efac" stroke-width="0.5"/><text x="680" y="241" text-anchor="middle" font-size="10" fill="#166534">매우높음</text>
<rect x="10" y="254" width="730" height="40" rx="0" fill="#f0f9ff" stroke="#e2e8f0" stroke-width="0.5"/>
<text x="70" y="278" text-anchor="middle" font-size="11" font-weight="bold" fill="#334155">🎯 권장 대상</text>
<text x="180" y="272" text-anchor="middle" font-size="9" fill="#475569">소규모</text>
<text x="180" y="285" text-anchor="middle" font-size="9" fill="#475569">팀/부서</text>
<text x="280" y="272" text-anchor="middle" font-size="9" fill="#475569">중대형</text>
<text x="280" y="285" text-anchor="middle" font-size="9" fill="#475569">기업</text>
<text x="380" y="272" text-anchor="middle" font-size="9" fill="#475569">규제</text>
<text x="380" y="285" text-anchor="middle" font-size="9" fill="#475569">산업</text>
<text x="480" y="272" text-anchor="middle" font-size="9" fill="#475569">데이터</text>
<text x="480" y="285" text-anchor="middle" font-size="9" fill="#475569">비즈니스</text>
<text x="580" y="272" text-anchor="middle" font-size="9" fill="#475569">글로벌</text>
<text x="580" y="285" text-anchor="middle" font-size="9" fill="#475569">서비스</text>
<text x="680" y="272" text-anchor="middle" font-size="9" fill="#475569">실시간</text>
<text x="680" y="285" text-anchor="middle" font-size="9" fill="#475569">파이프라인</text>
</svg>