<?xml version="1.0" encoding="UTF-8"?>
<svg viewBox="0 0 720 520" xmlns="http://www.w3.org/2000/svg">
<defs>
<filter id="sh" x="-4%" y="-4%" width="108%" height="108%"><feDropShadow dx="1" dy="2" stdDeviation="3" flood-opacity="0.1"/></filter>
<marker id="ar" viewBox="0 0 10 10" refX="9" refY="5" markerWidth="6" markerHeight="6" orient="auto-start-reverse"><path d="M 0 0 L 10 5 L 0 10 z" fill="#546e7a"/></marker>
</defs>
<style>text{font-family:'Segoe UI',system-ui,sans-serif}</style>
<text x="360" y="22" text-anchor="middle" font-size="14" font-weight="bold" fill="#1e293b">🗺️ 아키텍처 패턴 선택 가이드</text>
<text x="360" y="42" text-anchor="middle" font-size="11" fill="#64748b">의사결정 트리</text>
<line x1="360" y1="52" x2="360" y2="68" stroke="#546e7a" stroke-width="1.5" marker-end="url(#ar)"/>
<text x="360" y="64" text-anchor="middle" font-size="10" fill="#94a3b8">시작</text>
<rect x="270" y="70" width="180" height="44" rx="10" fill="#fce4ec" stroke="#ef4444" stroke-width="1.5" filter="url(#sh)"/>
<text x="360" y="89" text-anchor="middle" font-size="12" font-weight="bold" fill="#b91c1c">💰 데이터를 판매?</text>
<text x="360" y="104" text-anchor="middle" font-size="10" fill="#dc2626">(상업적 공유)</text>
<line x1="450" y1="92" x2="510" y2="92" stroke="#546e7a" stroke-width="1.5" marker-end="url(#ar)"/>
<text x="475" y="86" text-anchor="middle" font-size="10" fill="#16a34a" font-weight="bold">Yes</text>
<rect x="512" y="74" width="170" height="36" rx="8" fill="#e8f5e9" stroke="#22c55e" stroke-width="1.5" filter="url(#sh)"/>
<text x="597" y="97" text-anchor="middle" font-size="11" font-weight="bold" fill="#15803d">→ 패턴 4 마켓플레이스</text>
<line x1="360" y1="114" x2="360" y2="140" stroke="#546e7a" stroke-width="1.5"/>
<text x="342" y="130" text-anchor="end" font-size="10" fill="#dc2626" font-weight="bold">No</text>
<rect x="270" y="142" width="180" height="40" rx="10" fill="#fce4ec" stroke="#ef4444" stroke-width="1.5" filter="url(#sh)"/>
<text x="360" y="167" text-anchor="middle" font-size="12" font-weight="bold" fill="#b91c1c">🌐 글로벌 서비스?</text>
<line x1="450" y1="162" x2="510" y2="162" stroke="#546e7a" stroke-width="1.5" marker-end="url(#ar)"/>
<text x="475" y="156" text-anchor="middle" font-size="10" fill="#16a34a" font-weight="bold">Yes</text>
<rect x="512" y="144" width="170" height="36" rx="8" fill="#e8f5e9" stroke="#22c55e" stroke-width="1.5" filter="url(#sh)"/>
<text x="597" y="167" text-anchor="middle" font-size="11" font-weight="bold" fill="#15803d">→ 패턴 5 글로벌 복제</text>
<line x1="360" y1="182" x2="360" y2="208" stroke="#546e7a" stroke-width="1.5"/>
<text x="342" y="198" text-anchor="end" font-size="10" fill="#dc2626" font-weight="bold">No</text>
<rect x="270" y="210" width="180" height="44" rx="10" fill="#fce4ec" stroke="#ef4444" stroke-width="1.5" filter="url(#sh)"/>
<text x="360" y="229" text-anchor="middle" font-size="12" font-weight="bold" fill="#b91c1c">🔒 데이터 이동 불가?</text>
<text x="360" y="244" text-anchor="middle" font-size="10" fill="#dc2626">(규제 제약)</text>
<line x1="450" y1="232" x2="510" y2="232" stroke="#546e7a" stroke-width="1.5" marker-end="url(#ar)"/>
<text x="475" y="226" text-anchor="middle" font-size="10" fill="#16a34a" font-weight="bold">Yes</text>
<rect x="512" y="214" width="170" height="36" rx="8" fill="#e8f5e9" stroke="#22c55e" stroke-width="1.5" filter="url(#sh)"/>
<text x="597" y="237" text-anchor="middle" font-size="11" font-weight="bold" fill="#15803d">→ 패턴 3 연합 분석</text>
<line x1="360" y1="254" x2="360" y2="280" stroke="#546e7a" stroke-width="1.5"/>
<text x="342" y="270" text-anchor="end" font-size="10" fill="#dc2626" font-weight="bold">No</text>
<rect x="270" y="282" width="180" height="40" rx="10" fill="#fce4ec" stroke="#ef4444" stroke-width="1.5" filter="url(#sh)"/>
<text x="360" y="307" text-anchor="middle" font-size="12" font-weight="bold" fill="#b91c1c">⚡ 실시간 처리 필요?</text>
<line x1="450" y1="302" x2="510" y2="302" stroke="#546e7a" stroke-width="1.5" marker-end="url(#ar)"/>
<text x="475" y="296" text-anchor="middle" font-size="10" fill="#16a34a" font-weight="bold">Yes</text>
<rect x="512" y="284" width="170" height="36" rx="8" fill="#e8f5e9" stroke="#22c55e" stroke-width="1.5" filter="url(#sh)"/>
<text x="597" y="307" text-anchor="middle" font-size="11" font-weight="bold" fill="#15803d">→ 패턴 6 이벤트 기반</text>
<line x1="360" y1="322" x2="360" y2="348" stroke="#546e7a" stroke-width="1.5"/>
<text x="342" y="338" text-anchor="end" font-size="10" fill="#dc2626" font-weight="bold">No</text>
<rect x="270" y="350" width="180" height="40" rx="10" fill="#fce4ec" stroke="#ef4444" stroke-width="1.5" filter="url(#sh)"/>
<text x="360" y="375" text-anchor="middle" font-size="12" font-weight="bold" fill="#b91c1c">👥 멀티 팀/부서?</text>
<line x1="360" y1="390" x2="360" y2="420" stroke="#546e7a" stroke-width="1.5"/>
<line x1="270" y1="420" x2="460" y2="420" stroke="#546e7a" stroke-width="1.5"/>
<line x1="270" y1="420" x2="270" y2="445" stroke="#546e7a" stroke-width="1.5" marker-end="url(#ar)"/>
<line x1="460" y1="420" x2="460" y2="445" stroke="#546e7a" stroke-width="1.5" marker-end="url(#ar)"/>
<text x="252" y="412" text-anchor="end" font-size="10" fill="#16a34a" font-weight="bold">Yes</text>
<text x="478" y="412" text-anchor="start" font-size="10" fill="#dc2626" font-weight="bold">No</text>
<rect x="175" y="448" width="190" height="44" rx="8" fill="#e8f5e9" stroke="#22c55e" stroke-width="1.5" filter="url(#sh)"/>
<text x="270" y="467" text-anchor="middle" font-size="12" font-weight="bold" fill="#15803d">→ 패턴 2</text>
<text x="270" y="483" text-anchor="middle" font-size="11" fill="#166534">🏗️ 멀티 계정 데이터 허브</text>
<rect x="365" y="448" width="190" height="44" rx="8" fill="#e8f5e9" stroke="#22c55e" stroke-width="1.5" filter="url(#sh)"/>
<text x="460" y="467" text-anchor="middle" font-size="12" font-weight="bold" fill="#15803d">→ 패턴 1</text>
<text x="460" y="483" text-anchor="middle" font-size="11" fill="#166534">🗄️ 데이터 레이크 공유</text>
</svg>