<?xml version="1.0" encoding="UTF-8"?>
<svg viewBox="0 0 720 350" xmlns="http://www.w3.org/2000/svg" font-family="system-ui,-apple-system,sans-serif">
<defs>
<filter id="ds"><feDropShadow dx="1" dy="2" stdDeviation="2" flood-opacity="0.1"/></filter>
<marker id="ah" markerWidth="10" markerHeight="7" refX="9" refY="3.5" orient="auto"><polygon points="0 0,10 3.5,0 7" fill="#546e7a"/></marker>
</defs>
<text x="360" y="24" text-anchor="middle" font-size="14" font-weight="bold" fill="#1e293b">🔗 RDS Proxy 커넥션 풀링</text>
<text x="360" y="48" text-anchor="middle" font-size="11" fill="#64748b">Lambda 함수들 (수백~수천)</text>
<rect x="48" y="60" width="95" height="40" rx="6" fill="#e0f2fe" stroke="#0284c7" stroke-width="1.2" filter="url(#ds)"/>
<text x="95" y="84" text-anchor="middle" font-size="10" fill="#0284c7">λ Lambda</text>
<rect x="168" y="60" width="95" height="40" rx="6" fill="#e0f2fe" stroke="#0284c7" stroke-width="1.2" filter="url(#ds)"/>
<text x="215" y="84" text-anchor="middle" font-size="10" fill="#0284c7">λ Lambda</text>
<rect x="288" y="60" width="95" height="40" rx="6" fill="#e0f2fe" stroke="#0284c7" stroke-width="1.2" filter="url(#ds)"/>
<text x="335" y="84" text-anchor="middle" font-size="10" fill="#0284c7">λ Lambda</text>
<rect x="408" y="60" width="95" height="40" rx="6" fill="#e0f2fe" stroke="#0284c7" stroke-width="1.2" filter="url(#ds)"/>
<text x="455" y="84" text-anchor="middle" font-size="10" fill="#0284c7">λ Lambda</text>
<rect x="528" y="60" width="95" height="40" rx="6" fill="#e0f2fe" stroke="#0284c7" stroke-width="1.2" filter="url(#ds)"/>
<text x="575" y="84" text-anchor="middle" font-size="10" fill="#0284c7">λ Lambda</text>
<line x1="95" y1="100" x2="95" y2="128" stroke="#546e7a" stroke-width="1.2" marker-end="url(#ah)"/>
<line x1="215" y1="100" x2="215" y2="128" stroke="#546e7a" stroke-width="1.2" marker-end="url(#ah)"/>
<line x1="335" y1="100" x2="335" y2="128" stroke="#546e7a" stroke-width="1.2" marker-end="url(#ah)"/>
<line x1="455" y1="100" x2="455" y2="128" stroke="#546e7a" stroke-width="1.2" marker-end="url(#ah)"/>
<line x1="575" y1="100" x2="575" y2="128" stroke="#546e7a" stroke-width="1.2" marker-end="url(#ah)"/>
<rect x="50" y="130" width="620" height="115" rx="10" fill="#f3e8ff" stroke="#8b5cf6" stroke-width="1.5" filter="url(#ds)"/>
<text x="360" y="155" text-anchor="middle" font-size="13" font-weight="bold" fill="#8b5cf6">🛡 RDS Proxy (커넥션 풀링)</text>
<rect x="100" y="170" width="80" height="35" rx="5" fill="#ffffff" stroke="#8b5cf6" stroke-width="1"/>
<text x="140" y="192" text-anchor="middle" font-size="10" font-weight="bold" fill="#8b5cf6">C1</text>
<rect x="200" y="170" width="80" height="35" rx="5" fill="#ffffff" stroke="#8b5cf6" stroke-width="1"/>
<text x="240" y="192" text-anchor="middle" font-size="10" font-weight="bold" fill="#8b5cf6">C2</text>
<rect x="300" y="170" width="80" height="35" rx="5" fill="#ffffff" stroke="#8b5cf6" stroke-width="1"/>
<text x="340" y="192" text-anchor="middle" font-size="10" font-weight="bold" fill="#8b5cf6">C3</text>
<text x="530" y="192" text-anchor="middle" font-size="10" fill="#64748b">← 유지되는 연결 풀</text>
<line x1="360" y1="245" x2="360" y2="275" stroke="#546e7a" stroke-width="1.5" marker-end="url(#ah)"/>
<rect x="180" y="278" width="360" height="50" rx="10" fill="#fff3e0" stroke="#f59e0b" stroke-width="1.5" filter="url(#ds)"/>
<text x="360" y="300" text-anchor="middle" font-size="13" font-weight="bold" fill="#f59e0b">🗄 RDS 인스턴스</text>
<text x="360" y="318" text-anchor="middle" font-size="10" fill="#64748b">연결 수 제한 완화</text>
</svg>