<?xml version="1.0" encoding="UTF-8"?>
<svg viewBox="0 0 720 430" xmlns="http://www.w3.org/2000/svg">
<defs>
<filter id="ds" x="-2%" y="-2%" width="104%" height="104%"><feDropShadow dx="1" dy="1" stdDeviation="2" flood-opacity="0.15"/></filter>
<marker id="ah" viewBox="0 0 10 10" refX="9" refY="5" markerWidth="6" markerHeight="6" orient="auto"><path d="M0 0L10 5L0 10z" fill="#546e7a"/></marker>
</defs>
<rect x="220" y="8" width="250" height="42" rx="8" fill="#fff3e0" stroke="#f59e0b" stroke-width="1.5" filter="url(#ds)"/>
<text x="345" y="34" text-anchor="middle" font-size="13" font-weight="bold" font-family="sans-serif">🏢 AWS Organizations</text>
<rect x="30" y="80" width="260" height="145" rx="8" fill="#fce4ec" stroke="#ef4444" stroke-width="1.5" filter="url(#ds)"/>
<text x="160" y="102" text-anchor="middle" font-size="12" font-weight="bold" font-family="sans-serif">🔐 보안 계정 (Audit)</text>
<text x="50" y="128" font-size="10" fill="#555" font-family="sans-serif">📝 CloudTrail Org Trail → 중앙 S3</text>
<text x="50" y="148" font-size="10" fill="#555" font-family="sans-serif">📋 Config Aggregator → 통합 대시보드</text>
<text x="50" y="168" font-size="10" fill="#555" font-family="sans-serif">🏔️ CloudTrail Lake → 중앙 쿼리</text>
<text x="50" y="188" font-size="10" fill="#555" font-family="sans-serif">🔐 Security Hub → 통합 보안 뷰</text>
<text x="50" y="210" font-size="10" fill="#555" font-family="sans-serif">📊 CloudWatch → 실시간 경고</text>
<rect x="420" y="80" width="160" height="38" rx="8" fill="#e0f2fe" stroke="#0284c7" stroke-width="1.5" filter="url(#ds)"/>
<text x="500" y="104" text-anchor="middle" font-size="11" font-family="sans-serif">💻 개발 계정들</text>
<rect x="420" y="130" width="160" height="38" rx="8" fill="#e0f2fe" stroke="#0284c7" stroke-width="1.5" filter="url(#ds)"/>
<text x="500" y="154" text-anchor="middle" font-size="11" font-family="sans-serif">🧪 스테이징 계정</text>
<rect x="420" y="180" width="160" height="38" rx="8" fill="#e0f2fe" stroke="#0284c7" stroke-width="1.5" filter="url(#ds)"/>
<text x="500" y="204" text-anchor="middle" font-size="11" font-family="sans-serif">🚀 프로덕션 계정</text>
<line x1="420" y1="99" x2="290" y2="140" stroke="#546e7a" stroke-width="1.2"/>
<line x1="420" y1="149" x2="290" y2="155" stroke="#546e7a" stroke-width="1.2"/>
<line x1="420" y1="199" x2="290" y2="170" stroke="#546e7a" stroke-width="1.2"/>
<text x="355" y="132" text-anchor="middle" font-size="9" fill="#546e7a" font-family="sans-serif">Config 데이터</text>
<text x="355" y="175" text-anchor="middle" font-size="9" fill="#546e7a" font-family="sans-serif">CloudTrail 로그</text>
<rect x="30" y="260" width="660" height="140" rx="8" fill="none" stroke="#f59e0b" stroke-width="1.5" stroke-dasharray="5,3"/>
<text x="360" y="285" text-anchor="middle" font-size="12" font-weight="bold" fill="#f59e0b" font-family="sans-serif">📊 중앙 감사 데이터 흐름</text>
<rect x="60" y="300" width="140" height="38" rx="8" fill="#fff3e0" stroke="#f59e0b" stroke-width="1.5" filter="url(#ds)"/>
<text x="130" y="324" text-anchor="middle" font-size="10" font-weight="bold" font-family="sans-serif">📝 CloudTrail</text>
<line x1="200" y1="319" x2="250" y2="319" stroke="#546e7a" stroke-width="1.2" marker-end="url(#ah)"/>
<rect x="253" y="300" width="140" height="38" rx="8" fill="#e8f5e9" stroke="#22c55e" stroke-width="1.5" filter="url(#ds)"/>
<text x="323" y="324" text-anchor="middle" font-size="10" font-weight="bold" font-family="sans-serif">🗄️ 중앙 S3</text>
<line x1="393" y1="319" x2="440" y2="319" stroke="#546e7a" stroke-width="1.2" marker-end="url(#ah)"/>
<rect x="443" y="300" width="140" height="38" rx="8" fill="#fce4ec" stroke="#ef4444" stroke-width="1.5" filter="url(#ds)"/>
<text x="513" y="324" text-anchor="middle" font-size="10" font-weight="bold" font-family="sans-serif">📋 Config Aggr.</text>
<line x1="513" y1="338" x2="513" y2="358" stroke="#546e7a" stroke-width="1.2" marker-end="url(#ah)"/>
<text x="360" y="385" text-anchor="middle" font-size="11" fill="#546e7a" font-family="sans-serif">통합 감사 · 규정 준수 · 보안 모니터링</text>
</svg>