<?xml version="1.0" encoding="UTF-8"?>
<svg viewBox="0 0 720 280" xmlns="http://www.w3.org/2000/svg">
<defs>
<filter id="ds" x="-2%" y="-2%" width="104%" height="104%"><feDropShadow dx="1" dy="1" stdDeviation="2" flood-opacity="0.15"/></filter>
<marker id="ah" viewBox="0 0 10 10" refX="9" refY="5" markerWidth="6" markerHeight="6" orient="auto"><path d="M0 0L10 5L0 10z" fill="#546e7a"/></marker>
</defs>
<rect x="20" y="15" width="200" height="42" rx="8" fill="#fff3e0" stroke="#f59e0b" stroke-width="1.5" filter="url(#ds)"/>
<text x="120" y="41" text-anchor="middle" font-size="13" font-weight="bold" font-family="sans-serif">🏢 AWS Organizations</text>
<rect x="30" y="85" width="160" height="38" rx="8" fill="#fce4ec" stroke="#ef4444" stroke-width="1.5" filter="url(#ds)"/>
<text x="110" y="109" text-anchor="middle" font-size="11" font-weight="bold" font-family="sans-serif">🔑 관리 계정</text>
<line x1="190" y1="104" x2="280" y2="104" stroke="#546e7a" stroke-width="1.5" marker-end="url(#ah)"/>
<rect x="283" y="80" width="175" height="48" rx="8" fill="#fff3e0" stroke="#f59e0b" stroke-width="1.5" filter="url(#ds)"/>
<text x="370" y="100" text-anchor="middle" font-size="11" font-weight="bold" font-family="sans-serif">📝 Organization Trail</text>
<text x="370" y="116" text-anchor="middle" font-size="10" fill="#555" font-family="sans-serif">조직 전체 추적</text>
<rect x="30" y="140" width="160" height="32" rx="8" fill="#e0f2fe" stroke="#0284c7" stroke-width="1.5" filter="url(#ds)"/>
<text x="110" y="161" text-anchor="middle" font-size="11" font-family="sans-serif">👤 멤버 계정 A</text>
<rect x="30" y="182" width="160" height="32" rx="8" fill="#e0f2fe" stroke="#0284c7" stroke-width="1.5" filter="url(#ds)"/>
<text x="110" y="203" text-anchor="middle" font-size="11" font-family="sans-serif">👤 멤버 계정 B</text>
<rect x="30" y="224" width="160" height="32" rx="8" fill="#e0f2fe" stroke="#0284c7" stroke-width="1.5" filter="url(#ds)"/>
<text x="110" y="245" text-anchor="middle" font-size="11" font-family="sans-serif">👤 멤버 계정 C</text>
<line x1="190" y1="156" x2="500" y2="170" stroke="#546e7a" stroke-width="1.2"/>
<line x1="190" y1="198" x2="500" y2="180" stroke="#546e7a" stroke-width="1.2"/>
<line x1="190" y1="240" x2="500" y2="190" stroke="#546e7a" stroke-width="1.2"/>
<line x1="458" y1="104" x2="500" y2="140" stroke="#546e7a" stroke-width="1.5" marker-end="url(#ah)"/>
<rect x="503" y="145" width="195" height="50" rx="8" fill="#e8f5e9" stroke="#22c55e" stroke-width="1.5" filter="url(#ds)"/>
<text x="600" y="166" text-anchor="middle" font-size="12" font-weight="bold" font-family="sans-serif">🗄️ 중앙 S3 버킷</text>
<text x="600" y="183" text-anchor="middle" font-size="10" fill="#555" font-family="sans-serif">모든 로그 집중</text>
<text x="370" y="268" text-anchor="middle" font-size="11" fill="#546e7a" font-family="sans-serif">모든 계정 로그 → 중앙 S3 버킷</text>
</svg>