<?xml version="1.0" encoding="UTF-8"?>
<svg viewBox="0 0 720 560" xmlns="http://www.w3.org/2000/svg">
<defs>
<filter id="ds" x="-2%" y="-2%" width="104%" height="104%"><feDropShadow dx="1" dy="1" stdDeviation="2" flood-opacity="0.15"/></filter>
<marker id="ah" viewBox="0 0 10 10" refX="9" refY="5" markerWidth="6" markerHeight="6" orient="auto"><path d="M0 0L10 5L0 10z" fill="#546e7a"/></marker>
</defs>
<rect x="240" y="8" width="220" height="42" rx="8" fill="#fff3e0" stroke="#f59e0b" stroke-width="1.5" filter="url(#ds)"/>
<text x="350" y="34" text-anchor="middle" font-size="13" font-weight="bold" font-family="sans-serif">☁️ AWS 환경</text>
<rect x="20" y="72" width="120" height="35" rx="8" fill="#e0f2fe" stroke="#0284c7" stroke-width="1.5" filter="url(#ds)"/>
<text x="80" y="94" text-anchor="middle" font-size="11" font-family="sans-serif">API 호출</text>
<line x1="140" y1="89" x2="172" y2="89" stroke="#546e7a" stroke-width="1.5" marker-end="url(#ah)"/>
<rect x="175" y="68" width="130" height="42" rx="8" fill="#fff3e0" stroke="#f59e0b" stroke-width="1.5" filter="url(#ds)"/>
<text x="240" y="86" text-anchor="middle" font-size="11" font-weight="bold" font-family="sans-serif">📝 CloudTrail</text>
<text x="240" y="101" text-anchor="middle" font-size="9" fill="#555" font-family="sans-serif">API 로깅</text>
<line x1="305" y1="89" x2="382" y2="89" stroke="#546e7a" stroke-width="1.5" marker-end="url(#ah)"/>
<rect x="385" y="68" width="140" height="42" rx="8" fill="#e8f5e9" stroke="#22c55e" stroke-width="1.5" filter="url(#ds)"/>
<text x="455" y="86" text-anchor="middle" font-size="11" font-weight="bold" font-family="sans-serif">🗄️ S3</text>
<text x="455" y="101" text-anchor="middle" font-size="9" fill="#555" font-family="sans-serif">로그 저장</text>
<line x1="455" y1="110" x2="455" y2="138" stroke="#546e7a" stroke-width="1.5" marker-end="url(#ah)"/>
<rect x="375" y="141" width="160" height="42" rx="8" fill="#fff3e0" stroke="#f59e0b" stroke-width="1.5" filter="url(#ds)"/>
<text x="455" y="159" text-anchor="middle" font-size="11" font-weight="bold" font-family="sans-serif">🏔️ CloudTrail Lake</text>
<text x="455" y="174" text-anchor="middle" font-size="9" fill="#555" font-family="sans-serif">SQL 쿼리 분석</text>
<text x="570" y="165" font-size="10" fill="#546e7a" font-style="italic" font-family="sans-serif">← SQL 쿼리</text>
<line x1="455" y1="183" x2="455" y2="213" stroke="#546e7a" stroke-width="1.5" marker-end="url(#ah)"/>
<rect x="375" y="216" width="160" height="42" rx="8" fill="#f3e8ff" stroke="#8b5cf6" stroke-width="1.5" filter="url(#ds)"/>
<text x="455" y="234" text-anchor="middle" font-size="11" font-weight="bold" font-family="sans-serif">🔗 EventBridge</text>
<text x="455" y="249" text-anchor="middle" font-size="9" fill="#555" font-family="sans-serif">이벤트 라우팅</text>
<line x1="535" y1="237" x2="587" y2="237" stroke="#546e7a" stroke-width="1.5" marker-end="url(#ah)"/>
<rect x="590" y="216" width="120" height="42" rx="8" fill="#fff3e0" stroke="#f59e0b" stroke-width="1.5" filter="url(#ds)"/>
<text x="650" y="234" text-anchor="middle" font-size="11" font-weight="bold" font-family="sans-serif">⚡ Lambda</text>
<text x="650" y="249" text-anchor="middle" font-size="9" fill="#555" font-family="sans-serif">경고</text>
<line x1="650" y1="258" x2="650" y2="288" stroke="#546e7a" stroke-width="1.5" marker-end="url(#ah)"/>
<rect x="590" y="291" width="120" height="38" rx="8" fill="#fff3e0" stroke="#f59e0b" stroke-width="1.5" filter="url(#ds)"/>
<text x="650" y="315" text-anchor="middle" font-size="11" font-weight="bold" font-family="sans-serif">📧 SNS</text>
<line x1="455" y1="258" x2="455" y2="295" stroke="#546e7a" stroke-width="1.5" marker-end="url(#ah)"/>
<rect x="375" y="298" width="160" height="38" rx="8" fill="#fff3e0" stroke="#f59e0b" stroke-width="1.5" filter="url(#ds)"/>
<text x="455" y="322" text-anchor="middle" font-size="11" font-weight="bold" font-family="sans-serif">📊 CloudWatch</text>
<rect x="20" y="130" width="120" height="35" rx="8" fill="#e0f2fe" stroke="#0284c7" stroke-width="1.5" filter="url(#ds)"/>
<text x="80" y="152" text-anchor="middle" font-size="11" font-family="sans-serif">리소스 변경</text>
<line x1="140" y1="148" x2="172" y2="148" stroke="#546e7a" stroke-width="1.5" marker-end="url(#ah)"/>
<rect x="175" y="126" width="130" height="42" rx="8" fill="#fce4ec" stroke="#ef4444" stroke-width="1.5" filter="url(#ds)"/>
<text x="240" y="144" text-anchor="middle" font-size="11" font-weight="bold" font-family="sans-serif">⚙️ Config</text>
<text x="240" y="159" text-anchor="middle" font-size="9" fill="#555" font-family="sans-serif">구성 추적</text>
<line x1="240" y1="168" x2="240" y2="200" stroke="#546e7a" stroke-width="1.5" marker-end="url(#ah)"/>
<rect x="160" y="203" width="160" height="42" rx="8" fill="#fce4ec" stroke="#ef4444" stroke-width="1.5" filter="url(#ds)"/>
<text x="240" y="221" text-anchor="middle" font-size="11" font-weight="bold" font-family="sans-serif">📋 규칙 평가</text>
<text x="240" y="236" text-anchor="middle" font-size="9" fill="#555" font-family="sans-serif">준수 여부 확인</text>
<line x1="200" y1="245" x2="130" y2="285" stroke="#546e7a" stroke-width="1.5" marker-end="url(#ah)"/>
<line x1="280" y1="245" x2="350" y2="285" stroke="#546e7a" stroke-width="1.5" marker-end="url(#ah)"/>
<rect x="55" y="288" width="110" height="38" rx="8" fill="#e8f5e9" stroke="#22c55e" stroke-width="1.5" filter="url(#ds)"/>
<text x="110" y="312" text-anchor="middle" font-size="12" font-weight="bold" font-family="sans-serif">✅ 준수</text>
<rect x="310" y="288" width="110" height="38" rx="8" fill="#fce4ec" stroke="#ef4444" stroke-width="1.5" filter="url(#ds)"/>
<text x="365" y="312" text-anchor="middle" font-size="12" font-weight="bold" font-family="sans-serif">❌ 위반</text>
<line x1="365" y1="326" x2="365" y2="365" stroke="#546e7a" stroke-width="1.5" marker-end="url(#ah)"/>
<rect x="275" y="368" width="180" height="42" rx="8" fill="#fce4ec" stroke="#ef4444" stroke-width="1.5" filter="url(#ds)"/>
<text x="365" y="386" text-anchor="middle" font-size="11" font-weight="bold" font-family="sans-serif">🔧 Remediation</text>
<text x="365" y="401" text-anchor="middle" font-size="9" fill="#555" font-family="sans-serif">자동 수정</text>
<line x1="365" y1="410" x2="365" y2="445" stroke="#546e7a" stroke-width="1.5" marker-end="url(#ah)"/>
<rect x="275" y="448" width="180" height="42" rx="8" fill="#fff3e0" stroke="#f59e0b" stroke-width="1.5" filter="url(#ds)"/>
<text x="365" y="466" text-anchor="middle" font-size="11" font-weight="bold" font-family="sans-serif">🤖 SSM Automation</text>
<text x="365" y="481" text-anchor="middle" font-size="9" fill="#555" font-family="sans-serif">자동화 실행</text>
<text x="360" y="530" text-anchor="middle" font-size="11" fill="#546e7a" font-style="italic" font-family="sans-serif">CloudTrail(누가) + Config(무엇) → 포괄적 감사 체계</text>
</svg>