<?xml version="1.0" encoding="UTF-8"?>
<svg viewBox="0 0 720 520" xmlns="http://www.w3.org/2000/svg">
<defs>
<filter id="ds" x="-2%" y="-2%" width="104%" height="104%"><feDropShadow dx="1" dy="1" stdDeviation="2" flood-opacity="0.15"/></filter>
<marker id="ah" viewBox="0 0 10 10" refX="9" refY="5" markerWidth="6" markerHeight="6" orient="auto"><path d="M0 0L10 5L0 10z" fill="#546e7a"/></marker>
</defs>
<rect x="100" y="10" width="200" height="42" rx="8" fill="#fce4ec" stroke="#ef4444" stroke-width="1.5" filter="url(#ds)"/>
<text x="200" y="36" text-anchor="middle" font-size="12" font-weight="bold" font-family="sans-serif">🚨 보안 사고 탐지</text>
<line x1="200" y1="52" x2="200" y2="80" stroke="#546e7a" stroke-width="1.5" marker-end="url(#ah)"/>
<rect x="100" y="83" width="200" height="42" rx="8" fill="#fff3e0" stroke="#f59e0b" stroke-width="1.5" filter="url(#ds)"/>
<text x="200" y="101" text-anchor="middle" font-size="11" font-weight="bold" font-family="sans-serif">🏔️ CloudTrail Lake</text>
<text x="200" y="116" text-anchor="middle" font-size="9" fill="#555" font-family="sans-serif">SQL 쿼리로 타임라인 재구성</text>
<line x1="300" y1="104" x2="420" y2="104" stroke="#546e7a" stroke-width="1.2" marker-end="url(#ah)"/>
<text x="360" y="98" font-size="9" fill="#546e7a" font-family="sans-serif">SQL 쿼리</text>
<line x1="200" y1="125" x2="200" y2="155" stroke="#546e7a" stroke-width="1.5" marker-end="url(#ah)"/>
<rect x="100" y="158" width="200" height="42" rx="8" fill="#e8f5e9" stroke="#22c55e" stroke-width="1.5" filter="url(#ds)"/>
<text x="200" y="176" text-anchor="middle" font-size="11" font-weight="bold" font-family="sans-serif">🗄️ CloudTrail S3</text>
<text x="200" y="191" text-anchor="middle" font-size="9" fill="#555" font-family="sans-serif">Athena로 상세 분석</text>
<line x1="300" y1="179" x2="420" y2="179" stroke="#546e7a" stroke-width="1.2" marker-end="url(#ah)"/>
<text x="360" y="173" font-size="9" fill="#546e7a" font-family="sans-serif">Athena</text>
<line x1="200" y1="200" x2="200" y2="230" stroke="#546e7a" stroke-width="1.5" marker-end="url(#ah)"/>
<rect x="100" y="233" width="200" height="42" rx="8" fill="#fce4ec" stroke="#ef4444" stroke-width="1.5" filter="url(#ds)"/>
<text x="200" y="251" text-anchor="middle" font-size="11" font-weight="bold" font-family="sans-serif">📋 Config 타임라인</text>
<text x="200" y="266" text-anchor="middle" font-size="9" fill="#555" font-family="sans-serif">리소스 변경 이력 조회</text>
<line x1="300" y1="254" x2="420" y2="254" stroke="#546e7a" stroke-width="1.2" marker-end="url(#ah)"/>
<text x="360" y="248" font-size="9" fill="#546e7a" font-family="sans-serif">변경 이력</text>
<line x1="200" y1="275" x2="200" y2="305" stroke="#546e7a" stroke-width="1.5" marker-end="url(#ah)"/>
<rect x="100" y="308" width="200" height="42" rx="8" fill="#fce4ec" stroke="#ef4444" stroke-width="1.5" filter="url(#ds)"/>
<text x="200" y="326" text-anchor="middle" font-size="11" font-weight="bold" font-family="sans-serif">🛡️ GuardDuty</text>
<text x="200" y="341" text-anchor="middle" font-size="9" fill="#555" font-family="sans-serif">위협 인텔리전스 연동</text>
<line x1="300" y1="329" x2="420" y2="329" stroke="#546e7a" stroke-width="1.2" marker-end="url(#ah)"/>
<text x="360" y="323" font-size="9" fill="#546e7a" font-family="sans-serif">위협 정보</text>
<line x1="200" y1="350" x2="200" y2="380" stroke="#546e7a" stroke-width="1.5" marker-end="url(#ah)"/>
<rect x="100" y="383" width="200" height="42" rx="8" fill="#fce4ec" stroke="#ef4444" stroke-width="1.5" filter="url(#ds)"/>
<text x="200" y="401" text-anchor="middle" font-size="11" font-weight="bold" font-family="sans-serif">🔐 Security Hub</text>
<text x="200" y="416" text-anchor="middle" font-size="9" fill="#555" font-family="sans-serif">통합 보안 대시보드</text>
<line x1="300" y1="404" x2="420" y2="404" stroke="#546e7a" stroke-width="1.2" marker-end="url(#ah)"/>
<text x="360" y="398" font-size="9" fill="#546e7a" font-family="sans-serif">통합 뷰</text>
<line x1="200" y1="425" x2="200" y2="455" stroke="#546e7a" stroke-width="1.5" marker-end="url(#ah)"/>
<rect x="100" y="458" width="200" height="42" rx="8" fill="#e0f2fe" stroke="#0284c7" stroke-width="1.5" filter="url(#ds)"/>
<text x="200" y="476" text-anchor="middle" font-size="12" font-weight="bold" font-family="sans-serif">📄 포렌식 보고서 생성</text>
<rect x="440" y="83" width="170" height="380" rx="8" fill="none" stroke="#e2e8f0" stroke-width="1" stroke-dasharray="5,3"/>
<text x="525" y="105" text-anchor="middle" font-size="10" fill="#888" font-family="sans-serif">분석 도구</text>
</svg>