<svg xmlns="http://www.w3.org/2000/svg" viewBox="0 0 720 560" font-family="'Segoe UI','Noto Sans KR',system-ui,sans-serif">
  <defs>
    <marker id="ah" markerWidth="10" markerHeight="10" refX="8" refY="3" orient="auto" markerUnits="strokeWidth">
      <path d="M0,0 L0,6 L9,3 z" fill="#666"/>
    </marker>
  </defs>  <rect x="20" y="20" width="120" height="50" rx="10" fill="#f0f4f8" stroke="#4183c4" stroke-width="1.5"/>  <text x="80" y="42" font-size="12" fill="#4183c4" font-weight="bold" text-anchor="middle">사용자</text>  <text x="80" y="58" font-size="12" fill="#4183c4" font-weight="bold" text-anchor="middle">(브라우저)</text>  <line x1="80" y1="70" x2="80" y2="530" stroke="#ddd" stroke-width="1" stroke-dasharray="4,4"/>  <rect x="300" y="20" width="120" height="50" rx="10" fill="#f0f4f8" stroke="#4183c4" stroke-width="1.5"/>  <text x="360" y="42" font-size="12" fill="#4183c4" font-weight="bold" text-anchor="middle">Client</text>  <text x="360" y="58" font-size="12" fill="#4183c4" font-weight="bold" text-anchor="middle">(앱)</text>  <line x1="360" y1="70" x2="360" y2="530" stroke="#ddd" stroke-width="1" stroke-dasharray="4,4"/>  <rect x="580" y="20" width="120" height="50" rx="10" fill="#f0f4f8" stroke="#4183c4" stroke-width="1.5"/>  <text x="640" y="42" font-size="12" fill="#4183c4" font-weight="bold" text-anchor="middle">Auth Server</text>  <line x1="640" y1="70" x2="640" y2="530" stroke="#ddd" stroke-width="1" stroke-dasharray="4,4"/>  <line x1="90" y1="90" x2="350" y2="90" stroke="#4183c4" stroke-width="1.5" marker-end="url(#ah)"/>  <text x="220.0" y="82" font-size="9" fill="#4183c4" font-weight="normal" text-anchor="middle">"로그인" 클릭</text>  <line x1="350" y1="120" x2="90" y2="120" stroke="#555" stroke-width="1.5" marker-end="url(#ah)"/>  <text x="220.0" y="112" font-size="9" fill="#555" font-weight="normal" text-anchor="middle">인가 페이지로</text>  <text x="220.0" y="125" font-size="9" fill="#555" font-weight="normal" text-anchor="middle">리다이렉트</text>  <line x1="90" y1="150" x2="630" y2="150" stroke="#4183c4" stroke-width="1.5" marker-end="url(#ah)"/>  <text x="360.0" y="142" font-size="9" fill="#4183c4" font-weight="normal" text-anchor="middle">로그인 + 동의</text>  <line x1="630" y1="180" x2="90" y2="180" stroke="#555" stroke-width="1.5" marker-end="url(#ah)"/>  <text x="360.0" y="172" font-size="9" fill="#555" font-weight="normal" text-anchor="middle">동의 화면 표시</text>  <line x1="90" y1="220" x2="630" y2="220" stroke="#4183c4" stroke-width="1.5" marker-end="url(#ah)"/>  <text x="360.0" y="212" font-size="9" fill="#4183c4" font-weight="normal" text-anchor="middle">Authorization Code</text>  <text x="360.0" y="225" font-size="9" fill="#4183c4" font-weight="normal" text-anchor="middle">발급 (redirect)</text>  <line x1="370" y1="270" x2="630" y2="270" stroke="#4183c4" stroke-width="1.5" marker-end="url(#ah)"/>  <text x="500.0" y="262" font-size="9" fill="#4183c4" font-weight="normal" text-anchor="middle">코드 → 토큰 교환</text>  <text x="500.0" y="275" font-size="9" fill="#4183c4" font-weight="normal" text-anchor="middle">POST /token</text>  <line x1="630" y1="320" x2="370" y2="320" stroke="#3fb950" stroke-width="1.5" marker-end="url(#ah)"/>  <text x="500.0" y="312" font-size="9" fill="#3fb950" font-weight="normal" text-anchor="middle">Access Token</text>  <text x="500.0" y="325" font-size="9" fill="#3fb950" font-weight="normal" text-anchor="middle">+ Refresh Token</text>  <line x1="370" y1="380" x2="630" y2="380" stroke="#4183c4" stroke-width="1.5" marker-end="url(#ah)"/>  <text x="500.0" y="372" font-size="9" fill="#4183c4" font-weight="normal" text-anchor="middle">API 호출</text>  <text x="500.0" y="385" font-size="9" fill="#4183c4" font-weight="normal" text-anchor="middle">Authorization: Bearer</text>  <line x1="630" y1="430" x2="370" y2="430" stroke="#3fb950" stroke-width="1.5" marker-end="url(#ah)"/>  <text x="500.0" y="422" font-size="9" fill="#3fb950" font-weight="normal" text-anchor="middle">보호된 데이터 반환</text>
</svg>